<ttFont>
    <TTGlyph name="A" xMin="19" yMin="0" xMax="1273" yMax="1412">
      <contour>
        <pt x="19" y="64" on="1"/>
        <pt x="553" y="1412" on="1"/>
        <pt x="746" y="1412" on="1"/>
        <pt x="1273" y="59" on="1"/>
        <pt x="1273" y="0" on="1"/>
        <pt x="1084" y="0" on="1"/>
        <pt x="932" y="396" on="1"/>
        <pt x="349" y="396" on="1"/>
        <pt x="195" y="0" on="1"/>
        <pt x="19" y="0" on="1"/>
      </contour>
      <contour>
        <pt x="547" y="928" on="1"/>
        <pt x="414" y="568" on="1"/>
        <pt x="869" y="568" on="1"/>
        <pt x="739" y="928" on="1"/>
        <pt x="644" y="1198" on="1"/>
      </contour>
    </TTGlyph>
    <TTGlyph name="AE" xMin="-33" yMin="0" xMax="1694" yMax="1412">
      <contour>
        <pt x="960" y="0" on="1"/>
        <pt x="924" y="410" on="1"/>
        <pt x="389" y="410" on="1"/>
        <pt x="176" y="0" on="1"/>
        <pt x="-33" y="0" on="1"/>
        <pt x="704" y="1412" on="1"/>
        <pt x="1683" y="1412" on="1"/>
        <pt x="1683" y="1237" on="1"/>
        <pt x="1042" y="1237" on="1"/>
        <pt x="1081" y="820" on="1"/>
        <pt x="1651" y="820" on="1"/>
        <pt x="1651" y="645" on="1"/>
        <pt x="1098" y="645" on="1"/>
        <pt x="1142" y="177" on="1"/>
        <pt x="1694" y="177" on="1"/>
        <pt x="1694" y="0" on="1"/>
      </contour>
      <contour>
        <pt x="472" y="581" on="1"/>
        <pt x="907" y="581" on="1"/>
        <pt x="848" y="1245" on="1"/>
        <pt x="807" y="1245" on="1"/>
      </contour>
    </TTGlyph>
    <TTGlyph name="Aacute" xMin="19" yMin="0" xMax="1273" yMax="1888">
      <component glyphName="A" x="0" y="0" flags="0x1204"/>
      <component glyphName="acute" x="205" y="414" flags="0x1004"/>
    </TTGlyph>
    <TTGlyph name="Acircumflex" xMin="19" yMin="0" xMax="1273" yMax="1959">
      <component glyphName="A" x="0" y="0" flags="0x1204"/>
      <component glyphName="circumflex" x="245" y="414" flags="0x1004"/>
    </TTGlyph>
    <TTGlyph name="Adieresis" xMin="19" yMin="0" xMax="1273" yMax="1791">
      <component glyphName="A" x="0" y="0" flags="0x1204"/>
      <component glyphName="dieresis" x="242" y="414" flags="0x1004"/>
    </TTGlyph>
    <TTGlyph name="Agrave" xMin="19" yMin="0" xMax="1273" yMax="1887">
      <component glyphName="A" x="0" y="0" flags="0x1204"/>
      <component glyphName="grave" x="284" y="414" flags="0x1004"/>
    </TTGlyph>
    <TTGlyph name="Aring" xMin="19" yMin="0" xMax="1273" yMax="2012">
      <component glyphName="A" x="0" y="0" flags="0x1204"/>
      <component glyphName="ring" x="241" y="414" flags="0x1004"/>
    </TTGlyph>
    <TTGlyph name="Atilde" xMin="19" yMin="0" xMax="1273" yMax="1842">
      <component glyphName="A" x="0" y="0" flags="0x1204"/>
      <component glyphName="tilde" x="232" y="414" flags="0x1004"/>
    </TTGlyph>
    <TTGlyph name="B" xMin="190" yMin="0" xMax="1163" yMax="1412">
      <contour>
        <pt x="190" y="1412" on="1"/>
        <pt x="645" y="1412" on="1"/>
        <pt x="757" y="1412" on="0"/>
        <pt x="934" y="1375" on="0"/>
        <pt x="1057" y="1290" on="0"/>
        <pt x="1122" y="1153" on="0"/>
        <pt x="1122" y="1054" on="1"/>
        <pt x="1122" y="990" on="0"/>
        <pt x="1082" y="889" on="0"/>
        <pt x="1017" y="812" on="0"/>
        <pt x="935" y="757" on="0"/>
        <pt x="892" y="740" on="1"/>
        <pt x="941" y="725" on="0"/>
        <pt x="1039" y="675" on="0"/>
        <pt x="1115" y="596" on="0"/>
        <pt x="1163" y="480" on="0"/>
        <pt x="1163" y="399" on="1"/>
        <pt x="1163" y="339" on="0"/>
        <pt x="1134" y="239" on="0"/>
        <pt x="1089" y="160" on="0"/>
        <pt x="1036" y="101" on="0"/>
        <pt x="1012" y="83" on="1"/>
        <pt x="1013" y="84" on="1"/>
        <pt x="949" y="38" on="0"/>
        <pt x="778" y="0" on="0"/>
        <pt x="688" y="0" on="1"/>
        <pt x="190" y="0" on="1"/>
      </contour>
      <contour>
        <pt x="387" y="821" on="1"/>
        <pt x="637" y="821" on="1"/>
        <pt x="686" y="821" on="0"/>
        <pt x="787" y="837" on="0"/>
        <pt x="868" y="883" on="0"/>
        <pt x="919" y="968" on="0"/>
        <pt x="919" y="1037" on="1"/>
        <pt x="919" y="1104" on="0"/>
        <pt x="871" y="1185" on="0"/>
        <pt x="791" y="1227" on="0"/>
        <pt x="687" y="1240" on="0"/>
        <pt x="631" y="1240" on="1"/>
        <pt x="387" y="1240" on="1"/>
      </contour>
      <contour>
        <pt x="387" y="647" on="1"/>
        <pt x="387" y="170" on="1"/>
        <pt x="678" y="170" on="1"/>
        <pt x="815" y="170" on="0"/>
        <pt x="958" y="295" on="0"/>
        <pt x="958" y="413" on="1"/>
        <pt x="958" y="464" on="0"/>
        <pt x="926" y="549" on="0"/>
        <pt x="857" y="612" on="0"/>
        <pt x="751" y="647" on="0"/>
        <pt x="677" y="647" on="1"/>
      </contour>
    </TTGlyph>
    <TTGlyph name="C" xMin="105" yMin="-26" xMax="1162" yMax="1442">
      <contour>
        <pt x="1162" y="93" on="1"/>
        <pt x="1042" y="32" on="0"/>
        <pt x="826" y="-26" on="0"/>
        <pt x="730" y="-26" on="1"/>
        <pt x="624" y="-26" on="0"/>
        <pt x="449" y="31" on="0"/>
        <pt x="311" y="131" on="0"/>
        <pt x="207" y="268" on="0"/>
        <pt x="139" y="428" on="0"/>
        <pt x="105" y="605" on="0"/>
        <pt x="105" y="695" on="1"/>
        <pt x="105" y="788" on="0"/>
        <pt x="140" y="971" on="0"/>
        <pt x="210" y="1137" on="0"/>
        <pt x="315" y="1279" on="0"/>
        <pt x="453" y="1383" on="0"/>
        <pt x="624" y="1442" on="0"/>
        <pt x="726" y="1442" on="1"/>
        <pt x="795" y="1442" on="0"/>
        <pt x="924" y="1410" on="0"/>
        <pt x="1036" y="1340" on="0"/>
        <pt x="1125" y="1225" on="0"/>
        <pt x="1152" y="1143" on="1"/>
        <pt x="977" y="1101" on="1"/>
        <pt x="962" y="1150" on="0"/>
        <pt x="911" y="1214" on="0"/>
        <pt x="847" y="1252" on="0"/>
        <pt x="770" y="1268" on="0"/>
        <pt x="729" y="1268" on="1"/>
        <pt x="628" y="1268" on="0"/>
        <pt x="473" y="1174" on="0"/>
        <pt x="367" y="1016" on="0"/>
        <pt x="313" y="809" on="0"/>
        <pt x="313" y="697" on="1"/>
        <pt x="313" y="594" on="0"/>
        <pt x="365" y="397" on="0"/>
        <pt x="473" y="243" on="0"/>
        <pt x="637" y="149" on="0"/>
        <pt x="749" y="149" on="1"/>
        <pt x="824" y="149" on="0"/>
        <pt x="996" y="198" on="0"/>
        <pt x="1096" y="247" on="1"/>
      </contour>
    </TTGlyph>
    <TTGlyph name="Ccedilla" xMin="109" yMin="-439" xMax="1166" yMax="1442">
      <component glyphName="C" x="4" y="0" flags="0x1004"/>
      <component glyphName="cedilla" x="466" y="0" flags="0x1004"/>
    </TTGlyph>
    <TTGlyph name="D" xMin="190" yMin="0" xMax="1289" yMax="1412">
      <contour>
        <pt x="1289" y="706" on="1"/>
        <pt x="1289" y="604" on="0"/>
        <pt x="1254" y="433" on="0"/>
        <pt x="1196" y="293" on="0"/>
        <pt x="1121" y="184" on="0"/>
        <pt x="1079" y="145" on="1"/>
        <pt x="1031" y="103" on="0"/>
        <pt x="916" y="47" on="0"/>
        <pt x="787" y="14" on="0"/>
        <pt x="644" y="0" on="0"/>
        <pt x="568" y="0" on="1"/>
        <pt x="190" y="0" on="1"/>
        <pt x="190" y="1412" on="1"/>
        <pt x="592" y="1412" on="1"/>
        <pt x="664" y="1412" on="0"/>
        <pt x="806" y="1397" on="0"/>
        <pt x="941" y="1357" on="0"/>
        <pt x="1064" y="1287" on="0"/>
        <pt x="1116" y="1231" on="1"/>
        <pt x="1202" y="1131" on="0"/>
        <pt x="1289" y="860" on="0"/>
      </contour>
      <contour>
        <pt x="1080" y="699" on="1"/>
        <pt x="1080" y="739" on="0"/>
        <pt x="1070" y="847" on="0"/>
        <pt x="1042" y="961" on="0"/>
        <pt x="991" y="1073" on="0"/>
        <pt x="951" y="1118" on="1"/>
        <pt x="888" y="1187" on="0"/>
        <pt x="715" y="1240" on="0"/>
        <pt x="595" y="1240" on="1"/>
        <pt x="385" y="1240" on="1"/>
        <pt x="385" y="171" on="1"/>
        <pt x="554" y="171" on="1"/>
        <pt x="609" y="171" on="0"/>
        <pt x="714" y="183" on="0"/>
        <pt x="808" y="208" on="0"/>
        <pt x="891" y="248" on="0"/>
        <pt x="923" y="276" on="1"/>
        <pt x="970" y="319" on="0"/>
        <pt x="1031" y="427" on="0"/>
        <pt x="1066" y="542" on="0"/>
        <pt x="1080" y="653" on="0"/>
      </contour>
    </TTGlyph>
    <TTGlyph name="Delta" xMin="63" yMin="0" xMax="1214" yMax="1396">
      <contour>
        <pt x="63" y="119" on="1"/>
        <pt x="542" y="1396" on="1"/>
        <pt x="743" y="1396" on="1"/>
        <pt x="1214" y="121" on="1"/>
        <pt x="1214" y="0" on="1"/>
        <pt x="63" y="0" on="1"/>
      </contour>
      <contour>
        <pt x="1027" y="150" on="1"/>
        <pt x="761" y="889" on="1"/>
        <pt x="643" y="1227" on="1"/>
        <pt x="529" y="888" on="1"/>
        <pt x="529" y="889" on="1"/>
        <pt x="256" y="150" on="1"/>
      </contour>
    </TTGlyph>
    <TTGlyph name="E" xMin="190" yMin="0" xMax="1017" yMax="1412">
      <contour>
        <pt x="1017" y="0" on="1"/>
        <pt x="190" y="0" on="1"/>
        <pt x="190" y="1412" on="1"/>
        <pt x="1008" y="1412" on="1"/>
        <pt x="1008" y="1237" on="1"/>
        <pt x="386" y="1237" on="1"/>
        <pt x="386" y="818" on="1"/>
        <pt x="973" y="818" on="1"/>
        <pt x="973" y="643" on="1"/>
        <pt x="386" y="643" on="1"/>
        <pt x="386" y="179" on="1"/>
        <pt x="1017" y="179" on="1"/>
      </contour>
    </TTGlyph>
    <TTGlyph name="Eacute" xMin="190" yMin="0" xMax="1017" yMax="1888">
      <component glyphName="E" x="0" y="0" flags="0x1204"/>
      <component glyphName="acute" x="145" y="414" flags="0x1004"/>
    </TTGlyph>
    <TTGlyph name="Ecircumflex" xMin="190" yMin="0" xMax="1017" yMax="1959">
      <component glyphName="E" x="0" y="0" flags="0x1204"/>
      <component glyphName="circumflex" x="186" y="414" flags="0x1004"/>
    </TTGlyph>
    <TTGlyph name="Edieresis" xMin="190" yMin="0" xMax="1017" yMax="1791">
      <component glyphName="E" x="0" y="0" flags="0x1204"/>
      <component glyphName="dieresis" x="183" y="414" flags="0x1004"/>
    </TTGlyph>
    <TTGlyph name="Egrave" xMin="190" yMin="0" xMax="1017" yMax="1887">
      <component glyphName="E" x="0" y="0" flags="0x1204"/>
      <component glyphName="grave" x="225" y="414" flags="0x1004"/>
    </TTGlyph>
    <TTGlyph name="Eth" xMin="73" yMin="0" xMax="1294" yMax="1412">
      <contour>
        <pt x="73" y="640" on="1"/>
        <pt x="73" y="808" on="1"/>
        <pt x="192" y="808" on="1"/>
        <pt x="192" y="1412" on="1"/>
        <pt x="674" y="1412" on="1"/>
        <pt x="778" y="1412" on="0"/>
        <pt x="951" y="1358" on="0"/>
        <pt x="1089" y="1264" on="0"/>
        <pt x="1191" y="1134" on="0"/>
        <pt x="1260" y="981" on="0"/>
        <pt x="1294" y="812" on="0"/>
        <pt x="1294" y="725" on="1"/>
        <pt x="1294" y="564" on="0"/>
        <pt x="1211" y="297" on="0"/>
        <pt x="1049" y="106" on="0"/>
        <pt x="809" y="0" on="0"/>
        <pt x="651" y="0" on="1"/>
        <pt x="192" y="0" on="1"/>
        <pt x="192" y="640" on="1"/>
      </contour>
      <contour>
        <pt x="389" y="1240" on="1"/>
        <pt x="389" y="808" on="1"/>
        <pt x="565" y="808" on="1"/>
        <pt x="565" y="640" on="1"/>
        <pt x="389" y="640" on="1"/>
        <pt x="389" y="171" on="1"/>
        <pt x="637" y="171" on="1"/>
        <pt x="749" y="171" on="0"/>
        <pt x="917" y="253" on="0"/>
        <pt x="1028" y="398" on="0"/>
        <pt x="1084" y="597" on="0"/>
        <pt x="1084" y="713" on="1"/>
        <pt x="1084" y="812" on="0"/>
        <pt x="1032" y="1002" on="0"/>
        <pt x="929" y="1150" on="0"/>
        <pt x="777" y="1240" on="0"/>
        <pt x="677" y="1240" on="1"/>
      </contour>
    </TTGlyph>
    <TTGlyph name="Euro" xMin="78" yMin="-26" xMax="1147" yMax="1375">
      <contour>
        <pt x="1147" y="363" on="1"/>
        <pt x="1146" y="332" on="0"/>
        <pt x="1129" y="249" on="0"/>
        <pt x="1091" y="163" on="0"/>
        <pt x="1029" y="80" on="0"/>
        <pt x="937" y="14" on="0"/>
        <pt x="810" y="-26" on="0"/>
        <pt x="727" y="-26" on="1"/>
        <pt x="620" y="-26" on="0"/>
        <pt x="453" y="41" on="0"/>
        <pt x="331" y="166" on="0"/>
        <pt x="252" y="344" on="0"/>
        <pt x="233" y="454" on="1"/>
        <pt x="79" y="454" on="1"/>
        <pt x="120" y="587" on="1"/>
        <pt x="217" y="587" on="1"/>
        <pt x="215" y="604" on="0"/>
        <pt x="213" y="639" on="0"/>
        <pt x="213" y="657" on="1"/>
        <pt x="213" y="671" on="0"/>
        <pt x="215" y="714" on="0"/>
        <pt x="217" y="729" on="1"/>
        <pt x="78" y="729" on="1"/>
        <pt x="121" y="862" on="1"/>
        <pt x="231" y="862" on="1"/>
        <pt x="250" y="975" on="0"/>
        <pt x="336" y="1164" on="0"/>
        <pt x="464" y="1300" on="0"/>
        <pt x="632" y="1375" on="0"/>
        <pt x="734" y="1375" on="1"/>
        <pt x="814" y="1375" on="0"/>
        <pt x="958" y="1324" on="0"/>
        <pt x="1069" y="1222" on="0"/>
        <pt x="1139" y="1069" on="0"/>
        <pt x="1144" y="967" on="1"/>
        <pt x="960" y="967" on="1"/>
        <pt x="956" y="1025" on="0"/>
        <pt x="926" y="1106" on="0"/>
        <pt x="882" y="1161" on="0"/>
        <pt x="830" y="1192" on="0"/>
        <pt x="782" y="1208" on="0"/>
        <pt x="743" y="1212" on="0"/>
        <pt x="734" y="1212" on="1"/>
        <pt x="678" y="1212" on="0"/>
        <pt x="579" y="1161" on="0"/>
        <pt x="498" y="1068" on="0"/>
        <pt x="439" y="939" on="0"/>
        <pt x="423" y="862" on="1"/>
        <pt x="875" y="862" on="1"/>
        <pt x="832" y="729" on="1"/>
        <pt x="410" y="729" on="1"/>
        <pt x="408" y="712" on="0"/>
        <pt x="405" y="678" on="0"/>
        <pt x="405" y="661" on="1"/>
        <pt x="405" y="624" on="0"/>
        <pt x="411" y="587" on="1"/>
        <pt x="812" y="587" on="1"/>
        <pt x="770" y="454" on="1"/>
        <pt x="426" y="454" on="1"/>
        <pt x="441" y="386" on="0"/>
        <pt x="491" y="270" on="0"/>
        <pt x="563" y="185" on="0"/>
        <pt x="660" y="136" on="0"/>
        <pt x="722" y="136" on="1"/>
        <pt x="825" y="136" on="0"/>
        <pt x="959" y="256" on="0"/>
        <pt x="973" y="370" on="1"/>
      </contour>
    </TTGlyph>
    <TTGlyph name="F" xMin="191" yMin="0" xMax="986" yMax="1412">
      <contour>
        <pt x="391" y="0" on="1"/>
        <pt x="191" y="0" on="1"/>
        <pt x="191" y="1412" on="1"/>
        <pt x="986" y="1412" on="1"/>
        <pt x="986" y="1237" on="1"/>
        <pt x="391" y="1237" on="1"/>
        <pt x="391" y="789" on="1"/>
        <pt x="950" y="789" on="1"/>
        <pt x="950" y="614" on="1"/>
        <pt x="391" y="614" on="1"/>
      </contour>
    </TTGlyph>
    <TTGlyph name="G" xMin="108" yMin="-26" xMax="1231" yMax="1442">
      <contour>
        <pt x="1029" y="1086" on="1"/>
        <pt x="1012" y="1140" on="0"/>
        <pt x="958" y="1211" on="0"/>
        <pt x="890" y="1252" on="0"/>
        <pt x="810" y="1268" on="0"/>
        <pt x="767" y="1268" on="1"/>
        <pt x="678" y="1268" on="0"/>
        <pt x="513" y="1204" on="0"/>
        <pt x="386" y="1067" on="0"/>
        <pt x="310" y="853" on="0"/>
        <pt x="310" y="704" on="1"/>
        <pt x="310" y="588" on="0"/>
        <pt x="360" y="386" on="0"/>
        <pt x="472" y="236" on="0"/>
        <pt x="653" y="149" on="0"/>
        <pt x="785" y="149" on="1"/>
        <pt x="867" y="149" on="0"/>
        <pt x="982" y="166" on="0"/>
        <pt x="1027" y="175" on="1"/>
        <pt x="1041" y="175" on="1"/>
        <pt x="1041" y="751" on="1"/>
        <pt x="1231" y="751" on="1"/>
        <pt x="1231" y="54" on="1"/>
        <pt x="1181" y="38" on="0"/>
        <pt x="1076" y="9" on="0"/>
        <pt x="958" y="-13" on="0"/>
        <pt x="827" y="-26" on="0"/>
        <pt x="752" y="-26" on="1"/>
        <pt x="587" y="-26" on="0"/>
        <pt x="344" y="83" on="0"/>
        <pt x="185" y="277" on="0"/>
        <pt x="108" y="543" on="0"/>
        <pt x="108" y="700" on="1"/>
        <pt x="108" y="829" on="0"/>
        <pt x="159" y="1039" on="0"/>
        <pt x="249" y="1204" on="0"/>
        <pt x="373" y="1325" on="0"/>
        <pt x="519" y="1404" on="0"/>
        <pt x="680" y="1442" on="0"/>
        <pt x="763" y="1442" on="1"/>
        <pt x="829" y="1442" on="0"/>
        <pt x="971" y="1411" on="0"/>
        <pt x="1098" y="1336" on="0"/>
        <pt x="1200" y="1211" on="0"/>
        <pt x="1227" y="1118" on="1"/>
      </contour>
    </TTGlyph>
    <TTGlyph name="H" xMin="191" yMin="0" xMax="1226" yMax="1414">
      <contour>
        <pt x="1226" y="0" on="1"/>
        <pt x="1029" y="0" on="1"/>
        <pt x="1029" y="640" on="1"/>
        <pt x="388" y="640" on="1"/>
        <pt x="388" y="0" on="1"/>
        <pt x="191" y="0" on="1"/>
        <pt x="191" y="1414" on="1"/>
        <pt x="388" y="1414" on="1"/>
        <pt x="388" y="818" on="1"/>
        <pt x="1029" y="818" on="1"/>
        <pt x="1029" y="1414" on="1"/>
        <pt x="1226" y="1414" on="1"/>
      </contour>
    </TTGlyph>
    <TTGlyph name="I" xMin="191" yMin="0" xMax="387" yMax="1412">
      <contour>
        <pt x="191" y="0" on="1"/>
        <pt x="191" y="1412" on="1"/>
        <pt x="387" y="1412" on="1"/>
        <pt x="387" y="0" on="1"/>
      </contour>
    </TTGlyph>
    <TTGlyph name="Iacute" xMin="100" yMin="0" xMax="487" yMax="1888">
      <component glyphName="I" x="0" y="0" flags="0x1204"/>
      <component glyphName="acute" x="-149" y="414" flags="0x1004"/>
    </TTGlyph>
    <TTGlyph name="Icircumflex" xMin="-55" yMin="0" xMax="643" yMax="1959">
      <component glyphName="I" x="0" y="0" flags="0x1004"/>
      <component glyphName="circumflex" x="-108" y="414" flags="0x1004"/>
    </TTGlyph>
    <TTGlyph name="Idieresis" xMin="-6" yMin="0" xMax="594" yMax="1791">
      <component glyphName="I" x="0" y="0" flags="0x1004"/>
      <component glyphName="dieresis" x="-111" y="414" flags="0x1004"/>
    </TTGlyph>
    <TTGlyph name="Igrave" xMin="93" yMin="0" xMax="495" yMax="1887">
      <component glyphName="I" x="0" y="0" flags="0x1204"/>
      <component glyphName="grave" x="-69" y="414" flags="0x1004"/>
    </TTGlyph>
    <TTGlyph name="J" xMin="-152" yMin="-233" xMax="385" yMax="1412">
      <contour>
        <pt x="-117" y="-37" on="1"/>
        <pt x="-78" y="-48" on="0"/>
        <pt x="-3" y="-62" on="0"/>
        <pt x="31" y="-62" on="1"/>
        <pt x="65" y="-62" on="0"/>
        <pt x="124" y="-41" on="0"/>
        <pt x="167" y="10" on="0"/>
        <pt x="191" y="98" on="0"/>
        <pt x="191" y="165" on="1"/>
        <pt x="191" y="1412" on="1"/>
        <pt x="385" y="1412" on="1"/>
        <pt x="385" y="166" on="1"/>
        <pt x="385" y="62" on="0"/>
        <pt x="336" y="-88" on="0"/>
        <pt x="252" y="-186" on="0"/>
        <pt x="140" y="-233" on="0"/>
        <pt x="76" y="-233" on="1"/>
        <pt x="21" y="-233" on="0"/>
        <pt x="-95" y="-200" on="0"/>
        <pt x="-152" y="-168" on="1"/>
      </contour>
    </TTGlyph>
    <TTGlyph name="K" xMin="191" yMin="0" xMax="1244" yMax="1412">
      <contour>
        <pt x="1244" y="0" on="1"/>
        <pt x="988" y="0" on="1"/>
        <pt x="443" y="706" on="1"/>
        <pt x="387" y="636" on="1"/>
        <pt x="387" y="0" on="1"/>
        <pt x="191" y="0" on="1"/>
        <pt x="191" y="1412" on="1"/>
        <pt x="387" y="1412" on="1"/>
        <pt x="387" y="769" on="1"/>
        <pt x="494" y="896" on="1"/>
        <pt x="948" y="1412" on="1"/>
        <pt x="1200" y="1412" on="1"/>
        <pt x="626" y="785" on="1"/>
      </contour>
    </TTGlyph>
    <TTGlyph name="L" xMin="190" yMin="0" xMax="991" yMax="1412">
      <contour>
        <pt x="190" y="0" on="1"/>
        <pt x="190" y="1412" on="1"/>
        <pt x="387" y="1412" on="1"/>
        <pt x="387" y="180" on="1"/>
        <pt x="991" y="180" on="1"/>
        <pt x="991" y="0" on="1"/>
      </contour>
    </TTGlyph>
    <TTGlyph name="Lslash" xMin="74" yMin="0" xMax="996" yMax="1412">
      <contour>
        <pt x="196" y="0" on="1"/>
        <pt x="196" y="516" on="1"/>
        <pt x="74" y="441" on="1"/>
        <pt x="74" y="607" on="1"/>
        <pt x="196" y="681" on="1"/>
        <pt x="196" y="1412" on="1"/>
        <pt x="391" y="1412" on="1"/>
        <pt x="391" y="799" on="1"/>
        <pt x="763" y="1025" on="1"/>
        <pt x="763" y="859" on="1"/>
        <pt x="391" y="635" on="1"/>
        <pt x="391" y="180" on="1"/>
        <pt x="996" y="180" on="1"/>
        <pt x="996" y="0" on="1"/>
      </contour>
    </TTGlyph>
    <TTGlyph name="M" xMin="190" yMin="0" xMax="1599" yMax="1412">
      <contour>
        <pt x="1404" y="0" on="1"/>
        <pt x="1404" y="735" on="1"/>
        <pt x="1404" y="749" on="0"/>
        <pt x="1405" y="842" on="0"/>
        <pt x="1406" y="962" on="0"/>
        <pt x="1407" y="1093" on="0"/>
        <pt x="1408" y="1146" on="1"/>
        <pt x="1384" y="1150" on="1"/>
        <pt x="971" y="0" on="1"/>
        <pt x="797" y="0" on="1"/>
        <pt x="398" y="1139" on="1"/>
        <pt x="373" y="1135" on="1"/>
        <pt x="374" y="1082" on="0"/>
        <pt x="376" y="953" on="0"/>
        <pt x="378" y="834" on="0"/>
        <pt x="379" y="743" on="0"/>
        <pt x="379" y="728" on="1"/>
        <pt x="379" y="0" on="1"/>
        <pt x="190" y="0" on="1"/>
        <pt x="190" y="1412" on="1"/>
        <pt x="505" y="1412" on="1"/>
        <pt x="889" y="252" on="1"/>
        <pt x="1296" y="1412" on="1"/>
        <pt x="1599" y="1412" on="1"/>
        <pt x="1599" y="0" on="1"/>
      </contour>
    </TTGlyph>
    <TTGlyph name="N" xMin="191" yMin="0" xMax="1296" yMax="1412">
      <contour>
        <pt x="191" y="0" on="1"/>
        <pt x="191" y="1412" on="1"/>
        <pt x="437" y="1412" on="1"/>
        <pt x="1096" y="305" on="1"/>
        <pt x="1118" y="310" on="1"/>
        <pt x="1117" y="342" on="0"/>
        <pt x="1116" y="425" on="0"/>
        <pt x="1114" y="514" on="0"/>
        <pt x="1113" y="602" on="0"/>
        <pt x="1112" y="677" on="0"/>
        <pt x="1112" y="731" on="0"/>
        <pt x="1112" y="742" on="1"/>
        <pt x="1112" y="1412" on="1"/>
        <pt x="1296" y="1412" on="1"/>
        <pt x="1296" y="0" on="1"/>
        <pt x="1059" y="0" on="1"/>
        <pt x="387" y="1123" on="1"/>
        <pt x="366" y="1118" on="1"/>
        <pt x="367" y="1085" on="0"/>
        <pt x="368" y="1001" on="0"/>
        <pt x="370" y="910" on="0"/>
        <pt x="371" y="819" on="0"/>
        <pt x="372" y="743" on="0"/>
        <pt x="372" y="686" on="0"/>
        <pt x="372" y="675" on="1"/>
        <pt x="372" y="0" on="1"/>
      </contour>
    </TTGlyph>
    <TTGlyph name="Ntilde" xMin="191" yMin="0" xMax="1296" yMax="1842">
      <component glyphName="N" x="0" y="0" flags="0x1204"/>
      <component glyphName="tilde" x="332" y="414" flags="0x1004"/>
    </TTGlyph>
    <TTGlyph name="O" xMin="112" yMin="-26" xMax="1371" yMax="1442">
      <contour>
        <pt x="742" y="-26" on="1"/>
        <pt x="626" y="-26" on="0"/>
        <pt x="443" y="29" on="0"/>
        <pt x="303" y="127" on="0"/>
        <pt x="204" y="263" on="0"/>
        <pt x="141" y="425" on="0"/>
        <pt x="112" y="607" on="0"/>
        <pt x="112" y="703" on="1"/>
        <pt x="112" y="801" on="0"/>
        <pt x="143" y="987" on="0"/>
        <pt x="208" y="1151" on="0"/>
        <pt x="309" y="1288" on="0"/>
        <pt x="449" y="1387" on="0"/>
        <pt x="630" y="1442" on="0"/>
        <pt x="742" y="1442" on="1"/>
        <pt x="854" y="1442" on="0"/>
        <pt x="1035" y="1387" on="0"/>
        <pt x="1175" y="1288" on="0"/>
        <pt x="1276" y="1151" on="0"/>
        <pt x="1340" y="987" on="0"/>
        <pt x="1371" y="801" on="0"/>
        <pt x="1371" y="703" on="1"/>
        <pt x="1371" y="607" on="0"/>
        <pt x="1342" y="425" on="0"/>
        <pt x="1280" y="263" on="0"/>
        <pt x="1181" y="127" on="0"/>
        <pt x="1041" y="29" on="0"/>
        <pt x="858" y="-26" on="0"/>
      </contour>
      <contour>
        <pt x="742" y="149" on="1"/>
        <pt x="866" y="149" on="0"/>
        <pt x="1029" y="239" on="0"/>
        <pt x="1125" y="393" on="0"/>
        <pt x="1164" y="595" on="0"/>
        <pt x="1164" y="708" on="1"/>
        <pt x="1164" y="825" on="0"/>
        <pt x="1123" y="1029" on="0"/>
        <pt x="1025" y="1181" on="0"/>
        <pt x="863" y="1268" on="0"/>
        <pt x="742" y="1268" on="1"/>
        <pt x="621" y="1268" on="0"/>
        <pt x="459" y="1181" on="0"/>
        <pt x="361" y="1029" on="0"/>
        <pt x="319" y="825" on="0"/>
        <pt x="319" y="708" on="1"/>
        <pt x="319" y="595" on="0"/>
        <pt x="358" y="393" on="0"/>
        <pt x="454" y="239" on="0"/>
        <pt x="617" y="149" on="0"/>
      </contour>
    </TTGlyph>
    <TTGlyph name="OE" xMin="107" yMin="0" xMax="1875" yMax="1426">
      <contour>
        <pt x="1875" y="0" on="1"/>
        <pt x="743" y="0" on="1"/>
        <pt x="617" y="0" on="0"/>
        <pt x="386" y="87" on="0"/>
        <pt x="211" y="264" on="0"/>
        <pt x="107" y="533" on="0"/>
        <pt x="107" y="715" on="1"/>
        <pt x="107" y="794" on="0"/>
        <pt x="132" y="960" on="0"/>
        <pt x="193" y="1118" on="0"/>
        <pt x="294" y="1259" on="0"/>
        <pt x="447" y="1364" on="0"/>
        <pt x="655" y="1426" on="0"/>
        <pt x="792" y="1426" on="1"/>
        <pt x="809" y="1426" on="0"/>
        <pt x="871" y="1424" on="0"/>
        <pt x="940" y="1421" on="0"/>
        <pt x="1005" y="1419" on="0"/>
        <pt x="1025" y="1419" on="1"/>
        <pt x="1030" y="1419" on="0"/>
        <pt x="1047" y="1419" on="0"/>
        <pt x="1100" y="1419" on="0"/>
        <pt x="1204" y="1420" on="0"/>
        <pt x="1389" y="1420" on="0"/>
        <pt x="1668" y="1420" on="0"/>
        <pt x="1869" y="1420" on="1"/>
        <pt x="1869" y="1243" on="1"/>
        <pt x="1208" y="1243" on="1"/>
        <pt x="1208" y="817" on="1"/>
        <pt x="1839" y="817" on="1"/>
        <pt x="1839" y="640" on="1"/>
        <pt x="1208" y="640" on="1"/>
        <pt x="1208" y="181" on="1"/>
        <pt x="1875" y="181" on="1"/>
      </contour>
      <contour>
        <pt x="1000" y="1247" on="1"/>
        <pt x="935" y="1252" on="0"/>
        <pt x="840" y="1257" on="0"/>
        <pt x="792" y="1257" on="1"/>
        <pt x="683" y="1257" on="0"/>
        <pt x="528" y="1201" on="0"/>
        <pt x="424" y="1110" on="0"/>
        <pt x="362" y="995" on="0"/>
        <pt x="330" y="875" on="0"/>
        <pt x="321" y="761" on="0"/>
        <pt x="321" y="718" on="1"/>
        <pt x="321" y="666" on="0"/>
        <pt x="332" y="545" on="0"/>
        <pt x="367" y="425" on="0"/>
        <pt x="434" y="313" on="0"/>
        <pt x="545" y="227" on="0"/>
        <pt x="708" y="176" on="0"/>
        <pt x="823" y="176" on="1"/>
        <pt x="845" y="176" on="0"/>
        <pt x="884" y="176" on="0"/>
        <pt x="925" y="177" on="0"/>
        <pt x="971" y="178" on="0"/>
        <pt x="1000" y="179" on="1"/>
      </contour>
    </TTGlyph>
    <TTGlyph name="Oacute" xMin="112" yMin="-26" xMax="1371" yMax="1888">
      <component glyphName="O" x="0" y="0" flags="0x1204"/>
      <component glyphName="acute" x="302" y="414" flags="0x1004"/>
    </TTGlyph>
    <TTGlyph name="Ocircumflex" xMin="112" yMin="-26" xMax="1371" yMax="1959">
      <component glyphName="O" x="0" y="0" flags="0x1204"/>
      <component glyphName="circumflex" x="343" y="414" flags="0x1004"/>
    </TTGlyph>
    <TTGlyph name="Odieresis" xMin="112" yMin="-26" xMax="1371" yMax="1791">
      <component glyphName="O" x="0" y="0" flags="0x1204"/>
      <component glyphName="dieresis" x="340" y="414" flags="0x1004"/>
    </TTGlyph>
    <TTGlyph name="Ograve" xMin="112" yMin="-26" xMax="1371" yMax="1887">
      <component glyphName="O" x="0" y="0" flags="0x1204"/>
      <component glyphName="grave" x="382" y="414" flags="0x1004"/>
    </TTGlyph>
    <TTGlyph name="Oslash" xMin="113" yMin="-103" xMax="1371" yMax="1517">
      <contour>
        <pt x="1371" y="714" on="1"/>
        <pt x="1371" y="563" on="0"/>
        <pt x="1301" y="294" on="0"/>
        <pt x="1148" y="92" on="0"/>
        <pt x="908" y="-26" on="0"/>
        <pt x="737" y="-26" on="1"/>
        <pt x="639" y="-26" on="0"/>
        <pt x="480" y="12" on="0"/>
        <pt x="415" y="47" on="1"/>
        <pt x="324" y="-103" on="1"/>
        <pt x="195" y="-69" on="1"/>
        <pt x="311" y="123" on="1"/>
        <pt x="259" y="172" on="0"/>
        <pt x="184" y="299" on="0"/>
        <pt x="136" y="446" on="0"/>
        <pt x="113" y="613" on="0"/>
        <pt x="113" y="703" on="1"/>
        <pt x="113" y="771" on="0"/>
        <pt x="130" y="918" on="0"/>
        <pt x="170" y="1060" on="0"/>
        <pt x="233" y="1193" on="0"/>
        <pt x="280" y="1248" on="1"/>
        <pt x="279" y="1248" on="1"/>
        <pt x="327" y="1300" on="0"/>
        <pt x="439" y="1374" on="0"/>
        <pt x="560" y="1421" on="0"/>
        <pt x="686" y="1442" on="0"/>
        <pt x="747" y="1442" on="1"/>
        <pt x="838" y="1442" on="0"/>
        <pt x="995" y="1404" on="0"/>
        <pt x="1062" y="1368" on="1"/>
        <pt x="1152" y="1517" on="1"/>
        <pt x="1283" y="1482" on="1"/>
        <pt x="1167" y="1291" on="1"/>
        <pt x="1267" y="1197" on="0"/>
        <pt x="1371" y="908" on="0"/>
      </contour>
      <contour>
        <pt x="741" y="149" on="1"/>
        <pt x="831" y="149" on="0"/>
        <pt x="992" y="219" on="0"/>
        <pt x="1049" y="284" on="1"/>
        <pt x="1083" y="328" on="0"/>
        <pt x="1126" y="438" on="0"/>
        <pt x="1151" y="554" on="0"/>
        <pt x="1161" y="668" on="0"/>
        <pt x="1161" y="715" on="1"/>
        <pt x="1161" y="841" on="0"/>
        <pt x="1115" y="1046" on="0"/>
        <pt x="1064" y="1120" on="1"/>
        <pt x="513" y="210" on="1"/>
        <pt x="562" y="179" on="0"/>
        <pt x="678" y="149" on="0"/>
      </contour>
      <contour>
        <pt x="320" y="708" on="1"/>
        <pt x="320" y="593" on="0"/>
        <pt x="365" y="384" on="0"/>
        <pt x="419" y="302" on="1"/>
        <pt x="968" y="1212" on="1"/>
        <pt x="924" y="1239" on="0"/>
        <pt x="815" y="1268" on="0"/>
        <pt x="748" y="1268" on="1"/>
        <pt x="627" y="1268" on="0"/>
        <pt x="463" y="1181" on="0"/>
        <pt x="363" y="1029" on="0"/>
        <pt x="320" y="825" on="0"/>
      </contour>
    </TTGlyph>
    <TTGlyph name="Otilde" xMin="112" yMin="-26" xMax="1371" yMax="1842">
      <component glyphName="O" x="0" y="0" flags="0x1204"/>
      <component glyphName="tilde" x="330" y="414" flags="0x1004"/>
    </TTGlyph>
    <TTGlyph name="P" xMin="191" yMin="0" xMax="1101" yMax="1412">
      <contour>
        <pt x="1101" y="1010" on="1"/>
        <pt x="1101" y="925" on="0"/>
        <pt x="1049" y="772" on="0"/>
        <pt x="926" y="656" on="0"/>
        <pt x="722" y="587" on="0"/>
        <pt x="571" y="587" on="1"/>
        <pt x="387" y="587" on="1"/>
        <pt x="387" y="0" on="1"/>
        <pt x="191" y="0" on="1"/>
        <pt x="191" y="1412" on="1"/>
        <pt x="608" y="1412" on="1"/>
        <pt x="714" y="1412" on="0"/>
        <pt x="894" y="1370" on="0"/>
        <pt x="1026" y="1275" on="0"/>
        <pt x="1101" y="1121" on="0"/>
      </contour>
      <contour>
        <pt x="387" y="757" on="1"/>
        <pt x="482" y="757" on="1"/>
        <pt x="532" y="757" on="0"/>
        <pt x="633" y="759" on="0"/>
        <pt x="725" y="773" on="0"/>
        <pt x="804" y="803" on="0"/>
        <pt x="863" y="860" on="0"/>
        <pt x="896" y="947" on="0"/>
        <pt x="896" y="1010" on="1"/>
        <pt x="896" y="1083" on="0"/>
        <pt x="846" y="1173" on="0"/>
        <pt x="764" y="1224" on="0"/>
        <pt x="658" y="1242" on="0"/>
        <pt x="601" y="1242" on="1"/>
        <pt x="387" y="1242" on="1"/>
      </contour>
    </TTGlyph>
    <TTGlyph name="Q" xMin="111" yMin="-180" xMax="1362" yMax="1442">
      <contour>
        <pt x="1352" y="722" on="1"/>
        <pt x="1352" y="641" on="0"/>
        <pt x="1325" y="470" on="0"/>
        <pt x="1259" y="305" on="0"/>
        <pt x="1148" y="153" on="0"/>
        <pt x="1064" y="92" on="1"/>
        <pt x="1097" y="83" on="0"/>
        <pt x="1177" y="57" on="0"/>
        <pt x="1258" y="25" on="0"/>
        <pt x="1333" y="-9" on="0"/>
        <pt x="1362" y="-25" on="1"/>
        <pt x="1305" y="-180" on="1"/>
        <pt x="1167" y="-125" on="0"/>
        <pt x="896" y="-50" on="0"/>
        <pt x="752" y="-22" on="1"/>
        <pt x="738" y="-23" on="0"/>
        <pt x="712" y="-24" on="0"/>
        <pt x="698" y="-24" on="1"/>
        <pt x="565" y="-24" on="0"/>
        <pt x="348" y="74" on="0"/>
        <pt x="195" y="260" on="0"/>
        <pt x="111" y="530" on="0"/>
        <pt x="111" y="703" on="1"/>
        <pt x="111" y="801" on="0"/>
        <pt x="144" y="987" on="0"/>
        <pt x="210" y="1151" on="0"/>
        <pt x="311" y="1288" on="0"/>
        <pt x="448" y="1387" on="0"/>
        <pt x="622" y="1442" on="0"/>
        <pt x="728" y="1442" on="1"/>
        <pt x="840" y="1442" on="0"/>
        <pt x="1020" y="1389" on="0"/>
        <pt x="1159" y="1293" on="0"/>
        <pt x="1258" y="1160" on="0"/>
        <pt x="1322" y="1000" on="0"/>
        <pt x="1352" y="818" on="0"/>
      </contour>
      <contour>
        <pt x="319" y="700" on="1"/>
        <pt x="319" y="595" on="0"/>
        <pt x="360" y="396" on="0"/>
        <pt x="456" y="242" on="0"/>
        <pt x="614" y="149" on="0"/>
        <pt x="730" y="149" on="1"/>
        <pt x="816" y="149" on="0"/>
        <pt x="946" y="198" on="0"/>
        <pt x="1039" y="282" on="0"/>
        <pt x="1100" y="394" on="0"/>
        <pt x="1135" y="517" on="0"/>
        <pt x="1149" y="645" on="0"/>
        <pt x="1149" y="704" on="1"/>
        <pt x="1149" y="836" on="0"/>
        <pt x="1097" y="1045" on="0"/>
        <pt x="993" y="1191" on="0"/>
        <pt x="837" y="1269" on="0"/>
        <pt x="733" y="1269" on="1"/>
        <pt x="648" y="1269" on="0"/>
        <pt x="521" y="1218" on="0"/>
        <pt x="429" y="1132" on="0"/>
        <pt x="369" y="1017" on="0"/>
        <pt x="333" y="891" on="0"/>
        <pt x="319" y="760" on="0"/>
      </contour>
    </TTGlyph>
    <TTGlyph name="R" xMin="191" yMin="0" xMax="1183" yMax="1412">
      <contour>
        <pt x="191" y="0" on="1"/>
        <pt x="191" y="1412" on="1"/>
        <pt x="624" y="1412" on="1"/>
        <pt x="716" y="1412" on="0"/>
        <pt x="892" y="1376" on="0"/>
        <pt x="1029" y="1290" on="0"/>
        <pt x="1113" y="1148" on="0"/>
        <pt x="1113" y="1043" on="1"/>
        <pt x="1113" y="975" on="0"/>
        <pt x="1077" y="866" on="0"/>
        <pt x="1010" y="779" on="0"/>
        <pt x="914" y="715" on="0"/>
        <pt x="854" y="692" on="1"/>
        <pt x="934" y="673" on="0"/>
        <pt x="1027" y="614" on="0"/>
        <pt x="1080" y="529" on="0"/>
        <pt x="1103" y="418" on="0"/>
        <pt x="1123" y="277" on="0"/>
        <pt x="1151" y="104" on="0"/>
        <pt x="1183" y="0" on="1"/>
        <pt x="973" y="0" on="1"/>
        <pt x="952" y="109" on="0"/>
        <pt x="929" y="284" on="0"/>
        <pt x="905" y="419" on="0"/>
        <pt x="872" y="516" on="0"/>
        <pt x="810" y="578" on="0"/>
        <pt x="712" y="607" on="0"/>
        <pt x="635" y="607" on="1"/>
        <pt x="387" y="607" on="1"/>
        <pt x="387" y="0" on="1"/>
      </contour>
      <contour>
        <pt x="386" y="755" on="1"/>
        <pt x="618" y="755" on="1"/>
        <pt x="679" y="755" on="0"/>
        <pt x="785" y="783" on="0"/>
        <pt x="864" y="845" on="0"/>
        <pt x="909" y="946" on="0"/>
        <pt x="909" y="1019" on="1"/>
        <pt x="909" y="1095" on="0"/>
        <pt x="851" y="1183" on="0"/>
        <pt x="759" y="1228" on="0"/>
        <pt x="646" y="1239" on="0"/>
        <pt x="592" y="1239" on="1"/>
        <pt x="386" y="1239" on="1"/>
      </contour>
    </TTGlyph>
    <TTGlyph name="S" xMin="87" yMin="-26" xMax="994" yMax="1442">
      <contour>
        <pt x="489" y="149" on="1"/>
        <pt x="571" y="149" on="0"/>
        <pt x="690" y="185" on="0"/>
        <pt x="767" y="248" on="0"/>
        <pt x="804" y="333" on="0"/>
        <pt x="804" y="383" on="1"/>
        <pt x="804" y="433" on="0"/>
        <pt x="770" y="508" on="0"/>
        <pt x="697" y="568" on="0"/>
        <pt x="581" y="622" on="0"/>
        <pt x="500" y="651" on="1"/>
        <pt x="394" y="689" on="0"/>
        <pt x="249" y="774" on="0"/>
        <pt x="159" y="875" on="0"/>
        <pt x="120" y="996" on="0"/>
        <pt x="120" y="1070" on="1"/>
        <pt x="120" y="1161" on="0"/>
        <pt x="188" y="1300" on="0"/>
        <pt x="307" y="1394" on="0"/>
        <pt x="468" y="1442" on="0"/>
        <pt x="561" y="1442" on="1"/>
        <pt x="658" y="1442" on="0"/>
        <pt x="866" y="1377" on="0"/>
        <pt x="975" y="1305" on="1"/>
        <pt x="898" y="1159" on="1"/>
        <pt x="807" y="1217" on="0"/>
        <pt x="640" y="1268" on="0"/>
        <pt x="565" y="1268" on="1"/>
        <pt x="443" y="1268" on="0"/>
        <pt x="311" y="1165" on="0"/>
        <pt x="311" y="1074" on="1"/>
        <pt x="311" y="1023" on="0"/>
        <pt x="339" y="951" on="0"/>
        <pt x="403" y="894" on="0"/>
        <pt x="506" y="847" on="0"/>
        <pt x="582" y="821" on="1"/>
        <pt x="715" y="776" on="0"/>
        <pt x="877" y="684" on="0"/>
        <pt x="965" y="584" on="0"/>
        <pt x="994" y="470" on="0"/>
        <pt x="994" y="401" on="1"/>
        <pt x="994" y="302" on="0"/>
        <pt x="927" y="144" on="0"/>
        <pt x="801" y="33" on="0"/>
        <pt x="618" y="-26" on="0"/>
        <pt x="501" y="-26" on="1"/>
        <pt x="410" y="-26" on="0"/>
        <pt x="202" y="31" on="0"/>
        <pt x="87" y="93" on="1"/>
        <pt x="151" y="249" on="1"/>
        <pt x="248" y="199" on="0"/>
        <pt x="415" y="149" on="0"/>
      </contour>
    </TTGlyph>
    <TTGlyph name="Scaron" xMin="87" yMin="-26" xMax="994" yMax="1844">
      <component glyphName="S" x="0" y="0" flags="0x1204"/>
      <component glyphName="caron" x="279" y="395" flags="0x1004"/>
    </TTGlyph>
    <TTGlyph name="T" xMin="35" yMin="0" xMax="1106" yMax="1412">
      <contour>
        <pt x="668" y="0" on="1"/>
        <pt x="473" y="0" on="1"/>
        <pt x="473" y="1237" on="1"/>
        <pt x="35" y="1237" on="1"/>
        <pt x="35" y="1412" on="1"/>
        <pt x="1106" y="1412" on="1"/>
        <pt x="1106" y="1237" on="1"/>
        <pt x="668" y="1237" on="1"/>
      </contour>
    </TTGlyph>
    <TTGlyph name="Thorn" xMin="189" yMin="0" xMax="1099" yMax="1457">
      <contour>
        <pt x="189" y="1457" on="1"/>
        <pt x="385" y="1457" on="1"/>
        <pt x="385" y="1269" on="1"/>
        <pt x="606" y="1269" on="1"/>
        <pt x="712" y="1269" on="0"/>
        <pt x="893" y="1227" on="0"/>
        <pt x="1025" y="1133" on="0"/>
        <pt x="1099" y="980" on="0"/>
        <pt x="1099" y="868" on="1"/>
        <pt x="1099" y="755" on="0"/>
        <pt x="1028" y="595" on="0"/>
        <pt x="892" y="492" on="0"/>
        <pt x="695" y="444" on="0"/>
        <pt x="569" y="444" on="1"/>
        <pt x="385" y="444" on="1"/>
        <pt x="385" y="0" on="1"/>
        <pt x="189" y="0" on="1"/>
      </contour>
      <contour>
        <pt x="385" y="614" on="1"/>
        <pt x="480" y="614" on="1"/>
        <pt x="530" y="614" on="0"/>
        <pt x="631" y="616" on="0"/>
        <pt x="723" y="630" on="0"/>
        <pt x="802" y="661" on="0"/>
        <pt x="861" y="717" on="0"/>
        <pt x="894" y="804" on="0"/>
        <pt x="894" y="868" on="1"/>
        <pt x="894" y="941" on="0"/>
        <pt x="844" y="1031" on="0"/>
        <pt x="762" y="1082" on="0"/>
        <pt x="656" y="1100" on="0"/>
        <pt x="599" y="1100" on="1"/>
        <pt x="385" y="1100" on="1"/>
      </contour>
    </TTGlyph>
    <TTGlyph name="U" xMin="174" yMin="-26" xMax="1266" yMax="1412">
      <contour>
        <pt x="1266" y="1412" on="1"/>
        <pt x="1266" y="524" on="1"/>
        <pt x="1266" y="400" on="0"/>
        <pt x="1187" y="197" on="0"/>
        <pt x="1043" y="53" on="0"/>
        <pt x="842" y="-26" on="0"/>
        <pt x="721" y="-26" on="1"/>
        <pt x="600" y="-26" on="0"/>
        <pt x="399" y="45" on="0"/>
        <pt x="254" y="184" on="0"/>
        <pt x="174" y="393" on="0"/>
        <pt x="174" y="531" on="1"/>
        <pt x="174" y="1412" on="1"/>
        <pt x="370" y="1412" on="1"/>
        <pt x="370" y="519" on="1"/>
        <pt x="370" y="408" on="0"/>
        <pt x="433" y="264" on="0"/>
        <pt x="534" y="182" on="0"/>
        <pt x="661" y="150" on="0"/>
        <pt x="725" y="150" on="1"/>
        <pt x="801" y="150" on="0"/>
        <pt x="911" y="185" on="0"/>
        <pt x="989" y="243" on="0"/>
        <pt x="1037" y="320" on="0"/>
        <pt x="1064" y="403" on="0"/>
        <pt x="1073" y="487" on="0"/>
        <pt x="1073" y="524" on="1"/>
        <pt x="1073" y="1412" on="1"/>
      </contour>
    </TTGlyph>
    <TTGlyph name="Uacute" xMin="175" yMin="-26" xMax="1267" yMax="1869">
      <component glyphName="U" x="1" y="0" flags="0x1004"/>
      <component glyphName="acute" x="283" y="395" flags="0x1004"/>
    </TTGlyph>
    <TTGlyph name="Ucircumflex" xMin="175" yMin="-26" xMax="1267" yMax="1940">
      <component glyphName="U" x="1" y="0" flags="0x1004"/>
      <component glyphName="circumflex" x="321" y="395" flags="0x1004"/>
    </TTGlyph>
    <TTGlyph name="Udieresis" xMin="175" yMin="-26" xMax="1267" yMax="1772">
      <component glyphName="U" x="1" y="0" flags="0x1004"/>
      <component glyphName="dieresis" x="320" y="395" flags="0x1004"/>
    </TTGlyph>
    <TTGlyph name="Ugrave" xMin="175" yMin="-26" xMax="1267" yMax="1868">
      <component glyphName="U" x="1" y="0" flags="0x1004"/>
      <component glyphName="grave" x="360" y="395" flags="0x1004"/>
    </TTGlyph>
    <TTGlyph name="V" xMin="15" yMin="0" xMax="1205" yMax="1412">
      <contour>
        <pt x="1000" y="1412" on="1"/>
        <pt x="1205" y="1412" on="1"/>
        <pt x="706" y="0" on="1"/>
        <pt x="500" y="0" on="1"/>
        <pt x="15" y="1412" on="1"/>
        <pt x="229" y="1412" on="1"/>
        <pt x="467" y="678" on="1"/>
        <pt x="470" y="667" on="0"/>
        <pt x="486" y="615" on="0"/>
        <pt x="506" y="545" on="0"/>
        <pt x="529" y="463" on="0"/>
        <pt x="540" y="423" on="1"/>
        <pt x="566" y="327" on="0"/>
        <pt x="598" y="214" on="1"/>
        <pt x="609" y="214" on="1"/>
        <pt x="646" y="331" on="0"/>
        <pt x="677" y="428" on="1"/>
        <pt x="690" y="469" on="0"/>
        <pt x="716" y="551" on="0"/>
        <pt x="738" y="621" on="0"/>
        <pt x="754" y="671" on="0"/>
        <pt x="757" y="681" on="1"/>
      </contour>
    </TTGlyph>
    <TTGlyph name="W" xMin="38" yMin="0" xMax="1860" yMax="1412">
      <contour>
        <pt x="426" y="0" on="1"/>
        <pt x="38" y="1412" on="1"/>
        <pt x="246" y="1412" on="1"/>
        <pt x="290" y="1237" on="0"/>
        <pt x="383" y="881" on="0"/>
        <pt x="427" y="707" on="1"/>
        <pt x="431" y="688" on="0"/>
        <pt x="447" y="611" on="0"/>
        <pt x="467" y="515" on="0"/>
        <pt x="487" y="411" on="0"/>
        <pt x="504" y="321" on="0"/>
        <pt x="515" y="254" on="0"/>
        <pt x="515" y="243" on="1"/>
        <pt x="540" y="240" on="1"/>
        <pt x="569" y="365" on="1"/>
        <pt x="600" y="493" on="0"/>
        <pt x="651" y="697" on="0"/>
        <pt x="695" y="869" on="0"/>
        <pt x="736" y="1018" on="0"/>
        <pt x="776" y="1165" on="0"/>
        <pt x="819" y="1320" on="0"/>
        <pt x="844" y="1412" on="1"/>
        <pt x="1067" y="1412" on="1"/>
        <pt x="1269" y="662" on="1"/>
        <pt x="1281" y="625" on="0"/>
        <pt x="1311" y="524" on="0"/>
        <pt x="1339" y="418" on="0"/>
        <pt x="1361" y="320" on="0"/>
        <pt x="1364" y="286" on="1"/>
        <pt x="1390" y="284" on="1"/>
        <pt x="1432" y="472" on="1"/>
        <pt x="1441" y="511" on="0"/>
        <pt x="1458" y="588" on="0"/>
        <pt x="1472" y="652" on="0"/>
        <pt x="1483" y="698" on="0"/>
        <pt x="1486" y="708" on="1"/>
        <pt x="1661" y="1412" on="1"/>
        <pt x="1860" y="1412" on="1"/>
        <pt x="1471" y="0" on="1"/>
        <pt x="1266" y="0" on="1"/>
        <pt x="1187" y="290" on="1"/>
        <pt x="1157" y="402" on="0"/>
        <pt x="1094" y="626" on="0"/>
        <pt x="1065" y="738" on="1"/>
        <pt x="1061" y="752" on="0"/>
        <pt x="1044" y="822" on="0"/>
        <pt x="1023" y="913" on="0"/>
        <pt x="1000" y="1014" on="0"/>
        <pt x="981" y="1105" on="0"/>
        <pt x="969" y="1174" on="0"/>
        <pt x="969" y="1187" on="1"/>
        <pt x="943" y="1189" on="1"/>
        <pt x="828" y="735" on="1"/>
        <pt x="627" y="0" on="1"/>
      </contour>
    </TTGlyph>
    <TTGlyph name="X" xMin="12" yMin="0" xMax="1242" yMax="1412">
      <contour>
        <pt x="1242" y="0" on="1"/>
        <pt x="1003" y="0" on="1"/>
        <pt x="624" y="599" on="1"/>
        <pt x="235" y="0" on="1"/>
        <pt x="12" y="0" on="1"/>
        <pt x="509" y="737" on="1"/>
        <pt x="57" y="1412" on="1"/>
        <pt x="291" y="1412" on="1"/>
        <pt x="640" y="878" on="1"/>
        <pt x="987" y="1412" on="1"/>
        <pt x="1212" y="1412" on="1"/>
        <pt x="754" y="738" on="1"/>
      </contour>
    </TTGlyph>
    <TTGlyph name="Y" xMin="-9" yMin="0" xMax="1183" yMax="1412">
      <contour>
        <pt x="594" y="723" on="1"/>
        <pt x="963" y="1412" on="1"/>
        <pt x="1183" y="1412" on="1"/>
        <pt x="687" y="547" on="1"/>
        <pt x="687" y="0" on="1"/>
        <pt x="487" y="0" on="1"/>
        <pt x="487" y="547" on="1"/>
        <pt x="-9" y="1412" on="1"/>
        <pt x="223" y="1412" on="1"/>
      </contour>
    </TTGlyph>
    <TTGlyph name="Yacute" xMin="-9" yMin="0" xMax="1183" yMax="1869">
      <component glyphName="Y" x="0" y="0" flags="0x1204"/>
      <component glyphName="acute" x="140" y="395" flags="0x1004"/>
    </TTGlyph>
    <TTGlyph name="Ydieresis" xMin="-9" yMin="0" xMax="1183" yMax="1772">
      <component glyphName="Y" x="0" y="0" flags="0x1204"/>
      <component glyphName="dieresis" x="177" y="395" flags="0x1004"/>
    </TTGlyph>
    <TTGlyph name="Z" xMin="89" yMin="0" xMax="1082" yMax="1412">
      <contour>
        <pt x="1082" y="0" on="1"/>
        <pt x="89" y="0" on="1"/>
        <pt x="89" y="179" on="1"/>
        <pt x="831" y="1233" on="1"/>
        <pt x="110" y="1233" on="1"/>
        <pt x="110" y="1412" on="1"/>
        <pt x="1064" y="1412" on="1"/>
        <pt x="1064" y="1235" on="1"/>
        <pt x="320" y="180" on="1"/>
        <pt x="1082" y="180" on="1"/>
      </contour>
    </TTGlyph>
    <TTGlyph name="Zcaron" xMin="89" yMin="0" xMax="1082" yMax="1844">
      <component glyphName="Z" x="0" y="0" flags="0x1204"/>
      <component glyphName="caron" x="319" y="395" flags="0x1004"/>
    </TTGlyph>
    <TTGlyph name="a" xMin="77" yMin="-19" xMax="910" yMax="1041">
      <contour>
        <pt x="154" y="919" on="1"/>
        <pt x="194" y="946" on="0"/>
        <pt x="287" y="990" on="0"/>
        <pt x="386" y="1023" on="0"/>
        <pt x="486" y="1041" on="0"/>
        <pt x="533" y="1041" on="1"/>
        <pt x="605" y="1041" on="0"/>
        <pt x="734" y="1004" on="0"/>
        <pt x="831" y="925" on="0"/>
        <pt x="887" y="801" on="0"/>
        <pt x="887" y="713" on="1"/>
        <pt x="887" y="301" on="1"/>
        <pt x="887" y="233" on="0"/>
        <pt x="893" y="123" on="0"/>
        <pt x="898" y="83" on="1"/>
        <pt x="903" y="36" on="0"/>
        <pt x="910" y="0" on="1"/>
        <pt x="741" y="0" on="1"/>
        <pt x="738" y="17" on="0"/>
        <pt x="733" y="109" on="0"/>
        <pt x="731" y="166" on="1"/>
        <pt x="698" y="110" on="0"/>
        <pt x="620" y="39" on="0"/>
        <pt x="536" y="-3" on="0"/>
        <pt x="448" y="-19" on="0"/>
        <pt x="405" y="-19" on="1"/>
        <pt x="330" y="-19" on="0"/>
        <pt x="208" y="22" on="0"/>
        <pt x="123" y="100" on="0"/>
        <pt x="77" y="210" on="0"/>
        <pt x="77" y="279" on="1"/>
        <pt x="77" y="312" on="0"/>
        <pt x="92" y="386" on="0"/>
        <pt x="126" y="458" on="0"/>
        <pt x="182" y="524" on="0"/>
        <pt x="223" y="550" on="1"/>
        <pt x="267" y="578" on="0"/>
        <pt x="373" y="609" on="0"/>
        <pt x="486" y="624" on="0"/>
        <pt x="600" y="627" on="0"/>
        <pt x="653" y="627" on="1"/>
        <pt x="707" y="627" on="1"/>
        <pt x="707" y="701" on="1"/>
        <pt x="707" y="756" on="0"/>
        <pt x="679" y="831" on="0"/>
        <pt x="629" y="876" on="0"/>
        <pt x="563" y="896" on="0"/>
        <pt x="526" y="896" on="1"/>
        <pt x="485" y="896" on="0"/>
        <pt x="397" y="877" on="0"/>
        <pt x="313" y="847" on="0"/>
        <pt x="238" y="811" on="0"/>
        <pt x="209" y="793" on="1"/>
      </contour>
      <contour>
        <pt x="646" y="210" on="1"/>
        <pt x="665" y="232" on="0"/>
        <pt x="688" y="286" on="0"/>
        <pt x="701" y="354" on="0"/>
        <pt x="706" y="438" on="0"/>
        <pt x="706" y="491" on="1"/>
        <pt x="677" y="491" on="1"/>
        <pt x="608" y="491" on="0"/>
        <pt x="461" y="481" on="0"/>
        <pt x="338" y="439" on="0"/>
        <pt x="259" y="352" on="0"/>
        <pt x="259" y="276" on="1"/>
        <pt x="259" y="248" on="0"/>
        <pt x="277" y="195" on="0"/>
        <pt x="316" y="153" on="0"/>
        <pt x="375" y="127" on="0"/>
        <pt x="417" y="127" on="1"/>
        <pt x="489" y="127" on="0"/>
        <pt x="611" y="169" on="0"/>
      </contour>
    </TTGlyph>
    <TTGlyph name="aacute" xMin="77" yMin="-19" xMax="910" yMax="1474">
      <component glyphName="a" x="0" y="0" flags="0x1204"/>
      <component glyphName="acute" x="64" y="0" flags="0x1004"/>
    </TTGlyph>
    <TTGlyph name="acircumflex" xMin="77" yMin="-19" xMax="910" yMax="1545">
      <component glyphName="a" x="0" y="0" flags="0x1204"/>
      <component glyphName="circumflex" x="104" y="0" flags="0x1004"/>
    </TTGlyph>
    <TTGlyph name="acute" xMin="249" yMin="1165" xMax="636" yMax="1474">
      <contour>
        <pt x="249" y="1165" on="1"/>
        <pt x="417" y="1474" on="1"/>
        <pt x="636" y="1474" on="1"/>
        <pt x="380" y="1165" on="1"/>
      </contour>
    </TTGlyph>
    <TTGlyph name="adieresis" xMin="77" yMin="-19" xMax="910" yMax="1377">
      <component glyphName="a" x="0" y="0" flags="0x1204"/>
      <component glyphName="dieresis" x="101" y="0" flags="0x1004"/>
    </TTGlyph>
    <TTGlyph name="ae" xMin="76" yMin="-26" xMax="1565" yMax="1060">
      <contour>
        <pt x="1529" y="116" on="1"/>
        <pt x="1497" y="90" on="0"/>
        <pt x="1427" y="40" on="0"/>
        <pt x="1343" y="1" on="0"/>
        <pt x="1241" y="-22" on="0"/>
        <pt x="1179" y="-22" on="1"/>
        <pt x="1132" y="-22" on="0"/>
        <pt x="1026" y="1" on="0"/>
        <pt x="923" y="56" on="0"/>
        <pt x="834" y="148" on="0"/>
        <pt x="804" y="216" on="1"/>
        <pt x="774" y="148" on="0"/>
        <pt x="682" y="56" on="0"/>
        <pt x="575" y="-1" on="0"/>
        <pt x="459" y="-26" on="0"/>
        <pt x="405" y="-26" on="1"/>
        <pt x="329" y="-26" on="0"/>
        <pt x="207" y="16" on="0"/>
        <pt x="122" y="95" on="0"/>
        <pt x="76" y="208" on="0"/>
        <pt x="76" y="279" on="1"/>
        <pt x="76" y="346" on="0"/>
        <pt x="120" y="450" on="0"/>
        <pt x="197" y="529" on="0"/>
        <pt x="300" y="583" on="0"/>
        <pt x="417" y="617" on="0"/>
        <pt x="543" y="632" on="0"/>
        <pt x="603" y="632" on="1"/>
        <pt x="630" y="632" on="0"/>
        <pt x="681" y="629" on="0"/>
        <pt x="706" y="627" on="1"/>
        <pt x="706" y="688" on="1"/>
        <pt x="706" y="755" on="0"/>
        <pt x="677" y="840" on="0"/>
        <pt x="624" y="889" on="0"/>
        <pt x="550" y="907" on="0"/>
        <pt x="506" y="907" on="1"/>
        <pt x="467" y="907" on="0"/>
        <pt x="399" y="891" on="0"/>
        <pt x="337" y="864" on="0"/>
        <pt x="277" y="828" on="0"/>
        <pt x="247" y="808" on="1"/>
        <pt x="223" y="836" on="0"/>
        <pt x="173" y="890" on="0"/>
        <pt x="149" y="916" on="1"/>
        <pt x="191" y="950" on="0"/>
        <pt x="273" y="1004" on="0"/>
        <pt x="359" y="1041" on="0"/>
        <pt x="453" y="1060" on="0"/>
        <pt x="507" y="1060" on="1"/>
        <pt x="619" y="1060" on="0"/>
        <pt x="779" y="982" on="0"/>
        <pt x="833" y="893" on="1"/>
        <pt x="864" y="935" on="0"/>
        <pt x="941" y="997" on="0"/>
        <pt x="1024" y="1038" on="0"/>
        <pt x="1111" y="1059" on="0"/>
        <pt x="1152" y="1059" on="1"/>
        <pt x="1260" y="1059" on="0"/>
        <pt x="1416" y="982" on="0"/>
        <pt x="1517" y="851" on="0"/>
        <pt x="1565" y="677" on="0"/>
        <pt x="1565" y="580" on="1"/>
        <pt x="1565" y="480" on="1"/>
        <pt x="898" y="480" on="1"/>
        <pt x="899" y="409" on="0"/>
        <pt x="932" y="285" on="0"/>
        <pt x="1000" y="193" on="0"/>
        <pt x="1107" y="139" on="0"/>
        <pt x="1183" y="139" on="1"/>
        <pt x="1271" y="139" on="0"/>
        <pt x="1414" y="192" on="0"/>
        <pt x="1480" y="246" on="1"/>
      </contour>
      <contour>
        <pt x="1148" y="904" on="1"/>
        <pt x="1052" y="904" on="0"/>
        <pt x="920" y="774" on="0"/>
        <pt x="905" y="647" on="1"/>
        <pt x="905" y="631" on="1"/>
        <pt x="1368" y="631" on="1"/>
        <pt x="1366" y="685" on="0"/>
        <pt x="1345" y="783" on="0"/>
        <pt x="1294" y="859" on="0"/>
        <pt x="1211" y="904" on="0"/>
      </contour>
      <contour>
        <pt x="645" y="217" on="1"/>
        <pt x="663" y="240" on="0"/>
        <pt x="685" y="292" on="0"/>
        <pt x="699" y="356" on="0"/>
        <pt x="705" y="438" on="0"/>
        <pt x="705" y="491" on="1"/>
        <pt x="676" y="491" on="1"/>
        <pt x="640" y="491" on="0"/>
        <pt x="552" y="489" on="0"/>
        <pt x="461" y="477" on="0"/>
        <pt x="376" y="453" on="0"/>
        <pt x="309" y="409" on="0"/>
        <pt x="269" y="341" on="0"/>
        <pt x="269" y="292" on="1"/>
        <pt x="269" y="260" on="0"/>
        <pt x="289" y="202" on="0"/>
        <pt x="332" y="158" on="0"/>
        <pt x="400" y="131" on="0"/>
        <pt x="448" y="131" on="1"/>
        <pt x="511" y="131" on="0"/>
        <pt x="613" y="174" on="0"/>
      </contour>
    </TTGlyph>
    <TTGlyph name="agrave" xMin="77" yMin="-19" xMax="910" yMax="1473">
      <component glyphName="a" x="0" y="0" flags="0x1204"/>
      <component glyphName="grave" x="143" y="0" flags="0x1004"/>
    </TTGlyph>
    <TTGlyph name="ampersand" xMin="97" yMin="-22" xMax="1444" yMax="1449">
      <contour>
        <pt x="97" y="377" on="1"/>
        <pt x="97" y="454" on="0"/>
        <pt x="141" y="577" on="0"/>
        <pt x="217" y="680" on="0"/>
        <pt x="321" y="766" on="0"/>
        <pt x="380" y="807" on="1"/>
        <pt x="354" y="835" on="0"/>
        <pt x="301" y="902" on="0"/>
        <pt x="256" y="983" on="0"/>
        <pt x="228" y="1079" on="0"/>
        <pt x="228" y="1135" on="1"/>
        <pt x="228" y="1207" on="0"/>
        <pt x="277" y="1323" on="0"/>
        <pt x="371" y="1405" on="0"/>
        <pt x="509" y="1449" on="0"/>
        <pt x="598" y="1449" on="1"/>
        <pt x="672" y="1449" on="0"/>
        <pt x="804" y="1413" on="0"/>
        <pt x="902" y="1339" on="0"/>
        <pt x="959" y="1226" on="0"/>
        <pt x="959" y="1150" on="1"/>
        <pt x="959" y="1082" on="0"/>
        <pt x="907" y="969" on="0"/>
        <pt x="827" y="877" on="0"/>
        <pt x="731" y="803" on="0"/>
        <pt x="687" y="775" on="1"/>
        <pt x="1015" y="441" on="1"/>
        <pt x="1040" y="477" on="0"/>
        <pt x="1077" y="553" on="0"/>
        <pt x="1104" y="640" on="0"/>
        <pt x="1121" y="746" on="0"/>
        <pt x="1126" y="812" on="1"/>
        <pt x="1319" y="812" on="1"/>
        <pt x="1312" y="728" on="0"/>
        <pt x="1284" y="591" on="0"/>
        <pt x="1240" y="473" on="0"/>
        <pt x="1179" y="367" on="0"/>
        <pt x="1138" y="315" on="1"/>
        <pt x="1444" y="1" on="1"/>
        <pt x="1185" y="1" on="1"/>
        <pt x="1014" y="171" on="1"/>
        <pt x="964" y="126" on="0"/>
        <pt x="861" y="54" on="0"/>
        <pt x="748" y="5" on="0"/>
        <pt x="623" y="-22" on="0"/>
        <pt x="552" y="-22" on="1"/>
        <pt x="444" y="-22" on="0"/>
        <pt x="275" y="36" on="0"/>
        <pt x="158" y="142" on="0"/>
        <pt x="97" y="288" on="0"/>
      </contour>
      <contour>
        <pt x="568" y="151" on="1"/>
        <pt x="626" y="151" on="0"/>
        <pt x="723" y="177" on="0"/>
        <pt x="801" y="218" on="0"/>
        <pt x="864" y="269" on="0"/>
        <pt x="889" y="293" on="1"/>
        <pt x="825" y="354" on="0"/>
        <pt x="698" y="483" on="0"/>
        <pt x="638" y="545" on="1"/>
        <pt x="505" y="684" on="1"/>
        <pt x="451" y="646" on="0"/>
        <pt x="373" y="575" on="0"/>
        <pt x="324" y="503" on="0"/>
        <pt x="300" y="426" on="0"/>
        <pt x="300" y="383" on="1"/>
        <pt x="300" y="322" on="0"/>
        <pt x="347" y="235" on="0"/>
        <pt x="423" y="178" on="0"/>
        <pt x="519" y="151" on="0"/>
      </contour>
      <contour>
        <pt x="428" y="1140" on="1"/>
        <pt x="428" y="1083" on="0"/>
        <pt x="498" y="968" on="0"/>
        <pt x="563" y="902" on="1"/>
        <pt x="599" y="925" on="0"/>
        <pt x="668" y="978" on="0"/>
        <pt x="724" y="1039" on="0"/>
        <pt x="758" y="1108" on="0"/>
        <pt x="758" y="1147" on="1"/>
        <pt x="758" y="1173" on="0"/>
        <pt x="738" y="1222" on="0"/>
        <pt x="699" y="1261" on="0"/>
        <pt x="638" y="1285" on="0"/>
        <pt x="598" y="1285" on="1"/>
        <pt x="560" y="1285" on="0"/>
        <pt x="497" y="1263" on="0"/>
        <pt x="452" y="1224" on="0"/>
        <pt x="428" y="1171" on="0"/>
      </contour>
    </TTGlyph>
    <TTGlyph name="approxequal" xMin="152" yMin="259" xMax="1079" yMax="857">
      <contour>
        <pt x="1079" y="452" on="1"/>
        <pt x="1057" y="413" on="0"/>
        <pt x="1002" y="342" on="0"/>
        <pt x="937" y="290" on="0"/>
        <pt x="862" y="259" on="0"/>
        <pt x="820" y="259" on="1"/>
        <pt x="782" y="259" on="0"/>
        <pt x="710" y="281" on="0"/>
        <pt x="643" y="313" on="0"/>
        <pt x="577" y="351" on="0"/>
        <pt x="514" y="383" on="0"/>
        <pt x="450" y="405" on="0"/>
        <pt x="418" y="405" on="1"/>
        <pt x="386" y="405" on="0"/>
        <pt x="332" y="381" on="0"/>
        <pt x="286" y="341" on="0"/>
        <pt x="245" y="288" on="0"/>
        <pt x="226" y="259" on="1"/>
        <pt x="152" y="324" on="1"/>
        <pt x="200" y="415" on="0"/>
        <pt x="342" y="521" on="0"/>
        <pt x="430" y="521" on="1"/>
        <pt x="467" y="521" on="0"/>
        <pt x="536" y="499" on="0"/>
        <pt x="601" y="467" on="0"/>
        <pt x="663" y="429" on="0"/>
        <pt x="726" y="397" on="0"/>
        <pt x="789" y="375" on="0"/>
        <pt x="822" y="375" on="1"/>
        <pt x="878" y="375" on="0"/>
        <pt x="961" y="447" on="0"/>
        <pt x="1005" y="519" on="1"/>
      </contour>
      <contour>
        <pt x="1079" y="789" on="1"/>
        <pt x="1057" y="749" on="0"/>
        <pt x="1002" y="679" on="0"/>
        <pt x="937" y="626" on="0"/>
        <pt x="862" y="596" on="0"/>
        <pt x="820" y="596" on="1"/>
        <pt x="761" y="596" on="0"/>
        <pt x="659" y="641" on="0"/>
        <pt x="563" y="696" on="0"/>
        <pt x="468" y="741" on="0"/>
        <pt x="416" y="741" on="1"/>
        <pt x="384" y="741" on="0"/>
        <pt x="331" y="717" on="0"/>
        <pt x="285" y="677" on="0"/>
        <pt x="245" y="624" on="0"/>
        <pt x="226" y="596" on="1"/>
        <pt x="153" y="660" on="1"/>
        <pt x="201" y="750" on="0"/>
        <pt x="344" y="856" on="0"/>
        <pt x="430" y="856" on="1"/>
        <pt x="485" y="856" on="0"/>
        <pt x="584" y="811" on="0"/>
        <pt x="679" y="756" on="0"/>
        <pt x="774" y="711" on="0"/>
        <pt x="825" y="711" on="1"/>
        <pt x="879" y="711" on="0"/>
        <pt x="961" y="785" on="0"/>
        <pt x="1005" y="857" on="1"/>
      </contour>
    </TTGlyph>
    <TTGlyph name="aring" xMin="77" yMin="-19" xMax="910" yMax="1598">
      <component glyphName="a" x="0" y="0" flags="0x1204"/>
      <component glyphName="ring" x="100" y="0" flags="0x1004"/>
    </TTGlyph>
    <TTGlyph name="asciicircum" xMin="100" yMin="523" xMax="996" yMax="1381">
      <contour>
        <pt x="100" y="523" on="1"/>
        <pt x="485" y="1381" on="1"/>
        <pt x="614" y="1381" on="1"/>
        <pt x="996" y="523" on="1"/>
        <pt x="824" y="523" on="1"/>
        <pt x="548" y="1172" on="1"/>
        <pt x="271" y="523" on="1"/>
      </contour>
    </TTGlyph>
    <TTGlyph name="asciitilde" xMin="120" yMin="434" xMax="1089" yMax="734">
      <contour>
        <pt x="120" y="514" on="1"/>
        <pt x="156" y="614" on="0"/>
        <pt x="285" y="728" on="0"/>
        <pt x="379" y="728" on="1"/>
        <pt x="403" y="728" on="0"/>
        <pt x="477" y="709" on="0"/>
        <pt x="564" y="681" on="0"/>
        <pt x="658" y="649" on="0"/>
        <pt x="747" y="621" on="0"/>
        <pt x="825" y="602" on="0"/>
        <pt x="852" y="602" on="1"/>
        <pt x="896" y="602" on="0"/>
        <pt x="991" y="665" on="0"/>
        <pt x="1025" y="734" on="1"/>
        <pt x="1089" y="656" on="1"/>
        <pt x="1071" y="589" on="0"/>
        <pt x="1012" y="506" on="0"/>
        <pt x="943" y="459" on="0"/>
        <pt x="869" y="443" on="0"/>
        <pt x="837" y="443" on="1"/>
        <pt x="798" y="443" on="0"/>
        <pt x="708" y="462" on="0"/>
        <pt x="615" y="489" on="0"/>
        <pt x="523" y="522" on="0"/>
        <pt x="443" y="549" on="0"/>
        <pt x="379" y="568" on="0"/>
        <pt x="359" y="568" on="1"/>
        <pt x="317" y="568" on="0"/>
        <pt x="219" y="500" on="0"/>
        <pt x="184" y="434" on="1"/>
      </contour>
    </TTGlyph>
    <TTGlyph name="asterisk" xMin="109" yMin="677" xMax="839" yMax="1411">
      <contour>
        <pt x="211" y="1334" on="1"/>
        <pt x="336" y="1411" on="1"/>
        <pt x="473" y="1183" on="1"/>
        <pt x="610" y="1411" on="1"/>
        <pt x="737" y="1334" on="1"/>
        <pt x="604" y="1118" on="1"/>
        <pt x="839" y="1118" on="1"/>
        <pt x="839" y="969" on="1"/>
        <pt x="603" y="969" on="1"/>
        <pt x="736" y="754" on="1"/>
        <pt x="610" y="677" on="1"/>
        <pt x="473" y="904" on="1"/>
        <pt x="336" y="677" on="1"/>
        <pt x="210" y="754" on="1"/>
        <pt x="340" y="969" on="1"/>
        <pt x="109" y="969" on="1"/>
        <pt x="109" y="1118" on="1"/>
        <pt x="341" y="1118" on="1"/>
      </contour>
    </TTGlyph>
    <TTGlyph name="at" xMin="98" yMin="-77" xMax="1554" yMax="1449">
      <contour>
        <pt x="834" y="-77" on="1"/>
        <pt x="667" y="-77" on="0"/>
        <pt x="395" y="24" on="0"/>
        <pt x="203" y="212" on="0"/>
        <pt x="98" y="480" on="0"/>
        <pt x="98" y="647" on="1"/>
        <pt x="98" y="769" on="0"/>
        <pt x="154" y="984" on="0"/>
        <pt x="257" y="1162" on="0"/>
        <pt x="401" y="1302" on="0"/>
        <pt x="577" y="1398" on="0"/>
        <pt x="779" y="1449" on="0"/>
        <pt x="888" y="1449" on="1"/>
        <pt x="1024" y="1449" on="0"/>
        <pt x="1266" y="1365" on="0"/>
        <pt x="1448" y="1202" on="0"/>
        <pt x="1554" y="962" on="0"/>
        <pt x="1554" y="807" on="1"/>
        <pt x="1554" y="701" on="0"/>
        <pt x="1496" y="516" on="0"/>
        <pt x="1395" y="379" on="0"/>
        <pt x="1261" y="300" on="0"/>
        <pt x="1185" y="300" on="1"/>
        <pt x="1109" y="300" on="0"/>
        <pt x="1022" y="393" on="0"/>
        <pt x="1019" y="485" on="1"/>
        <pt x="999" y="452" on="0"/>
        <pt x="945" y="386" on="0"/>
        <pt x="884" y="333" on="0"/>
        <pt x="800" y="300" on="0"/>
        <pt x="750" y="300" on="1"/>
        <pt x="685" y="300" on="0"/>
        <pt x="579" y="347" on="0"/>
        <pt x="504" y="435" on="0"/>
        <pt x="464" y="558" on="0"/>
        <pt x="470" y="635" on="1"/>
        <pt x="470" y="722" on="0"/>
        <pt x="526" y="886" on="0"/>
        <pt x="624" y="1013" on="0"/>
        <pt x="771" y="1090" on="0"/>
        <pt x="862" y="1090" on="1"/>
        <pt x="913" y="1090" on="0"/>
        <pt x="1014" y="1044" on="0"/>
        <pt x="1058" y="1000" on="1"/>
        <pt x="1059" y="1011" on="0"/>
        <pt x="1063" y="1035" on="0"/>
        <pt x="1065" y="1045" on="1"/>
        <pt x="1067" y="1056" on="0"/>
        <pt x="1069" y="1068" on="1"/>
        <pt x="1208" y="1049" on="1"/>
        <pt x="1134" y="646" on="1"/>
        <pt x="1126" y="608" on="0"/>
        <pt x="1120" y="545" on="0"/>
        <pt x="1120" y="521" on="1"/>
        <pt x="1120" y="461" on="0"/>
        <pt x="1163" y="413" on="0"/>
        <pt x="1209" y="413" on="1"/>
        <pt x="1253" y="413" on="0"/>
        <pt x="1333" y="474" on="0"/>
        <pt x="1395" y="581" on="0"/>
        <pt x="1431" y="727" on="0"/>
        <pt x="1431" y="813" on="1"/>
        <pt x="1431" y="940" on="0"/>
        <pt x="1345" y="1134" on="0"/>
        <pt x="1196" y="1263" on="0"/>
        <pt x="999" y="1329" on="0"/>
        <pt x="888" y="1329" on="1"/>
        <pt x="742" y="1329" on="0"/>
        <pt x="497" y="1233" on="0"/>
        <pt x="320" y="1055" on="0"/>
        <pt x="221" y="803" on="0"/>
        <pt x="221" y="647" on="1"/>
        <pt x="221" y="505" on="0"/>
        <pt x="308" y="280" on="0"/>
        <pt x="469" y="124" on="0"/>
        <pt x="696" y="42" on="0"/>
        <pt x="837" y="42" on="1"/>
        <pt x="906" y="42" on="0"/>
        <pt x="1035" y="65" on="0"/>
        <pt x="1154" y="104" on="0"/>
        <pt x="1265" y="155" on="0"/>
        <pt x="1316" y="183" on="1"/>
        <pt x="1347" y="72" on="1"/>
        <pt x="1237" y="5" on="0"/>
        <pt x="988" y="-77" on="0"/>
      </contour>
      <contour>
        <pt x="782" y="423" on="1"/>
        <pt x="824" y="423" on="0"/>
        <pt x="886" y="454" on="0"/>
        <pt x="924" y="505" on="0"/>
        <pt x="956" y="570" on="0"/>
        <pt x="979" y="639" on="0"/>
        <pt x="995" y="706" on="0"/>
        <pt x="1002" y="733" on="1"/>
        <pt x="1038" y="940" on="1"/>
        <pt x="1002" y="948" on="0"/>
        <pt x="969" y="954" on="1"/>
        <pt x="941" y="959" on="0"/>
        <pt x="894" y="969" on="0"/>
        <pt x="880" y="969" on="1"/>
        <pt x="818" y="969" on="0"/>
        <pt x="719" y="904" on="0"/>
        <pt x="650" y="803" on="0"/>
        <pt x="617" y="682" on="0"/>
        <pt x="617" y="626" on="1"/>
        <pt x="619" y="529" on="0"/>
        <pt x="703" y="423" on="0"/>
      </contour>
    </TTGlyph>
    <TTGlyph name="atilde" xMin="77" yMin="-19" xMax="910" yMax="1428">
      <component glyphName="a" x="0" y="0" flags="0x1204"/>
      <component glyphName="tilde" x="91" y="0" flags="0x1004"/>
    </TTGlyph>
    <TTGlyph name="b" xMin="158" yMin="-19" xMax="1058" yMax="1413">
      <contour>
        <pt x="158" y="1413" on="1"/>
        <pt x="347" y="1413" on="1"/>
        <pt x="345" y="1057" on="1"/>
        <pt x="342" y="891" on="1"/>
        <pt x="363" y="919" on="0"/>
        <pt x="418" y="973" on="0"/>
        <pt x="487" y="1015" on="0"/>
        <pt x="571" y="1041" on="0"/>
        <pt x="622" y="1041" on="1"/>
        <pt x="739" y="1041" on="0"/>
        <pt x="904" y="958" on="0"/>
        <pt x="1009" y="816" on="0"/>
        <pt x="1058" y="628" on="0"/>
        <pt x="1058" y="522" on="1"/>
        <pt x="1058" y="407" on="0"/>
        <pt x="1009" y="209" on="0"/>
        <pt x="902" y="64" on="0"/>
        <pt x="734" y="-19" on="0"/>
        <pt x="615" y="-19" on="1"/>
        <pt x="582" y="-19" on="0"/>
        <pt x="511" y="-2" on="0"/>
        <pt x="438" y="35" on="0"/>
        <pt x="367" y="95" on="0"/>
        <pt x="336" y="137" on="1"/>
        <pt x="334" y="124" on="0"/>
        <pt x="328" y="79" on="0"/>
        <pt x="326" y="56" on="1"/>
        <pt x="322" y="30" on="0"/>
        <pt x="320" y="0" on="1"/>
        <pt x="158" y="0" on="1"/>
      </contour>
      <contour>
        <pt x="345" y="351" on="1"/>
        <pt x="345" y="317" on="0"/>
        <pt x="377" y="239" on="0"/>
        <pt x="443" y="172" on="0"/>
        <pt x="547" y="127" on="0"/>
        <pt x="619" y="127" on="1"/>
        <pt x="689" y="127" on="0"/>
        <pt x="787" y="191" on="0"/>
        <pt x="849" y="299" on="0"/>
        <pt x="876" y="439" on="0"/>
        <pt x="876" y="516" on="1"/>
        <pt x="876" y="586" on="0"/>
        <pt x="853" y="723" on="0"/>
        <pt x="795" y="829" on="0"/>
        <pt x="692" y="895" on="0"/>
        <pt x="613" y="895" on="1"/>
        <pt x="560" y="895" on="0"/>
        <pt x="464" y="853" on="0"/>
        <pt x="389" y="788" on="0"/>
        <pt x="345" y="712" on="0"/>
        <pt x="345" y="678" on="1"/>
      </contour>
    </TTGlyph>
    <TTGlyph name="backslash" xMin="73" yMin="-16" xMax="717" yMax="1408">
      <contour>
        <pt x="231" y="1408" on="1"/>
        <pt x="352" y="1049" on="0"/>
        <pt x="595" y="342" on="0"/>
        <pt x="717" y="-16" on="1"/>
        <pt x="560" y="-16" on="1"/>
        <pt x="73" y="1408" on="1"/>
      </contour>
    </TTGlyph>
    <TTGlyph name="bar" xMin="167" yMin="-477" xMax="330" yMax="1477">
      <contour>
        <pt x="167" y="1477" on="1"/>
        <pt x="330" y="1477" on="1"/>
        <pt x="330" y="-477" on="1"/>
        <pt x="167" y="-477" on="1"/>
      </contour>
    </TTGlyph>
    <TTGlyph name="braceleft" xMin="22" yMin="-273" xMax="653" yMax="1437">
      <contour>
        <pt x="646" y="-273" on="1"/>
        <pt x="530" y="-268" on="0"/>
        <pt x="385" y="-205" on="0"/>
        <pt x="304" y="-102" on="0"/>
        <pt x="274" y="33" on="0"/>
        <pt x="274" y="110" on="1"/>
        <pt x="274" y="284" on="1"/>
        <pt x="274" y="349" on="0"/>
        <pt x="238" y="434" on="0"/>
        <pt x="172" y="486" on="0"/>
        <pt x="79" y="511" on="0"/>
        <pt x="22" y="516" on="1"/>
        <pt x="22" y="649" on="1"/>
        <pt x="104" y="656" on="0"/>
        <pt x="203" y="695" on="0"/>
        <pt x="257" y="755" on="0"/>
        <pt x="274" y="834" on="0"/>
        <pt x="274" y="882" on="1"/>
        <pt x="274" y="1063" on="1"/>
        <pt x="274" y="1144" on="0"/>
        <pt x="307" y="1277" on="0"/>
        <pt x="391" y="1375" on="0"/>
        <pt x="534" y="1432" on="0"/>
        <pt x="645" y="1437" on="1"/>
        <pt x="653" y="1306" on="1"/>
        <pt x="589" y="1298" on="0"/>
        <pt x="509" y="1261" on="0"/>
        <pt x="464" y="1203" on="0"/>
        <pt x="448" y="1123" on="0"/>
        <pt x="448" y="1072" on="1"/>
        <pt x="448" y="897" on="1"/>
        <pt x="448" y="848" on="0"/>
        <pt x="432" y="753" on="0"/>
        <pt x="386" y="670" on="0"/>
        <pt x="304" y="603" on="0"/>
        <pt x="238" y="582" on="1"/>
        <pt x="304" y="561" on="0"/>
        <pt x="387" y="493" on="0"/>
        <pt x="432" y="410" on="0"/>
        <pt x="448" y="316" on="0"/>
        <pt x="448" y="269" on="1"/>
        <pt x="448" y="156" on="1"/>
        <pt x="448" y="95" on="0"/>
        <pt x="454" y="-8" on="0"/>
        <pt x="492" y="-85" on="0"/>
        <pt x="576" y="-133" on="0"/>
        <pt x="653" y="-139" on="1"/>
      </contour>
    </TTGlyph>
    <TTGlyph name="braceright" xMin="64" yMin="-273" xMax="695" yMax="1437">
      <contour>
        <pt x="64" y="-139" on="1"/>
        <pt x="141" y="-133" on="0"/>
        <pt x="225" y="-85" on="0"/>
        <pt x="263" y="-8" on="0"/>
        <pt x="269" y="95" on="0"/>
        <pt x="269" y="156" on="1"/>
        <pt x="269" y="269" on="1"/>
        <pt x="269" y="316" on="0"/>
        <pt x="285" y="410" on="0"/>
        <pt x="330" y="493" on="0"/>
        <pt x="413" y="561" on="0"/>
        <pt x="479" y="582" on="1"/>
        <pt x="413" y="603" on="0"/>
        <pt x="331" y="670" on="0"/>
        <pt x="285" y="753" on="0"/>
        <pt x="269" y="848" on="0"/>
        <pt x="269" y="897" on="1"/>
        <pt x="269" y="1072" on="1"/>
        <pt x="269" y="1123" on="0"/>
        <pt x="253" y="1203" on="0"/>
        <pt x="208" y="1261" on="0"/>
        <pt x="128" y="1298" on="0"/>
        <pt x="64" y="1306" on="1"/>
        <pt x="72" y="1437" on="1"/>
        <pt x="183" y="1432" on="0"/>
        <pt x="326" y="1375" on="0"/>
        <pt x="410" y="1277" on="0"/>
        <pt x="443" y="1144" on="0"/>
        <pt x="443" y="1063" on="1"/>
        <pt x="443" y="882" on="1"/>
        <pt x="443" y="834" on="0"/>
        <pt x="460" y="755" on="0"/>
        <pt x="514" y="695" on="0"/>
        <pt x="613" y="656" on="0"/>
        <pt x="695" y="649" on="1"/>
        <pt x="695" y="516" on="1"/>
        <pt x="638" y="511" on="0"/>
        <pt x="545" y="486" on="0"/>
        <pt x="479" y="434" on="0"/>
        <pt x="443" y="349" on="0"/>
        <pt x="443" y="284" on="1"/>
        <pt x="443" y="110" on="1"/>
        <pt x="443" y="33" on="0"/>
        <pt x="413" y="-102" on="0"/>
        <pt x="332" y="-205" on="0"/>
        <pt x="186" y="-268" on="0"/>
        <pt x="71" y="-273" on="1"/>
      </contour>
    </TTGlyph>
    <TTGlyph name="bracketleft" xMin="172" yMin="-272" xMax="540" yMax="1438">
      <contour>
        <pt x="540" y="-272" on="1"/>
        <pt x="172" y="-272" on="1"/>
        <pt x="172" y="1438" on="1"/>
        <pt x="540" y="1438" on="1"/>
        <pt x="540" y="1304" on="1"/>
        <pt x="344" y="1304" on="1"/>
        <pt x="344" y="-135" on="1"/>
        <pt x="540" y="-135" on="1"/>
      </contour>
    </TTGlyph>
    <TTGlyph name="bracketright" xMin="70" yMin="-272" xMax="438" yMax="1438">
      <contour>
        <pt x="70" y="-135" on="1"/>
        <pt x="265" y="-135" on="1"/>
        <pt x="265" y="1304" on="1"/>
        <pt x="70" y="1304" on="1"/>
        <pt x="70" y="1438" on="1"/>
        <pt x="438" y="1438" on="1"/>
        <pt x="438" y="-272" on="1"/>
        <pt x="70" y="-272" on="1"/>
      </contour>
    </TTGlyph>
    <TTGlyph name="breve" xMin="1" yMin="1153" xMax="542" yMax="1472">
      <contour>
        <pt x="101" y="1472" on="1"/>
        <pt x="106" y="1387" on="0"/>
        <pt x="185" y="1290" on="0"/>
        <pt x="268" y="1290" on="1"/>
        <pt x="323" y="1290" on="0"/>
        <pt x="391" y="1333" on="0"/>
        <pt x="428" y="1391" on="0"/>
        <pt x="441" y="1453" on="0"/>
        <pt x="443" y="1472" on="1"/>
        <pt x="542" y="1472" on="1"/>
        <pt x="540" y="1316" on="0"/>
        <pt x="406" y="1153" on="0"/>
        <pt x="268" y="1153" on="1"/>
        <pt x="204" y="1153" on="0"/>
        <pt x="115" y="1188" on="0"/>
        <pt x="56" y="1244" on="0"/>
        <pt x="22" y="1314" on="0"/>
        <pt x="6" y="1385" on="0"/>
        <pt x="1" y="1449" on="0"/>
        <pt x="1" y="1472" on="1"/>
      </contour>
    </TTGlyph>
    <TTGlyph name="brokenbar" xMin="177" yMin="-477" xMax="340" yMax="1477">
      <contour>
        <pt x="177" y="1477" on="1"/>
        <pt x="340" y="1477" on="1"/>
        <pt x="340" y="754" on="1"/>
        <pt x="177" y="754" on="1"/>
      </contour>
      <contour>
        <pt x="177" y="300" on="1"/>
        <pt x="340" y="300" on="1"/>
        <pt x="340" y="-477" on="1"/>
        <pt x="177" y="-477" on="1"/>
      </contour>
    </TTGlyph>
    <TTGlyph name="bullet" xMin="106" yMin="401" xMax="701" yMax="1022">
      <contour>
        <pt x="106" y="711" on="1"/>
        <pt x="106" y="783" on="0"/>
        <pt x="153" y="899" on="0"/>
        <pt x="233" y="979" on="0"/>
        <pt x="341" y="1022" on="0"/>
        <pt x="403" y="1022" on="1"/>
        <pt x="465" y="1022" on="0"/>
        <pt x="573" y="979" on="0"/>
        <pt x="654" y="898" on="0"/>
        <pt x="701" y="783" on="0"/>
        <pt x="701" y="711" on="1"/>
        <pt x="701" y="640" on="0"/>
        <pt x="655" y="526" on="0"/>
        <pt x="574" y="445" on="0"/>
        <pt x="465" y="401" on="0"/>
        <pt x="403" y="401" on="1"/>
        <pt x="341" y="401" on="0"/>
        <pt x="233" y="445" on="0"/>
        <pt x="152" y="526" on="0"/>
        <pt x="106" y="640" on="0"/>
      </contour>
    </TTGlyph>
    <TTGlyph name="c" xMin="98" yMin="-19" xMax="896" yMax="1041">
      <contour>
        <pt x="862" y="87" on="1"/>
        <pt x="785" y="33" on="0"/>
        <pt x="610" y="-19" on="0"/>
        <pt x="530" y="-19" on="1"/>
        <pt x="447" y="-19" on="0"/>
        <pt x="291" y="43" on="0"/>
        <pt x="171" y="175" on="0"/>
        <pt x="98" y="379" on="0"/>
        <pt x="98" y="522" on="1"/>
        <pt x="98" y="655" on="0"/>
        <pt x="178" y="850" on="0"/>
        <pt x="306" y="978" on="0"/>
        <pt x="467" y="1041" on="0"/>
        <pt x="548" y="1041" on="1"/>
        <pt x="605" y="1041" on="0"/>
        <pt x="716" y="1011" on="0"/>
        <pt x="810" y="945" on="0"/>
        <pt x="880" y="839" on="0"/>
        <pt x="896" y="763" on="1"/>
        <pt x="737" y="737" on="1"/>
        <pt x="726" y="782" on="0"/>
        <pt x="688" y="843" on="0"/>
        <pt x="638" y="880" on="0"/>
        <pt x="581" y="895" on="0"/>
        <pt x="551" y="895" on="1"/>
        <pt x="503" y="895" on="0"/>
        <pt x="408" y="853" on="0"/>
        <pt x="331" y="763" on="0"/>
        <pt x="283" y="625" on="0"/>
        <pt x="283" y="529" on="1"/>
        <pt x="283" y="434" on="0"/>
        <pt x="313" y="285" on="0"/>
        <pt x="378" y="182" on="0"/>
        <pt x="478" y="127" on="0"/>
        <pt x="547" y="127" on="1"/>
        <pt x="589" y="127" on="0"/>
        <pt x="664" y="142" on="0"/>
        <pt x="728" y="167" on="0"/>
        <pt x="782" y="199" on="0"/>
        <pt x="805" y="216" on="1"/>
      </contour>
    </TTGlyph>
    <TTGlyph name="caron" xMin="-38" yMin="1139" xMax="593" yMax="1449">
      <contour>
        <pt x="369" y="1139" on="1"/>
        <pt x="185" y="1139" on="1"/>
        <pt x="-38" y="1449" on="1"/>
        <pt x="139" y="1449" on="1"/>
        <pt x="275" y="1269" on="1"/>
        <pt x="406" y="1449" on="1"/>
        <pt x="593" y="1449" on="1"/>
      </contour>
    </TTGlyph>
    <TTGlyph name="ccedilla" xMin="99" yMin="-439" xMax="897" yMax="1041">
      <component glyphName="c" x="1" y="0" flags="0x1004"/>
      <component glyphName="cedilla" x="277" y="0" flags="0x1004"/>
    </TTGlyph>
    <TTGlyph name="cedilla" xMin="34" yMin="-439" xMax="434" yMax="18">
      <contour>
        <pt x="434" y="-248" on="1"/>
        <pt x="434" y="-274" on="0"/>
        <pt x="414" y="-340" on="0"/>
        <pt x="358" y="-398" on="0"/>
        <pt x="256" y="-439" on="0"/>
        <pt x="175" y="-439" on="1"/>
        <pt x="130" y="-439" on="0"/>
        <pt x="62" y="-423" on="0"/>
        <pt x="34" y="-412" on="1"/>
        <pt x="60" y="-313" on="1"/>
        <pt x="80" y="-321" on="0"/>
        <pt x="136" y="-330" on="0"/>
        <pt x="166" y="-330" on="1"/>
        <pt x="217" y="-330" on="0"/>
        <pt x="282" y="-292" on="0"/>
        <pt x="282" y="-256" on="1"/>
        <pt x="282" y="-236" on="0"/>
        <pt x="261" y="-210" on="0"/>
        <pt x="230" y="-195" on="0"/>
        <pt x="192" y="-189" on="0"/>
        <pt x="175" y="-189" on="1"/>
        <pt x="167" y="-189" on="0"/>
        <pt x="155" y="-189" on="0"/>
        <pt x="149" y="-190" on="1"/>
        <pt x="96" y="-163" on="1"/>
        <pt x="208" y="18" on="1"/>
        <pt x="319" y="18" on="1"/>
        <pt x="248" y="-97" on="1"/>
        <pt x="345" y="-111" on="0"/>
        <pt x="434" y="-182" on="0"/>
      </contour>
    </TTGlyph>
    <TTGlyph name="cent" xMin="94" yMin="-228" xMax="856" yMax="1307">
      <contour>
        <pt x="664" y="1307" on="1"/>
        <pt x="782" y="1307" on="1"/>
        <pt x="703" y="1039" on="1"/>
        <pt x="740" y="1018" on="1"/>
        <pt x="775" y="998" on="0"/>
        <pt x="833" y="950" on="0"/>
        <pt x="856" y="929" on="1"/>
        <pt x="767" y="808" on="1"/>
        <pt x="755" y="817" on="0"/>
        <pt x="735" y="833" on="0"/>
        <pt x="711" y="849" on="0"/>
        <pt x="678" y="866" on="0"/>
        <pt x="654" y="876" on="1"/>
        <pt x="443" y="158" on="1"/>
        <pt x="470" y="149" on="0"/>
        <pt x="522" y="141" on="0"/>
        <pt x="550" y="141" on="1"/>
        <pt x="588" y="141" on="0"/>
        <pt x="657" y="158" on="0"/>
        <pt x="718" y="186" on="0"/>
        <pt x="771" y="222" on="0"/>
        <pt x="794" y="240" on="1"/>
        <pt x="843" y="112" on="1"/>
        <pt x="799" y="54" on="0"/>
        <pt x="658" y="-21" on="0"/>
        <pt x="550" y="-21" on="1"/>
        <pt x="515" y="-21" on="0"/>
        <pt x="438" y="-10" on="0"/>
        <pt x="396" y="0" on="1"/>
        <pt x="330" y="-228" on="1"/>
        <pt x="213" y="-228" on="1"/>
        <pt x="293" y="48" on="1"/>
        <pt x="250" y="77" on="0"/>
        <pt x="177" y="162" on="0"/>
        <pt x="124" y="276" on="0"/>
        <pt x="94" y="422" on="0"/>
        <pt x="94" y="513" on="1"/>
        <pt x="94" y="664" on="0"/>
        <pt x="169" y="873" on="0"/>
        <pt x="297" y="1002" on="0"/>
        <pt x="465" y="1059" on="0"/>
        <pt x="557" y="1059" on="1"/>
        <pt x="562" y="1059" on="0"/>
        <pt x="576" y="1059" on="0"/>
        <pt x="590" y="1057" on="1"/>
      </contour>
      <contour>
        <pt x="286" y="519" on="1"/>
        <pt x="286" y="440" on="0"/>
        <pt x="316" y="296" on="0"/>
        <pt x="347" y="233" on="1"/>
        <pt x="543" y="898" on="1"/>
        <pt x="469" y="890" on="0"/>
        <pt x="371" y="827" on="0"/>
        <pt x="311" y="728" on="0"/>
        <pt x="286" y="596" on="0"/>
      </contour>
    </TTGlyph>
    <TTGlyph name="circumflex" xMin="53" yMin="1187" xMax="751" yMax="1545">
      <contour>
        <pt x="563" y="1187" on="1"/>
        <pt x="400" y="1413" on="1"/>
        <pt x="234" y="1187" on="1"/>
        <pt x="53" y="1187" on="1"/>
        <pt x="313" y="1545" on="1"/>
        <pt x="495" y="1545" on="1"/>
        <pt x="751" y="1187" on="1"/>
      </contour>
    </TTGlyph>
    <TTGlyph name="colon" xMin="143" yMin="0" xMax="374" yMax="1019">
      <contour>
        <pt x="143" y="1019" on="1"/>
        <pt x="374" y="1019" on="1"/>
        <pt x="374" y="780" on="1"/>
        <pt x="143" y="780" on="1"/>
      </contour>
      <contour>
        <pt x="143" y="239" on="1"/>
        <pt x="374" y="239" on="1"/>
        <pt x="374" y="0" on="1"/>
        <pt x="143" y="0" on="1"/>
      </contour>
    </TTGlyph>
    <TTGlyph name="comma" xMin="57" yMin="-248" xMax="391" yMax="244">
      <contour>
        <pt x="57" y="-248" on="1"/>
        <pt x="169" y="244" on="1"/>
        <pt x="391" y="244" on="1"/>
        <pt x="197" y="-248" on="1"/>
      </contour>
    </TTGlyph>
    <TTGlyph name="copyright" xMin="93" yMin="-19" xMax="1554" yMax="1445">
      <contour>
        <pt x="477" y="719" on="1"/>
        <pt x="477" y="790" on="0"/>
        <pt x="515" y="948" on="0"/>
        <pt x="602" y="1075" on="0"/>
        <pt x="742" y="1154" on="0"/>
        <pt x="843" y="1154" on="1"/>
        <pt x="879" y="1154" on="0"/>
        <pt x="957" y="1139" on="0"/>
        <pt x="1029" y="1101" on="0"/>
        <pt x="1090" y="1036" on="0"/>
        <pt x="1108" y="987" on="1"/>
        <pt x="1012" y="928" on="1"/>
        <pt x="997" y="963" on="0"/>
        <pt x="960" y="1003" on="0"/>
        <pt x="917" y="1024" on="0"/>
        <pt x="868" y="1031" on="0"/>
        <pt x="840" y="1031" on="1"/>
        <pt x="777" y="1031" on="0"/>
        <pt x="692" y="975" on="0"/>
        <pt x="641" y="884" on="0"/>
        <pt x="619" y="769" on="0"/>
        <pt x="619" y="718" on="1"/>
        <pt x="619" y="667" on="0"/>
        <pt x="641" y="552" on="0"/>
        <pt x="692" y="461" on="0"/>
        <pt x="777" y="405" on="0"/>
        <pt x="840" y="405" on="1"/>
        <pt x="868" y="405" on="0"/>
        <pt x="917" y="412" on="0"/>
        <pt x="960" y="433" on="0"/>
        <pt x="997" y="473" on="0"/>
        <pt x="1012" y="508" on="1"/>
        <pt x="1108" y="449" on="1"/>
        <pt x="1090" y="400" on="0"/>
        <pt x="1029" y="335" on="0"/>
        <pt x="957" y="297" on="0"/>
        <pt x="879" y="282" on="0"/>
        <pt x="843" y="282" on="1"/>
        <pt x="742" y="282" on="0"/>
        <pt x="602" y="361" on="0"/>
        <pt x="515" y="488" on="0"/>
        <pt x="477" y="646" on="0"/>
      </contour>
      <contour>
        <pt x="93" y="713" on="1"/>
        <pt x="93" y="813" on="0"/>
        <pt x="145" y="1000" on="0"/>
        <pt x="239" y="1163" on="0"/>
        <pt x="372" y="1297" on="0"/>
        <pt x="535" y="1392" on="0"/>
        <pt x="722" y="1445" on="0"/>
        <pt x="824" y="1445" on="1"/>
        <pt x="924" y="1445" on="0"/>
        <pt x="1111" y="1393" on="0"/>
        <pt x="1273" y="1297" on="0"/>
        <pt x="1406" y="1164" on="0"/>
        <pt x="1502" y="1001" on="0"/>
        <pt x="1554" y="814" on="0"/>
        <pt x="1554" y="713" on="1"/>
        <pt x="1554" y="612" on="0"/>
        <pt x="1502" y="425" on="0"/>
        <pt x="1406" y="262" on="0"/>
        <pt x="1273" y="128" on="0"/>
        <pt x="1111" y="33" on="0"/>
        <pt x="924" y="-19" on="0"/>
        <pt x="824" y="-19" on="1"/>
        <pt x="722" y="-19" on="0"/>
        <pt x="535" y="33" on="0"/>
        <pt x="372" y="129" on="0"/>
        <pt x="239" y="263" on="0"/>
        <pt x="145" y="425" on="0"/>
        <pt x="93" y="612" on="0"/>
      </contour>
      <contour>
        <pt x="197" y="713" on="1"/>
        <pt x="197" y="584" on="0"/>
        <pt x="295" y="358" on="0"/>
        <pt x="465" y="188" on="0"/>
        <pt x="694" y="90" on="0"/>
        <pt x="824" y="90" on="1"/>
        <pt x="954" y="90" on="0"/>
        <pt x="1182" y="188" on="0"/>
        <pt x="1351" y="358" on="0"/>
        <pt x="1448" y="584" on="0"/>
        <pt x="1448" y="713" on="1"/>
        <pt x="1448" y="799" on="0"/>
        <pt x="1404" y="958" on="0"/>
        <pt x="1323" y="1097" on="0"/>
        <pt x="1209" y="1211" on="0"/>
        <pt x="1070" y="1292" on="0"/>
        <pt x="910" y="1337" on="0"/>
        <pt x="824" y="1337" on="1"/>
        <pt x="737" y="1337" on="0"/>
        <pt x="577" y="1292" on="0"/>
        <pt x="438" y="1211" on="0"/>
        <pt x="323" y="1097" on="0"/>
        <pt x="242" y="958" on="0"/>
        <pt x="197" y="799" on="0"/>
      </contour>
    </TTGlyph>
    <TTGlyph name="currency" xMin="150" yMin="281" xMax="1317" yMax="1452">
      <contour>
        <pt x="150" y="866" on="1"/>
        <pt x="150" y="966" on="0"/>
        <pt x="214" y="1150" on="0"/>
        <pt x="272" y="1227" on="1"/>
        <pt x="175" y="1325" on="1"/>
        <pt x="279" y="1428" on="1"/>
        <pt x="376" y="1330" on="1"/>
        <pt x="454" y="1387" on="0"/>
        <pt x="634" y="1452" on="0"/>
        <pt x="734" y="1452" on="1"/>
        <pt x="831" y="1452" on="0"/>
        <pt x="1011" y="1388" on="0"/>
        <pt x="1089" y="1331" on="1"/>
        <pt x="1186" y="1428" on="1"/>
        <pt x="1290" y="1325" on="1"/>
        <pt x="1193" y="1227" on="1"/>
        <pt x="1253" y="1151" on="0"/>
        <pt x="1317" y="968" on="0"/>
        <pt x="1317" y="866" on="1"/>
        <pt x="1317" y="766" on="0"/>
        <pt x="1254" y="587" on="0"/>
        <pt x="1196" y="511" on="1"/>
        <pt x="1218" y="488" on="0"/>
        <pt x="1268" y="439" on="0"/>
        <pt x="1290" y="417" on="1"/>
        <pt x="1186" y="313" on="1"/>
        <pt x="1094" y="405" on="1"/>
        <pt x="1016" y="346" on="0"/>
        <pt x="833" y="281" on="0"/>
        <pt x="734" y="281" on="1"/>
        <pt x="634" y="281" on="0"/>
        <pt x="450" y="346" on="0"/>
        <pt x="372" y="406" on="1"/>
        <pt x="279" y="313" on="1"/>
        <pt x="175" y="417" on="1"/>
        <pt x="270" y="512" on="1"/>
        <pt x="213" y="587" on="0"/>
        <pt x="150" y="766" on="0"/>
      </contour>
      <contour>
        <pt x="734" y="420" on="1"/>
        <pt x="839" y="420" on="0"/>
        <pt x="995" y="497" on="0"/>
        <pt x="1100" y="622" on="0"/>
        <pt x="1152" y="782" on="0"/>
        <pt x="1152" y="866" on="1"/>
        <pt x="1152" y="950" on="0"/>
        <pt x="1100" y="1110" on="0"/>
        <pt x="995" y="1235" on="0"/>
        <pt x="838" y="1312" on="0"/>
        <pt x="734" y="1312" on="1"/>
        <pt x="629" y="1312" on="0"/>
        <pt x="473" y="1235" on="0"/>
        <pt x="368" y="1110" on="0"/>
        <pt x="316" y="950" on="0"/>
        <pt x="316" y="866" on="1"/>
        <pt x="316" y="782" on="0"/>
        <pt x="368" y="622" on="0"/>
        <pt x="473" y="497" on="0"/>
        <pt x="629" y="420" on="0"/>
      </contour>
    </TTGlyph>
    <TTGlyph name="d" xMin="100" yMin="-19" xMax="1000" yMax="1413">
      <contour>
        <pt x="1000" y="0" on="1"/>
        <pt x="838" y="0" on="1"/>
        <pt x="834" y="30" on="0"/>
        <pt x="831" y="56" on="1"/>
        <pt x="828" y="79" on="0"/>
        <pt x="824" y="124" on="0"/>
        <pt x="822" y="137" on="1"/>
        <pt x="790" y="95" on="0"/>
        <pt x="720" y="35" on="0"/>
        <pt x="647" y="-2" on="0"/>
        <pt x="576" y="-19" on="0"/>
        <pt x="543" y="-19" on="1"/>
        <pt x="424" y="-19" on="0"/>
        <pt x="255" y="64" on="0"/>
        <pt x="149" y="209" on="0"/>
        <pt x="100" y="407" on="0"/>
        <pt x="100" y="522" on="1"/>
        <pt x="100" y="628" on="0"/>
        <pt x="148" y="816" on="0"/>
        <pt x="253" y="958" on="0"/>
        <pt x="419" y="1041" on="0"/>
        <pt x="536" y="1041" on="1"/>
        <pt x="587" y="1041" on="0"/>
        <pt x="671" y="1015" on="0"/>
        <pt x="740" y="973" on="0"/>
        <pt x="795" y="919" on="0"/>
        <pt x="816" y="891" on="1"/>
        <pt x="813" y="1057" on="1"/>
        <pt x="811" y="1413" on="1"/>
        <pt x="1000" y="1413" on="1"/>
      </contour>
      <contour>
        <pt x="813" y="678" on="1"/>
        <pt x="813" y="712" on="0"/>
        <pt x="769" y="788" on="0"/>
        <pt x="694" y="853" on="0"/>
        <pt x="597" y="895" on="0"/>
        <pt x="545" y="895" on="1"/>
        <pt x="465" y="895" on="0"/>
        <pt x="363" y="829" on="0"/>
        <pt x="305" y="723" on="0"/>
        <pt x="282" y="586" on="0"/>
        <pt x="282" y="516" on="1"/>
        <pt x="282" y="439" on="0"/>
        <pt x="309" y="299" on="0"/>
        <pt x="371" y="191" on="0"/>
        <pt x="468" y="127" on="0"/>
        <pt x="539" y="127" on="1"/>
        <pt x="611" y="127" on="0"/>
        <pt x="715" y="172" on="0"/>
        <pt x="781" y="239" on="0"/>
        <pt x="813" y="317" on="0"/>
        <pt x="813" y="351" on="1"/>
      </contour>
    </TTGlyph>
    <TTGlyph name="dagger" xMin="65" yMin="0" xMax="883" yMax="1412">
      <contour>
        <pt x="394" y="929" on="1"/>
        <pt x="65" y="929" on="1"/>
        <pt x="65" y="1088" on="1"/>
        <pt x="394" y="1088" on="1"/>
        <pt x="394" y="1412" on="1"/>
        <pt x="558" y="1412" on="1"/>
        <pt x="558" y="1088" on="1"/>
        <pt x="883" y="1088" on="1"/>
        <pt x="883" y="929" on="1"/>
        <pt x="558" y="929" on="1"/>
        <pt x="558" y="0" on="1"/>
        <pt x="394" y="0" on="1"/>
      </contour>
    </TTGlyph>
    <TTGlyph name="daggerdbl" xMin="124" yMin="0" xMax="948" yMax="1412">
      <contour>
        <pt x="453" y="327" on="1"/>
        <pt x="124" y="327" on="1"/>
        <pt x="124" y="486" on="1"/>
        <pt x="453" y="486" on="1"/>
        <pt x="453" y="929" on="1"/>
        <pt x="124" y="929" on="1"/>
        <pt x="124" y="1089" on="1"/>
        <pt x="453" y="1089" on="1"/>
        <pt x="453" y="1412" on="1"/>
        <pt x="619" y="1412" on="1"/>
        <pt x="619" y="1089" on="1"/>
        <pt x="948" y="1089" on="1"/>
        <pt x="948" y="929" on="1"/>
        <pt x="619" y="929" on="1"/>
        <pt x="619" y="486" on="1"/>
        <pt x="948" y="486" on="1"/>
        <pt x="948" y="327" on="1"/>
        <pt x="619" y="327" on="1"/>
        <pt x="619" y="0" on="1"/>
        <pt x="453" y="0" on="1"/>
      </contour>
    </TTGlyph>
    <TTGlyph name="degree" xMin="98" yMin="785" xMax="710" yMax="1400">
      <contour>
        <pt x="98" y="1092" on="1"/>
        <pt x="98" y="1156" on="0"/>
        <pt x="146" y="1268" on="0"/>
        <pt x="230" y="1352" on="0"/>
        <pt x="341" y="1400" on="0"/>
        <pt x="404" y="1400" on="1"/>
        <pt x="467" y="1400" on="0"/>
        <pt x="578" y="1352" on="0"/>
        <pt x="662" y="1268" on="0"/>
        <pt x="710" y="1156" on="0"/>
        <pt x="710" y="1092" on="1"/>
        <pt x="710" y="1029" on="0"/>
        <pt x="662" y="917" on="0"/>
        <pt x="579" y="834" on="0"/>
        <pt x="467" y="785" on="0"/>
        <pt x="404" y="785" on="1"/>
        <pt x="341" y="785" on="0"/>
        <pt x="230" y="833" on="0"/>
        <pt x="146" y="917" on="0"/>
        <pt x="98" y="1029" on="0"/>
      </contour>
      <contour>
        <pt x="234" y="1092" on="1"/>
        <pt x="234" y="1057" on="0"/>
        <pt x="261" y="997" on="0"/>
        <pt x="307" y="951" on="0"/>
        <pt x="369" y="925" on="0"/>
        <pt x="404" y="925" on="1"/>
        <pt x="440" y="925" on="0"/>
        <pt x="502" y="952" on="0"/>
        <pt x="548" y="997" on="0"/>
        <pt x="574" y="1058" on="0"/>
        <pt x="574" y="1092" on="1"/>
        <pt x="574" y="1127" on="0"/>
        <pt x="547" y="1188" on="0"/>
        <pt x="501" y="1234" on="0"/>
        <pt x="439" y="1261" on="0"/>
        <pt x="404" y="1261" on="1"/>
        <pt x="369" y="1261" on="0"/>
        <pt x="307" y="1235" on="0"/>
        <pt x="261" y="1189" on="0"/>
        <pt x="234" y="1128" on="0"/>
      </contour>
    </TTGlyph>
    <TTGlyph name="dieresis" xMin="105" yMin="1205" xMax="705" yMax="1377">
      <contour>
        <pt x="327" y="1377" on="1"/>
        <pt x="327" y="1205" on="1"/>
        <pt x="105" y="1205" on="1"/>
        <pt x="105" y="1377" on="1"/>
      </contour>
      <contour>
        <pt x="705" y="1377" on="1"/>
        <pt x="705" y="1205" on="1"/>
        <pt x="483" y="1205" on="1"/>
        <pt x="483" y="1377" on="1"/>
      </contour>
    </TTGlyph>
    <TTGlyph name="divide" xMin="129" yMin="127" xMax="1077" yMax="1053">
      <contour>
        <pt x="129" y="675" on="1"/>
        <pt x="1077" y="675" on="1"/>
        <pt x="1077" y="513" on="1"/>
        <pt x="129" y="513" on="1"/>
      </contour>
      <contour>
        <pt x="489" y="1053" on="1"/>
        <pt x="720" y="1053" on="1"/>
        <pt x="720" y="814" on="1"/>
        <pt x="489" y="814" on="1"/>
      </contour>
      <contour>
        <pt x="489" y="366" on="1"/>
        <pt x="720" y="366" on="1"/>
        <pt x="720" y="127" on="1"/>
        <pt x="489" y="127" on="1"/>
      </contour>
    </TTGlyph>
    <TTGlyph name="dollar" xMin="90" yMin="-161" xMax="1005" yMax="1503">
      <contour>
        <pt x="484" y="39" on="1"/>
        <pt x="418" y="40" on="0"/>
        <pt x="298" y="67" on="0"/>
        <pt x="195" y="126" on="0"/>
        <pt x="115" y="219" on="0"/>
        <pt x="90" y="285" on="1"/>
        <pt x="120" y="307" on="0"/>
        <pt x="177" y="344" on="0"/>
        <pt x="206" y="365" on="1"/>
        <pt x="222" y="339" on="0"/>
        <pt x="270" y="286" on="0"/>
        <pt x="338" y="241" on="0"/>
        <pt x="427" y="210" on="0"/>
        <pt x="484" y="207" on="1"/>
        <pt x="484" y="629" on="1"/>
        <pt x="379" y="661" on="0"/>
        <pt x="237" y="730" on="0"/>
        <pt x="150" y="817" on="0"/>
        <pt x="113" y="928" on="0"/>
        <pt x="113" y="1002" on="1"/>
        <pt x="113" y="1080" on="0"/>
        <pt x="174" y="1199" on="0"/>
        <pt x="277" y="1282" on="0"/>
        <pt x="412" y="1330" on="0"/>
        <pt x="487" y="1339" on="1"/>
        <pt x="487" y="1503" on="1"/>
        <pt x="611" y="1503" on="1"/>
        <pt x="611" y="1342" on="1"/>
        <pt x="640" y="1340" on="0"/>
        <pt x="710" y="1332" on="0"/>
        <pt x="785" y="1313" on="0"/>
        <pt x="858" y="1283" on="0"/>
        <pt x="922" y="1236" on="0"/>
        <pt x="970" y="1169" on="0"/>
        <pt x="983" y="1124" on="1"/>
        <pt x="838" y="1058" on="1"/>
        <pt x="823" y="1088" on="0"/>
        <pt x="777" y="1130" on="0"/>
        <pt x="718" y="1158" on="0"/>
        <pt x="649" y="1174" on="0"/>
        <pt x="610" y="1178" on="1"/>
        <pt x="610" y="787" on="1"/>
        <pt x="682" y="765" on="0"/>
        <pt x="823" y="705" on="0"/>
        <pt x="935" y="617" on="0"/>
        <pt x="1005" y="494" on="0"/>
        <pt x="1005" y="409" on="1"/>
        <pt x="1005" y="324" on="0"/>
        <pt x="941" y="197" on="0"/>
        <pt x="832" y="107" on="0"/>
        <pt x="688" y="53" on="0"/>
        <pt x="607" y="43" on="1"/>
        <pt x="607" y="-161" on="1"/>
        <pt x="484" y="-161" on="1"/>
      </contour>
      <contour>
        <pt x="808" y="396" on="1"/>
        <pt x="808" y="435" on="0"/>
        <pt x="776" y="494" on="0"/>
        <pt x="722" y="540" on="0"/>
        <pt x="650" y="575" on="0"/>
        <pt x="610" y="590" on="1"/>
        <pt x="610" y="212" on="1"/>
        <pt x="662" y="218" on="0"/>
        <pt x="737" y="254" on="0"/>
        <pt x="785" y="304" on="0"/>
        <pt x="808" y="364" on="0"/>
      </contour>
      <contour>
        <pt x="305" y="1009" on="1"/>
        <pt x="305" y="970" on="0"/>
        <pt x="332" y="914" on="0"/>
        <pt x="381" y="872" on="0"/>
        <pt x="447" y="840" on="0"/>
        <pt x="486" y="826" on="1"/>
        <pt x="486" y="1175" on="1"/>
        <pt x="428" y="1164" on="0"/>
        <pt x="357" y="1125" on="0"/>
        <pt x="318" y="1078" on="0"/>
        <pt x="305" y="1029" on="0"/>
      </contour>
    </TTGlyph>
    <TTGlyph name="dotaccent" xMin="177" yMin="1197" xMax="367" yMax="1410">
      <contour>
        <pt x="177" y="1410" on="1"/>
        <pt x="367" y="1410" on="1"/>
        <pt x="367" y="1197" on="1"/>
        <pt x="177" y="1197" on="1"/>
      </contour>
    </TTGlyph>
    <TTGlyph name="dotlessi" xMin="155" yMin="0" xMax="339" yMax="1019">
      <contour>
        <pt x="155" y="1019" on="1"/>
        <pt x="339" y="1019" on="1"/>
        <pt x="339" y="0" on="1"/>
        <pt x="155" y="0" on="1"/>
      </contour>
    </TTGlyph>
    <TTGlyph name="e" xMin="99" yMin="-19" xMax="951" yMax="1041">
      <contour>
        <pt x="925" y="83" on="1"/>
        <pt x="893" y="64" on="0"/>
        <pt x="822" y="27" on="0"/>
        <pt x="734" y="-1" on="0"/>
        <pt x="625" y="-19" on="0"/>
        <pt x="556" y="-19" on="1"/>
        <pt x="451" y="-19" on="0"/>
        <pt x="282" y="51" on="0"/>
        <pt x="163" y="186" on="0"/>
        <pt x="99" y="383" on="0"/>
        <pt x="99" y="510" on="1"/>
        <pt x="99" y="616" on="0"/>
        <pt x="151" y="808" on="0"/>
        <pt x="258" y="954" on="0"/>
        <pt x="424" y="1041" on="0"/>
        <pt x="538" y="1041" on="1"/>
        <pt x="646" y="1041" on="0"/>
        <pt x="802" y="965" on="0"/>
        <pt x="903" y="836" on="0"/>
        <pt x="951" y="663" on="0"/>
        <pt x="951" y="566" on="1"/>
        <pt x="951" y="483" on="1"/>
        <pt x="285" y="483" on="1"/>
        <pt x="286" y="414" on="0"/>
        <pt x="315" y="285" on="0"/>
        <pt x="379" y="186" on="0"/>
        <pt x="483" y="127" on="0"/>
        <pt x="560" y="127" on="1"/>
        <pt x="652" y="127" on="0"/>
        <pt x="801" y="173" on="0"/>
        <pt x="868" y="215" on="1"/>
      </contour>
      <contour>
        <pt x="534" y="895" on="1"/>
        <pt x="486" y="895" on="0"/>
        <pt x="403" y="866" on="0"/>
        <pt x="340" y="805" on="0"/>
        <pt x="299" y="712" on="0"/>
        <pt x="292" y="648" on="1"/>
        <pt x="291" y="643" on="0"/>
        <pt x="291" y="625" on="0"/>
        <pt x="291" y="615" on="1"/>
        <pt x="755" y="615" on="1"/>
        <pt x="753" y="670" on="0"/>
        <pt x="731" y="772" on="0"/>
        <pt x="681" y="849" on="0"/>
        <pt x="597" y="895" on="0"/>
      </contour>
    </TTGlyph>
    <TTGlyph name="eacute" xMin="99" yMin="-19" xMax="951" yMax="1474">
      <component glyphName="e" x="0" y="0" flags="0x1204"/>
      <component glyphName="acute" x="79" y="0" flags="0x1004"/>
    </TTGlyph>
    <TTGlyph name="ecircumflex" xMin="99" yMin="-19" xMax="951" yMax="1545">
      <component glyphName="e" x="0" y="0" flags="0x1204"/>
      <component glyphName="circumflex" x="117" y="0" flags="0x1004"/>
    </TTGlyph>
    <TTGlyph name="edieresis" xMin="99" yMin="-19" xMax="951" yMax="1377">
      <component glyphName="e" x="0" y="0" flags="0x1204"/>
      <component glyphName="dieresis" x="116" y="0" flags="0x1004"/>
    </TTGlyph>
    <TTGlyph name="egrave" xMin="99" yMin="-19" xMax="951" yMax="1473">
      <component glyphName="e" x="0" y="0" flags="0x1204"/>
      <component glyphName="grave" x="156" y="0" flags="0x1004"/>
    </TTGlyph>
    <TTGlyph name="eight" xMin="125" yMin="-20" xMax="1037" yMax="1404">
      <contour>
        <pt x="581" y="-20" on="1"/>
        <pt x="490" y="-20" on="0"/>
        <pt x="325" y="26" on="0"/>
        <pt x="199" y="121" on="0"/>
        <pt x="125" y="265" on="0"/>
        <pt x="125" y="364" on="1"/>
        <pt x="125" y="430" on="0"/>
        <pt x="163" y="537" on="0"/>
        <pt x="234" y="624" on="0"/>
        <pt x="333" y="695" on="0"/>
        <pt x="394" y="724" on="1"/>
        <pt x="284" y="776" on="0"/>
        <pt x="159" y="940" on="0"/>
        <pt x="159" y="1045" on="1"/>
        <pt x="159" y="1108" on="0"/>
        <pt x="209" y="1236" on="0"/>
        <pt x="312" y="1339" on="0"/>
        <pt x="471" y="1404" on="0"/>
        <pt x="580" y="1404" on="1"/>
        <pt x="675" y="1404" on="0"/>
        <pt x="831" y="1354" on="0"/>
        <pt x="943" y="1262" on="0"/>
        <pt x="1005" y="1130" on="0"/>
        <pt x="1005" y="1048" on="1"/>
        <pt x="1005" y="943" on="0"/>
        <pt x="877" y="776" on="0"/>
        <pt x="757" y="728" on="1"/>
        <pt x="803" y="706" on="0"/>
        <pt x="902" y="646" on="0"/>
        <pt x="984" y="562" on="0"/>
        <pt x="1037" y="448" on="0"/>
        <pt x="1037" y="372" on="1"/>
        <pt x="1037" y="294" on="0"/>
        <pt x="980" y="152" on="0"/>
        <pt x="866" y="44" on="0"/>
        <pt x="695" y="-20" on="0"/>
      </contour>
      <contour>
        <pt x="580" y="143" on="1"/>
        <pt x="652" y="143" on="0"/>
        <pt x="753" y="184" on="0"/>
        <pt x="815" y="250" on="0"/>
        <pt x="843" y="334" on="0"/>
        <pt x="843" y="378" on="1"/>
        <pt x="843" y="431" on="0"/>
        <pt x="802" y="518" on="0"/>
        <pt x="729" y="585" on="0"/>
        <pt x="630" y="631" on="0"/>
        <pt x="572" y="643" on="1"/>
        <pt x="515" y="629" on="0"/>
        <pt x="421" y="579" on="0"/>
        <pt x="354" y="509" on="0"/>
        <pt x="318" y="422" on="0"/>
        <pt x="318" y="372" on="1"/>
        <pt x="318" y="328" on="0"/>
        <pt x="347" y="246" on="0"/>
        <pt x="410" y="182" on="0"/>
        <pt x="509" y="143" on="0"/>
      </contour>
      <contour>
        <pt x="349" y="1044" on="1"/>
        <pt x="349" y="994" on="0"/>
        <pt x="385" y="916" on="0"/>
        <pt x="448" y="858" on="0"/>
        <pt x="532" y="821" on="0"/>
        <pt x="581" y="813" on="1"/>
        <pt x="630" y="821" on="0"/>
        <pt x="716" y="860" on="0"/>
        <pt x="780" y="919" on="0"/>
        <pt x="817" y="997" on="0"/>
        <pt x="817" y="1044" on="1"/>
        <pt x="817" y="1089" on="0"/>
        <pt x="785" y="1163" on="0"/>
        <pt x="724" y="1216" on="0"/>
        <pt x="637" y="1245" on="0"/>
        <pt x="582" y="1245" on="1"/>
        <pt x="531" y="1245" on="0"/>
        <pt x="446" y="1218" on="0"/>
        <pt x="384" y="1166" on="0"/>
        <pt x="349" y="1091" on="0"/>
      </contour>
    </TTGlyph>
    <TTGlyph name="ellipsis" xMin="144" yMin="0" xMax="1608" yMax="248">
      <contour>
        <pt x="144" y="248" on="1"/>
        <pt x="369" y="248" on="1"/>
        <pt x="369" y="0" on="1"/>
        <pt x="144" y="0" on="1"/>
      </contour>
      <contour>
        <pt x="762" y="248" on="1"/>
        <pt x="989" y="248" on="1"/>
        <pt x="989" y="0" on="1"/>
        <pt x="762" y="0" on="1"/>
      </contour>
      <contour>
        <pt x="1382" y="248" on="1"/>
        <pt x="1608" y="248" on="1"/>
        <pt x="1608" y="0" on="1"/>
        <pt x="1382" y="0" on="1"/>
      </contour>
    </TTGlyph>
    <TTGlyph name="emdash" xMin="150" yMin="444" xMax="1756" yMax="608">
      <contour>
        <pt x="150" y="444" on="1"/>
        <pt x="150" y="608" on="1"/>
        <pt x="1756" y="608" on="1"/>
        <pt x="1756" y="444" on="1"/>
      </contour>
    </TTGlyph>
    <TTGlyph name="endash" xMin="149" yMin="444" xMax="1057" yMax="608">
      <contour>
        <pt x="149" y="444" on="1"/>
        <pt x="149" y="608" on="1"/>
        <pt x="1057" y="608" on="1"/>
        <pt x="1057" y="444" on="1"/>
      </contour>
    </TTGlyph>
    <TTGlyph name="equal" xMin="160" yMin="308" xMax="1108" yMax="860">
      <contour>
        <pt x="160" y="700" on="1"/>
        <pt x="160" y="860" on="1"/>
        <pt x="1108" y="860" on="1"/>
        <pt x="1108" y="700" on="1"/>
      </contour>
      <contour>
        <pt x="160" y="308" on="1"/>
        <pt x="160" y="470" on="1"/>
        <pt x="1108" y="470" on="1"/>
        <pt x="1108" y="308" on="1"/>
      </contour>
    </TTGlyph>
    <TTGlyph name="eth" xMin="79" yMin="-22" xMax="1078" yMax="1408">
      <contour>
        <pt x="510" y="1076" on="1"/>
        <pt x="697" y="1145" on="1"/>
        <pt x="648" y="1208" on="0"/>
        <pt x="525" y="1267" on="0"/>
        <pt x="453" y="1267" on="1"/>
        <pt x="401" y="1267" on="0"/>
        <pt x="273" y="1237" on="0"/>
        <pt x="204" y="1206" on="1"/>
        <pt x="151" y="1328" on="1"/>
        <pt x="235" y="1368" on="0"/>
        <pt x="394" y="1408" on="0"/>
        <pt x="465" y="1408" on="1"/>
        <pt x="577" y="1408" on="0"/>
        <pt x="774" y="1300" on="0"/>
        <pt x="843" y="1202" on="1"/>
        <pt x="1045" y="1280" on="1"/>
        <pt x="1078" y="1173" on="1"/>
        <pt x="896" y="1106" on="1"/>
        <pt x="977" y="918" on="0"/>
        <pt x="977" y="643" on="1"/>
        <pt x="977" y="512" on="0"/>
        <pt x="940" y="312" on="0"/>
        <pt x="876" y="164" on="0"/>
        <pt x="787" y="64" on="0"/>
        <pt x="684" y="4" on="0"/>
        <pt x="570" y="-22" on="0"/>
        <pt x="512" y="-22" on="1"/>
        <pt x="423" y="-22" on="0"/>
        <pt x="266" y="35" on="0"/>
        <pt x="148" y="149" on="0"/>
        <pt x="79" y="320" on="0"/>
        <pt x="79" y="435" on="1"/>
        <pt x="79" y="539" on="0"/>
        <pt x="142" y="698" on="0"/>
        <pt x="251" y="806" on="0"/>
        <pt x="400" y="861" on="0"/>
        <pt x="486" y="861" on="1"/>
        <pt x="669" y="861" on="0"/>
        <pt x="798" y="702" on="1"/>
        <pt x="798" y="816" on="0"/>
        <pt x="774" y="980" on="0"/>
        <pt x="749" y="1048" on="1"/>
        <pt x="732" y="1043" on="0"/>
        <pt x="665" y="1018" on="0"/>
        <pt x="630" y="1004" on="1"/>
        <pt x="590" y="988" on="0"/>
        <pt x="543" y="970" on="1"/>
      </contour>
      <contour>
        <pt x="518" y="723" on="1"/>
        <pt x="457" y="723" on="0"/>
        <pt x="359" y="683" on="0"/>
        <pt x="291" y="609" on="0"/>
        <pt x="254" y="503" on="0"/>
        <pt x="254" y="436" on="1"/>
        <pt x="254" y="364" on="0"/>
        <pt x="290" y="248" on="0"/>
        <pt x="357" y="166" on="0"/>
        <pt x="453" y="122" on="0"/>
        <pt x="513" y="122" on="1"/>
        <pt x="573" y="122" on="0"/>
        <pt x="674" y="172" on="0"/>
        <pt x="747" y="260" on="0"/>
        <pt x="788" y="380" on="0"/>
        <pt x="788" y="449" on="1"/>
        <pt x="788" y="506" on="0"/>
        <pt x="750" y="605" on="0"/>
        <pt x="680" y="680" on="0"/>
        <pt x="580" y="723" on="0"/>
      </contour>
    </TTGlyph>
    <TTGlyph name="exclam" xMin="161" yMin="0" xMax="369" yMax="1394">
      <contour>
        <pt x="321" y="339" on="1"/>
        <pt x="209" y="339" on="1"/>
        <pt x="161" y="1394" on="1"/>
        <pt x="369" y="1394" on="1"/>
      </contour>
      <contour>
        <pt x="161" y="211" on="1"/>
        <pt x="369" y="211" on="1"/>
        <pt x="369" y="0" on="1"/>
        <pt x="161" y="0" on="1"/>
      </contour>
    </TTGlyph>
    <TTGlyph name="exclamdown" xMin="162" yMin="0" xMax="370" yMax="1394">
      <contour>
        <pt x="370" y="0" on="1"/>
        <pt x="162" y="0" on="1"/>
        <pt x="210" y="1055" on="1"/>
        <pt x="322" y="1055" on="1"/>
      </contour>
      <contour>
        <pt x="162" y="1394" on="1"/>
        <pt x="370" y="1394" on="1"/>
        <pt x="370" y="1183" on="1"/>
        <pt x="162" y="1183" on="1"/>
      </contour>
    </TTGlyph>
    <TTGlyph name="f" xMin="43" yMin="0" xMax="709" yMax="1412">
      <contour>
        <pt x="649" y="875" on="1"/>
        <pt x="420" y="875" on="1"/>
        <pt x="420" y="0" on="1"/>
        <pt x="231" y="0" on="1"/>
        <pt x="231" y="875" on="1"/>
        <pt x="43" y="875" on="1"/>
        <pt x="43" y="1006" on="1"/>
        <pt x="232" y="1023" on="1"/>
        <pt x="232" y="1062" on="1"/>
        <pt x="232" y="1149" on="0"/>
        <pt x="260" y="1280" on="0"/>
        <pt x="329" y="1368" on="0"/>
        <pt x="446" y="1412" on="0"/>
        <pt x="535" y="1412" on="1"/>
        <pt x="577" y="1412" on="0"/>
        <pt x="668" y="1397" on="0"/>
        <pt x="709" y="1386" on="1"/>
        <pt x="685" y="1234" on="1"/>
        <pt x="654" y="1240" on="0"/>
        <pt x="590" y="1249" on="0"/>
        <pt x="561" y="1249" on="1"/>
        <pt x="515" y="1249" on="0"/>
        <pt x="460" y="1228" on="0"/>
        <pt x="430" y="1188" on="0"/>
        <pt x="420" y="1126" on="0"/>
        <pt x="420" y="1086" on="1"/>
        <pt x="420" y="1024" on="1"/>
        <pt x="649" y="1024" on="1"/>
      </contour>
    </TTGlyph>
    <TTGlyph name="fi" xMin="43" yMin="0" xMax="1064" yMax="1412">
      <contour>
        <pt x="1046" y="0" on="1"/>
        <pt x="860" y="0" on="1"/>
        <pt x="860" y="866" on="1"/>
        <pt x="420" y="866" on="1"/>
        <pt x="420" y="0" on="1"/>
        <pt x="231" y="0" on="1"/>
        <pt x="231" y="866" on="1"/>
        <pt x="43" y="866" on="1"/>
        <pt x="43" y="997" on="1"/>
        <pt x="232" y="1014" on="1"/>
        <pt x="232" y="1062" on="1"/>
        <pt x="232" y="1113" on="0"/>
        <pt x="239" y="1191" on="0"/>
        <pt x="253" y="1252" on="0"/>
        <pt x="276" y="1299" on="0"/>
        <pt x="293" y="1319" on="1"/>
        <pt x="330" y="1364" on="0"/>
        <pt x="450" y="1412" on="0"/>
        <pt x="535" y="1412" on="1"/>
        <pt x="577" y="1412" on="0"/>
        <pt x="668" y="1397" on="0"/>
        <pt x="709" y="1386" on="1"/>
        <pt x="703" y="1345" on="0"/>
        <pt x="691" y="1274" on="0"/>
        <pt x="685" y="1234" on="1"/>
        <pt x="654" y="1240" on="0"/>
        <pt x="590" y="1249" on="0"/>
        <pt x="561" y="1249" on="1"/>
        <pt x="515" y="1249" on="0"/>
        <pt x="460" y="1228" on="0"/>
        <pt x="430" y="1188" on="0"/>
        <pt x="420" y="1126" on="0"/>
        <pt x="420" y="1086" on="1"/>
        <pt x="420" y="1015" on="1"/>
        <pt x="1046" y="1015" on="1"/>
      </contour>
      <contour>
        <pt x="1064" y="1377" on="1"/>
        <pt x="1064" y="1205" on="1"/>
        <pt x="842" y="1205" on="1"/>
        <pt x="842" y="1377" on="1"/>
      </contour>
    </TTGlyph>
    <TTGlyph name="five" xMin="110" yMin="-20" xMax="981" yMax="1377">
      <contour>
        <pt x="555" y="878" on="1"/>
        <pt x="654" y="878" on="0"/>
        <pt x="812" y="813" on="0"/>
        <pt x="922" y="698" on="0"/>
        <pt x="981" y="538" on="0"/>
        <pt x="981" y="444" on="1"/>
        <pt x="981" y="339" on="0"/>
        <pt x="914" y="168" on="0"/>
        <pt x="787" y="47" on="0"/>
        <pt x="604" y="-20" on="0"/>
        <pt x="488" y="-20" on="1"/>
        <pt x="422" y="-20" on="0"/>
        <pt x="301" y="10" on="0"/>
        <pt x="202" y="69" on="0"/>
        <pt x="129" y="156" on="0"/>
        <pt x="110" y="214" on="1"/>
        <pt x="228" y="297" on="1"/>
        <pt x="246" y="256" on="0"/>
        <pt x="308" y="198" on="0"/>
        <pt x="381" y="161" on="0"/>
        <pt x="459" y="143" on="0"/>
        <pt x="494" y="143" on="1"/>
        <pt x="577" y="143" on="0"/>
        <pt x="690" y="195" on="0"/>
        <pt x="759" y="279" on="0"/>
        <pt x="788" y="386" on="0"/>
        <pt x="788" y="440" on="1"/>
        <pt x="788" y="572" on="0"/>
        <pt x="640" y="716" on="0"/>
        <pt x="506" y="716" on="1"/>
        <pt x="463" y="716" on="0"/>
        <pt x="390" y="693" on="0"/>
        <pt x="332" y="660" on="0"/>
        <pt x="288" y="622" on="0"/>
        <pt x="274" y="606" on="1"/>
        <pt x="177" y="634" on="1"/>
        <pt x="177" y="1377" on="1"/>
        <pt x="897" y="1377" on="1"/>
        <pt x="897" y="1206" on="1"/>
        <pt x="346" y="1206" on="1"/>
        <pt x="316" y="807" on="1"/>
        <pt x="358" y="833" on="0"/>
        <pt x="478" y="878" on="0"/>
      </contour>
    </TTGlyph>
    <TTGlyph name="fl" xMin="43" yMin="0" xMax="1025" yMax="1412">
      <contour>
        <pt x="836" y="1261" on="1"/>
        <pt x="561" y="1261" on="1"/>
        <pt x="515" y="1261" on="0"/>
        <pt x="460" y="1237" on="0"/>
        <pt x="430" y="1191" on="0"/>
        <pt x="420" y="1126" on="0"/>
        <pt x="420" y="1086" on="1"/>
        <pt x="420" y="1015" on="1"/>
        <pt x="649" y="1015" on="1"/>
        <pt x="649" y="866" on="1"/>
        <pt x="420" y="866" on="1"/>
        <pt x="420" y="0" on="1"/>
        <pt x="231" y="0" on="1"/>
        <pt x="231" y="866" on="1"/>
        <pt x="43" y="866" on="1"/>
        <pt x="43" y="997" on="1"/>
        <pt x="232" y="1014" on="1"/>
        <pt x="232" y="1062" on="1"/>
        <pt x="232" y="1113" on="0"/>
        <pt x="239" y="1191" on="0"/>
        <pt x="253" y="1252" on="0"/>
        <pt x="276" y="1299" on="0"/>
        <pt x="293" y="1319" on="1"/>
        <pt x="330" y="1364" on="0"/>
        <pt x="450" y="1412" on="0"/>
        <pt x="535" y="1412" on="1"/>
        <pt x="1025" y="1412" on="1"/>
        <pt x="1025" y="0" on="1"/>
        <pt x="836" y="0" on="1"/>
      </contour>
    </TTGlyph>
    <TTGlyph name="florin" xMin="-97" yMin="-384" xMax="763" yMax="1342">
      <contour>
        <pt x="105" y="823" on="1"/>
        <pt x="281" y="823" on="1"/>
        <pt x="324" y="1030" on="1"/>
        <pt x="336" y="1090" on="0"/>
        <pt x="375" y="1202" on="0"/>
        <pt x="447" y="1289" on="0"/>
        <pt x="562" y="1342" on="0"/>
        <pt x="651" y="1342" on="1"/>
        <pt x="677" y="1342" on="0"/>
        <pt x="729" y="1336" on="0"/>
        <pt x="763" y="1331" on="1"/>
        <pt x="739" y="1180" on="1"/>
        <pt x="722" y="1180" on="0"/>
        <pt x="689" y="1186" on="0"/>
        <pt x="667" y="1186" on="1"/>
        <pt x="624" y="1186" on="0"/>
        <pt x="567" y="1157" on="0"/>
        <pt x="531" y="1111" on="0"/>
        <pt x="510" y="1053" on="0"/>
        <pt x="503" y="1023" on="1"/>
        <pt x="460" y="823" on="1"/>
        <pt x="665" y="823" on="1"/>
        <pt x="661" y="803" on="0"/>
        <pt x="651" y="754" on="0"/>
        <pt x="646" y="732" on="1"/>
        <pt x="641" y="706" on="0"/>
        <pt x="635" y="680" on="1"/>
        <pt x="435" y="680" on="1"/>
        <pt x="318" y="54" on="1"/>
        <pt x="298" y="-53" on="0"/>
        <pt x="253" y="-216" on="0"/>
        <pt x="175" y="-327" on="0"/>
        <pt x="51" y="-384" on="0"/>
        <pt x="-47" y="-384" on="1"/>
        <pt x="-55" y="-384" on="0"/>
        <pt x="-79" y="-383" on="0"/>
        <pt x="-97" y="-380" on="1"/>
        <pt x="-90" y="-339" on="0"/>
        <pt x="-77" y="-266" on="0"/>
        <pt x="-71" y="-228" on="1"/>
        <pt x="-59" y="-230" on="0"/>
        <pt x="-42" y="-232" on="0"/>
        <pt x="-37" y="-232" on="1"/>
        <pt x="19" y="-232" on="0"/>
        <pt x="77" y="-187" on="0"/>
        <pt x="108" y="-102" on="0"/>
        <pt x="126" y="23" on="0"/>
        <pt x="141" y="104" on="1"/>
        <pt x="252" y="680" on="1"/>
        <pt x="78" y="680" on="1"/>
      </contour>
    </TTGlyph>
    <TTGlyph name="four" xMin="66" yMin="0" xMax="1074" yMax="1390">
      <contour>
        <pt x="689" y="0" on="1"/>
        <pt x="689" y="300" on="1"/>
        <pt x="66" y="300" on="1"/>
        <pt x="66" y="504" on="1"/>
        <pt x="673" y="1390" on="1"/>
        <pt x="875" y="1390" on="1"/>
        <pt x="875" y="472" on="1"/>
        <pt x="1074" y="472" on="1"/>
        <pt x="1074" y="300" on="1"/>
        <pt x="875" y="300" on="1"/>
        <pt x="875" y="0" on="1"/>
      </contour>
      <contour>
        <pt x="240" y="472" on="1"/>
        <pt x="689" y="472" on="1"/>
        <pt x="689" y="1158" on="1"/>
        <pt x="655" y="1104" on="0"/>
        <pt x="625" y="1056" on="1"/>
        <pt x="612" y="1036" on="0"/>
        <pt x="586" y="994" on="0"/>
        <pt x="562" y="956" on="0"/>
        <pt x="543" y="926" on="0"/>
        <pt x="537" y="917" on="1"/>
      </contour>
    </TTGlyph>
    <TTGlyph name="foursuperior" xMin="64" yMin="285" xMax="864" yMax="1390">
      <contour>
        <pt x="557" y="285" on="1"/>
        <pt x="557" y="523" on="1"/>
        <pt x="64" y="523" on="1"/>
        <pt x="64" y="685" on="1"/>
        <pt x="546" y="1390" on="1"/>
        <pt x="707" y="1390" on="1"/>
        <pt x="707" y="662" on="1"/>
        <pt x="864" y="662" on="1"/>
        <pt x="864" y="523" on="1"/>
        <pt x="707" y="523" on="1"/>
        <pt x="707" y="285" on="1"/>
      </contour>
      <contour>
        <pt x="206" y="662" on="1"/>
        <pt x="557" y="662" on="1"/>
        <pt x="557" y="929" on="1"/>
        <pt x="560" y="1217" on="1"/>
        <pt x="437" y="1012" on="1"/>
      </contour>
    </TTGlyph>
    <TTGlyph name="fraction" xMin="-28" yMin="-30" xMax="933" yMax="1400">
      <contour>
        <pt x="933" y="1400" on="1"/>
        <pt x="121" y="-30" on="1"/>
        <pt x="-28" y="-30" on="1"/>
        <pt x="785" y="1400" on="1"/>
      </contour>
    </TTGlyph>
    <TTGlyph name="g" xMin="108" yMin="-453" xMax="1121" yMax="1042">
      <contour>
        <pt x="962" y="689" on="1"/>
        <pt x="962" y="594" on="0"/>
        <pt x="891" y="461" on="0"/>
        <pt x="774" y="376" on="0"/>
        <pt x="623" y="337" on="0"/>
        <pt x="544" y="337" on="1"/>
        <pt x="444" y="337" on="0"/>
        <pt x="359" y="362" on="1"/>
        <pt x="331" y="331" on="0"/>
        <pt x="301" y="272" on="0"/>
        <pt x="301" y="256" on="1"/>
        <pt x="301" y="241" on="0"/>
        <pt x="305" y="218" on="0"/>
        <pt x="323" y="202" on="0"/>
        <pt x="358" y="193" on="0"/>
        <pt x="389" y="193" on="1"/>
        <pt x="536" y="193" on="1"/>
        <pt x="595" y="193" on="0"/>
        <pt x="721" y="187" on="0"/>
        <pt x="840" y="169" on="0"/>
        <pt x="946" y="135" on="0"/>
        <pt x="1026" y="80" on="0"/>
        <pt x="1072" y="0" on="0"/>
        <pt x="1072" y="-55" on="1"/>
        <pt x="1072" y="-154" on="0"/>
        <pt x="1007" y="-294" on="0"/>
        <pt x="878" y="-393" on="0"/>
        <pt x="687" y="-447" on="0"/>
        <pt x="561" y="-453" on="1"/>
        <pt x="463" y="-453" on="0"/>
        <pt x="297" y="-414" on="0"/>
        <pt x="176" y="-345" on="0"/>
        <pt x="108" y="-265" on="0"/>
        <pt x="108" y="-208" on="1"/>
        <pt x="108" y="-160" on="0"/>
        <pt x="178" y="-12" on="0"/>
        <pt x="257" y="49" on="1"/>
        <pt x="254" y="65" on="1"/>
        <pt x="238" y="66" on="0"/>
        <pt x="195" y="80" on="0"/>
        <pt x="157" y="111" on="0"/>
        <pt x="130" y="161" on="0"/>
        <pt x="130" y="197" on="1"/>
        <pt x="130" y="304" on="0"/>
        <pt x="263" y="436" on="1"/>
        <pt x="189" y="481" on="0"/>
        <pt x="118" y="608" on="0"/>
        <pt x="118" y="677" on="1"/>
        <pt x="118" y="743" on="0"/>
        <pt x="171" y="874" on="0"/>
        <pt x="278" y="978" on="0"/>
        <pt x="437" y="1042" on="0"/>
        <pt x="543" y="1042" on="1"/>
        <pt x="635" y="1042" on="0"/>
        <pt x="773" y="990" on="0"/>
        <pt x="828" y="945" on="1"/>
        <pt x="852" y="961" on="0"/>
        <pt x="910" y="994" on="0"/>
        <pt x="977" y="1022" on="0"/>
        <pt x="1051" y="1040" on="0"/>
        <pt x="1091" y="1041" on="1"/>
        <pt x="1121" y="836" on="1"/>
        <pt x="1105" y="837" on="0"/>
        <pt x="1092" y="839" on="1"/>
        <pt x="1080" y="840" on="0"/>
        <pt x="1057" y="842" on="0"/>
        <pt x="1051" y="842" on="1"/>
        <pt x="1022" y="842" on="0"/>
        <pt x="952" y="831" on="0"/>
        <pt x="921" y="822" on="1"/>
        <pt x="948" y="787" on="0"/>
        <pt x="962" y="721" on="0"/>
      </contour>
      <contour>
        <pt x="565" y="-299" on="1"/>
        <pt x="635" y="-299" on="0"/>
        <pt x="755" y="-268" on="0"/>
        <pt x="843" y="-214" on="0"/>
        <pt x="892" y="-128" on="0"/>
        <pt x="892" y="-53" on="1"/>
        <pt x="892" y="-7" on="0"/>
        <pt x="728" y="40" on="0"/>
        <pt x="570" y="40" on="1"/>
        <pt x="523" y="40" on="0"/>
        <pt x="428" y="40" on="0"/>
        <pt x="379" y="41" on="1"/>
        <pt x="334" y="-9" on="0"/>
        <pt x="291" y="-152" on="0"/>
        <pt x="291" y="-197" on="1"/>
        <pt x="291" y="-248" on="0"/>
        <pt x="435" y="-299" on="0"/>
      </contour>
      <contour>
        <pt x="291" y="684" on="1"/>
        <pt x="291" y="638" on="0"/>
        <pt x="321" y="561" on="0"/>
        <pt x="383" y="506" on="0"/>
        <pt x="477" y="475" on="0"/>
        <pt x="542" y="475" on="1"/>
        <pt x="618" y="475" on="0"/>
        <pt x="718" y="513" on="0"/>
        <pt x="775" y="575" on="0"/>
        <pt x="798" y="655" on="0"/>
        <pt x="798" y="696" on="1"/>
        <pt x="798" y="735" on="0"/>
        <pt x="773" y="810" on="0"/>
        <pt x="715" y="870" on="0"/>
        <pt x="619" y="906" on="0"/>
        <pt x="548" y="906" on="1"/>
        <pt x="499" y="906" on="0"/>
        <pt x="407" y="883" on="0"/>
        <pt x="335" y="830" on="0"/>
        <pt x="291" y="745" on="0"/>
      </contour>
    </TTGlyph>
    <TTGlyph name="germandbls" xMin="159" yMin="-17" xMax="1137" yMax="1467">
      <contour>
        <pt x="997" y="1170" on="1"/>
        <pt x="997" y="1131" on="0"/>
        <pt x="977" y="1068" on="0"/>
        <pt x="943" y="1014" on="0"/>
        <pt x="898" y="969" on="0"/>
        <pt x="874" y="949" on="1"/>
        <pt x="837" y="918" on="0"/>
        <pt x="787" y="875" on="0"/>
        <pt x="756" y="842" on="0"/>
        <pt x="743" y="814" on="0"/>
        <pt x="743" y="798" on="1"/>
        <pt x="743" y="767" on="0"/>
        <pt x="789" y="717" on="0"/>
        <pt x="845" y="681" on="1"/>
        <pt x="895" y="648" on="0"/>
        <pt x="999" y="577" on="0"/>
        <pt x="1083" y="491" on="0"/>
        <pt x="1137" y="385" on="0"/>
        <pt x="1137" y="318" on="1"/>
        <pt x="1137" y="234" on="0"/>
        <pt x="1078" y="108" on="0"/>
        <pt x="976" y="25" on="0"/>
        <pt x="839" y="-17" on="0"/>
        <pt x="760" y="-17" on="1"/>
        <pt x="709" y="-17" on="0"/>
        <pt x="611" y="1" on="0"/>
        <pt x="529" y="46" on="0"/>
        <pt x="469" y="122" on="0"/>
        <pt x="455" y="181" on="1"/>
        <pt x="561" y="262" on="1"/>
        <pt x="590" y="202" on="0"/>
        <pt x="697" y="134" on="0"/>
        <pt x="764" y="134" on="1"/>
        <pt x="816" y="134" on="0"/>
        <pt x="886" y="163" on="0"/>
        <pt x="929" y="209" on="0"/>
        <pt x="948" y="267" on="0"/>
        <pt x="948" y="297" on="1"/>
        <pt x="948" y="340" on="0"/>
        <pt x="915" y="404" on="0"/>
        <pt x="858" y="459" on="0"/>
        <pt x="779" y="509" on="0"/>
        <pt x="733" y="538" on="1"/>
        <pt x="685" y="568" on="0"/>
        <pt x="618" y="622" on="0"/>
        <pt x="575" y="679" on="0"/>
        <pt x="555" y="741" on="0"/>
        <pt x="555" y="778" on="1"/>
        <pt x="555" y="821" on="0"/>
        <pt x="580" y="886" on="0"/>
        <pt x="621" y="939" on="0"/>
        <pt x="675" y="985" on="0"/>
        <pt x="705" y="1008" on="1"/>
        <pt x="726" y="1024" on="0"/>
        <pt x="764" y="1055" on="0"/>
        <pt x="793" y="1090" on="0"/>
        <pt x="809" y="1133" on="0"/>
        <pt x="809" y="1161" on="1"/>
        <pt x="809" y="1234" on="0"/>
        <pt x="696" y="1321" on="0"/>
        <pt x="585" y="1321" on="1"/>
        <pt x="528" y="1321" on="0"/>
        <pt x="439" y="1296" on="0"/>
        <pt x="379" y="1240" on="0"/>
        <pt x="347" y="1148" on="0"/>
        <pt x="347" y="1081" on="1"/>
        <pt x="347" y="0" on="1"/>
        <pt x="159" y="0" on="1"/>
        <pt x="159" y="1083" on="1"/>
        <pt x="159" y="1162" on="0"/>
        <pt x="199" y="1301" on="0"/>
        <pt x="297" y="1406" on="0"/>
        <pt x="464" y="1467" on="0"/>
        <pt x="590" y="1467" on="1"/>
        <pt x="668" y="1467" on="0"/>
        <pt x="815" y="1435" on="0"/>
        <pt x="928" y="1365" on="0"/>
        <pt x="997" y="1252" on="0"/>
      </contour>
    </TTGlyph>
    <TTGlyph name="grave" xMin="162" yMin="1164" xMax="564" yMax="1473">
      <contour>
        <pt x="435" y="1164" on="1"/>
        <pt x="162" y="1473" on="1"/>
        <pt x="392" y="1473" on="1"/>
        <pt x="564" y="1164" on="1"/>
      </contour>
    </TTGlyph>
    <TTGlyph name="greater" xMin="139" yMin="111" xMax="1087" yMax="1074">
      <contour>
        <pt x="139" y="289" on="1"/>
        <pt x="871" y="585" on="1"/>
        <pt x="139" y="899" on="1"/>
        <pt x="139" y="1074" on="1"/>
        <pt x="1087" y="651" on="1"/>
        <pt x="1087" y="510" on="1"/>
        <pt x="139" y="111" on="1"/>
      </contour>
    </TTGlyph>
    <TTGlyph name="greaterequal" xMin="144" yMin="2" xMax="1042" yMax="1183">
      <contour>
        <pt x="1040" y="743" on="1"/>
        <pt x="1040" y="622" on="1"/>
        <pt x="156" y="184" on="1"/>
        <pt x="156" y="324" on="1"/>
        <pt x="911" y="683" on="1"/>
        <pt x="156" y="1044" on="1"/>
        <pt x="156" y="1183" on="1"/>
      </contour>
      <contour>
        <pt x="144" y="2" on="1"/>
        <pt x="144" y="123" on="1"/>
        <pt x="1042" y="123" on="1"/>
        <pt x="1042" y="2" on="1"/>
      </contour>
    </TTGlyph>
    <TTGlyph name="guillemotleft" xMin="95" yMin="107" xMax="877" yMax="900">
      <contour>
        <pt x="476" y="495" on="1"/>
        <pt x="476" y="513" on="1"/>
        <pt x="730" y="900" on="1"/>
        <pt x="876" y="863" on="1"/>
        <pt x="670" y="503" on="1"/>
        <pt x="877" y="141" on="1"/>
        <pt x="730" y="108" on="1"/>
      </contour>
      <contour>
        <pt x="95" y="495" on="1"/>
        <pt x="95" y="514" on="1"/>
        <pt x="347" y="900" on="1"/>
        <pt x="493" y="863" on="1"/>
        <pt x="285" y="503" on="1"/>
        <pt x="494" y="141" on="1"/>
        <pt x="347" y="107" on="1"/>
      </contour>
    </TTGlyph>
    <TTGlyph name="guillemotright" xMin="114" yMin="107" xMax="898" yMax="900">
      <contour>
        <pt x="322" y="502" on="1"/>
        <pt x="114" y="863" on="1"/>
        <pt x="260" y="900" on="1"/>
        <pt x="514" y="511" on="1"/>
        <pt x="514" y="492" on="1"/>
        <pt x="260" y="107" on="1"/>
        <pt x="116" y="141" on="1"/>
      </contour>
      <contour>
        <pt x="705" y="502" on="1"/>
        <pt x="497" y="863" on="1"/>
        <pt x="643" y="900" on="1"/>
        <pt x="898" y="511" on="1"/>
        <pt x="896" y="492" on="1"/>
        <pt x="642" y="107" on="1"/>
        <pt x="498" y="141" on="1"/>
      </contour>
    </TTGlyph>
    <TTGlyph name="guilsinglleft" xMin="93" yMin="108" xMax="492" yMax="900">
      <contour>
        <pt x="347" y="108" on="1"/>
        <pt x="93" y="495" on="1"/>
        <pt x="93" y="514" on="1"/>
        <pt x="348" y="900" on="1"/>
        <pt x="490" y="863" on="1"/>
        <pt x="282" y="503" on="1"/>
        <pt x="492" y="141" on="1"/>
      </contour>
    </TTGlyph>
    <TTGlyph name="guilsinglright" xMin="112" yMin="107" xMax="512" yMax="900">
      <contour>
        <pt x="319" y="502" on="1"/>
        <pt x="112" y="863" on="1"/>
        <pt x="258" y="900" on="1"/>
        <pt x="512" y="511" on="1"/>
        <pt x="512" y="493" on="1"/>
        <pt x="258" y="107" on="1"/>
        <pt x="113" y="141" on="1"/>
      </contour>
    </TTGlyph>
    <TTGlyph name="h" xMin="159" yMin="0" xMax="1002" yMax="1412">
      <contour>
        <pt x="159" y="0" on="1"/>
        <pt x="159" y="1412" on="1"/>
        <pt x="348" y="1412" on="1"/>
        <pt x="348" y="1088" on="1"/>
        <pt x="350" y="895" on="1"/>
        <pt x="413" y="964" on="0"/>
        <pt x="569" y="1041" on="0"/>
        <pt x="652" y="1041" on="1"/>
        <pt x="831" y="1041" on="0"/>
        <pt x="1002" y="836" on="0"/>
        <pt x="1002" y="649" on="1"/>
        <pt x="1002" y="0" on="1"/>
        <pt x="816" y="0" on="1"/>
        <pt x="816" y="639" on="1"/>
        <pt x="816" y="684" on="0"/>
        <pt x="800" y="775" on="0"/>
        <pt x="754" y="848" on="0"/>
        <pt x="673" y="895" on="0"/>
        <pt x="608" y="895" on="1"/>
        <pt x="563" y="895" on="0"/>
        <pt x="493" y="875" on="0"/>
        <pt x="441" y="842" on="0"/>
        <pt x="404" y="802" on="0"/>
        <pt x="392" y="783" on="1"/>
        <pt x="366" y="740" on="0"/>
        <pt x="348" y="613" on="0"/>
        <pt x="348" y="547" on="1"/>
        <pt x="348" y="0" on="1"/>
      </contour>
    </TTGlyph>
    <TTGlyph name="hungarumlaut" xMin="68" yMin="1158" xMax="761" yMax="1451">
      <contour>
        <pt x="235" y="1451" on="1"/>
        <pt x="452" y="1451" on="1"/>
        <pt x="204" y="1158" on="1"/>
        <pt x="68" y="1158" on="1"/>
      </contour>
      <contour>
        <pt x="545" y="1451" on="1"/>
        <pt x="761" y="1451" on="1"/>
        <pt x="513" y="1158" on="1"/>
        <pt x="376" y="1158" on="1"/>
      </contour>
    </TTGlyph>
    <TTGlyph name="hyphen" xMin="143" yMin="439" xMax="632" yMax="606">
      <contour>
        <pt x="143" y="439" on="1"/>
        <pt x="143" y="606" on="1"/>
        <pt x="632" y="606" on="1"/>
        <pt x="632" y="439" on="1"/>
      </contour>
    </TTGlyph>
    <TTGlyph name="i" xMin="55" yMin="0" xMax="411" yMax="1377">
      <contour>
        <pt x="393" y="0" on="1"/>
        <pt x="207" y="0" on="1"/>
        <pt x="207" y="875" on="1"/>
        <pt x="55" y="875" on="1"/>
        <pt x="55" y="1024" on="1"/>
        <pt x="393" y="1024" on="1"/>
      </contour>
      <contour>
        <pt x="411" y="1377" on="1"/>
        <pt x="411" y="1205" on="1"/>
        <pt x="189" y="1205" on="1"/>
        <pt x="189" y="1377" on="1"/>
      </contour>
    </TTGlyph>
    <TTGlyph name="iacute" xMin="57" yMin="0" xMax="444" yMax="1474">
      <component glyphName="acute" x="-192" y="0" flags="0x1004"/>
      <component glyphName="dotlessi" x="0" y="0" flags="0x1004"/>
    </TTGlyph>
    <TTGlyph name="icircumflex" xMin="-101" yMin="0" xMax="597" yMax="1545">
      <component glyphName="dotlessi" x="0" y="0" flags="0x1004"/>
      <component glyphName="circumflex" x="-154" y="0" flags="0x1004"/>
    </TTGlyph>
    <TTGlyph name="idieresis" xMin="-50" yMin="0" xMax="550" yMax="1377">
      <component glyphName="dieresis" x="-155" y="0" flags="0x1004"/>
      <component glyphName="dotlessi" x="0" y="0" flags="0x1004"/>
    </TTGlyph>
    <TTGlyph name="igrave" xMin="47" yMin="0" xMax="449" yMax="1473">
      <component glyphName="grave" x="-115" y="0" flags="0x1004"/>
      <component glyphName="dotlessi" x="0" y="0" flags="0x1004"/>
    </TTGlyph>
    <TTGlyph name="infinity" xMin="123" yMin="245" xMax="1443" yMax="876">
      <contour>
        <pt x="1443" y="564" on="1"/>
        <pt x="1443" y="490" on="0"/>
        <pt x="1392" y="372" on="0"/>
        <pt x="1306" y="290" on="0"/>
        <pt x="1196" y="245" on="0"/>
        <pt x="1138" y="245" on="1"/>
        <pt x="1094" y="245" on="0"/>
        <pt x="1011" y="271" on="0"/>
        <pt x="926" y="326" on="0"/>
        <pt x="839" y="421" on="0"/>
        <pt x="787" y="480" on="1"/>
        <pt x="749" y="435" on="0"/>
        <pt x="665" y="343" on="0"/>
        <pt x="576" y="282" on="0"/>
        <pt x="477" y="245" on="0"/>
        <pt x="420" y="245" on="1"/>
        <pt x="361" y="245" on="0"/>
        <pt x="253" y="292" on="0"/>
        <pt x="171" y="375" on="0"/>
        <pt x="123" y="489" on="0"/>
        <pt x="123" y="557" on="1"/>
        <pt x="123" y="626" on="0"/>
        <pt x="170" y="743" on="0"/>
        <pt x="254" y="828" on="0"/>
        <pt x="368" y="876" on="0"/>
        <pt x="436" y="876" on="1"/>
        <pt x="488" y="876" on="0"/>
        <pt x="583" y="841" on="0"/>
        <pt x="671" y="780" on="0"/>
        <pt x="753" y="682" on="0"/>
        <pt x="793" y="636" on="1"/>
        <pt x="829" y="676" on="0"/>
        <pt x="907" y="772" on="0"/>
        <pt x="994" y="836" on="0"/>
        <pt x="1094" y="876" on="0"/>
        <pt x="1152" y="876" on="1"/>
        <pt x="1216" y="876" on="0"/>
        <pt x="1323" y="831" on="0"/>
        <pt x="1400" y="749" on="0"/>
        <pt x="1443" y="635" on="0"/>
        <pt x="1443" y="566" on="1"/>
      </contour>
      <contour>
        <pt x="438" y="357" on="1"/>
        <pt x="477" y="357" on="0"/>
        <pt x="550" y="390" on="0"/>
        <pt x="621" y="444" on="0"/>
        <pt x="688" y="514" on="0"/>
        <pt x="721" y="551" on="1"/>
        <pt x="689" y="591" on="0"/>
        <pt x="626" y="668" on="0"/>
        <pt x="555" y="728" on="0"/>
        <pt x="473" y="765" on="0"/>
        <pt x="424" y="765" on="1"/>
        <pt x="380" y="765" on="0"/>
        <pt x="311" y="731" on="0"/>
        <pt x="264" y="673" on="0"/>
        <pt x="239" y="597" on="0"/>
        <pt x="239" y="555" on="1"/>
        <pt x="239" y="515" on="0"/>
        <pt x="268" y="443" on="0"/>
        <pt x="321" y="389" on="0"/>
        <pt x="393" y="357" on="0"/>
        <pt x="436" y="357" on="1"/>
      </contour>
      <contour>
        <pt x="1138" y="765" on="1"/>
        <pt x="1102" y="765" on="0"/>
        <pt x="1031" y="732" on="0"/>
        <pt x="960" y="676" on="0"/>
        <pt x="890" y="604" on="0"/>
        <pt x="854" y="564" on="1"/>
        <pt x="900" y="511" on="0"/>
        <pt x="974" y="434" on="0"/>
        <pt x="1042" y="382" on="0"/>
        <pt x="1107" y="357" on="0"/>
        <pt x="1144" y="357" on="1"/>
        <pt x="1188" y="357" on="0"/>
        <pt x="1256" y="393" on="0"/>
        <pt x="1303" y="450" on="0"/>
        <pt x="1327" y="521" on="0"/>
        <pt x="1327" y="557" on="1"/>
        <pt x="1327" y="605" on="0"/>
        <pt x="1299" y="682" on="0"/>
        <pt x="1249" y="736" on="0"/>
        <pt x="1180" y="765" on="0"/>
        <pt x="1140" y="765" on="1"/>
      </contour>
    </TTGlyph>
    <TTGlyph name="integral" xMin="24" yMin="-315" xMax="683" yMax="1664">
      <contour>
        <pt x="653" y="1504" on="1"/>
        <pt x="634" y="1515" on="0"/>
        <pt x="596" y="1527" on="0"/>
        <pt x="580" y="1527" on="1"/>
        <pt x="539" y="1527" on="0"/>
        <pt x="479" y="1485" on="0"/>
        <pt x="441" y="1394" on="0"/>
        <pt x="423" y="1250" on="0"/>
        <pt x="423" y="1147" on="1"/>
        <pt x="423" y="1033" on="0"/>
        <pt x="432" y="795" on="0"/>
        <pt x="442" y="552" on="0"/>
        <pt x="451" y="307" on="0"/>
        <pt x="451" y="187" on="1"/>
        <pt x="451" y="34" on="0"/>
        <pt x="404" y="-162" on="0"/>
        <pt x="325" y="-273" on="0"/>
        <pt x="219" y="-315" on="0"/>
        <pt x="161" y="-315" on="1"/>
        <pt x="124" y="-315" on="0"/>
        <pt x="48" y="-293" on="0"/>
        <pt x="24" y="-280" on="1"/>
        <pt x="51" y="-146" on="1"/>
        <pt x="75" y="-157" on="0"/>
        <pt x="116" y="-172" on="0"/>
        <pt x="143" y="-172" on="1"/>
        <pt x="171" y="-172" on="0"/>
        <pt x="224" y="-147" on="0"/>
        <pt x="264" y="-69" on="0"/>
        <pt x="289" y="73" on="0"/>
        <pt x="289" y="190" on="1"/>
        <pt x="289" y="312" on="0"/>
        <pt x="281" y="560" on="0"/>
        <pt x="272" y="806" on="0"/>
        <pt x="264" y="1048" on="0"/>
        <pt x="264" y="1164" on="1"/>
        <pt x="264" y="1296" on="0"/>
        <pt x="303" y="1485" on="0"/>
        <pt x="379" y="1607" on="0"/>
        <pt x="492" y="1664" on="0"/>
        <pt x="566" y="1664" on="1"/>
        <pt x="595" y="1664" on="0"/>
        <pt x="660" y="1646" on="0"/>
        <pt x="683" y="1636" on="1"/>
      </contour>
    </TTGlyph>
    <TTGlyph name="j" xMin="-3" yMin="-446" xMax="420" yMax="1377">
      <contour>
        <pt x="125" y="-446" on="1"/>
        <pt x="89" y="-446" on="0"/>
        <pt x="27" y="-435" on="0"/>
        <pt x="-3" y="-424" on="1"/>
        <pt x="-3" y="-272" on="1"/>
        <pt x="24" y="-280" on="0"/>
        <pt x="69" y="-290" on="0"/>
        <pt x="92" y="-290" on="1"/>
        <pt x="121" y="-290" on="0"/>
        <pt x="165" y="-276" on="0"/>
        <pt x="195" y="-240" on="0"/>
        <pt x="210" y="-179" on="0"/>
        <pt x="210" y="-132" on="1"/>
        <pt x="210" y="875" on="1"/>
        <pt x="59" y="875" on="1"/>
        <pt x="59" y="1024" on="1"/>
        <pt x="399" y="1024" on="1"/>
        <pt x="399" y="-129" on="1"/>
        <pt x="399" y="-194" on="0"/>
        <pt x="371" y="-309" on="0"/>
        <pt x="307" y="-395" on="0"/>
        <pt x="202" y="-446" on="0"/>
      </contour>
      <contour>
        <pt x="420" y="1377" on="1"/>
        <pt x="420" y="1205" on="1"/>
        <pt x="199" y="1205" on="1"/>
        <pt x="199" y="1377" on="1"/>
      </contour>
    </TTGlyph>
    <TTGlyph name="k" xMin="158" yMin="0" xMax="998" yMax="1412">
      <contour>
        <pt x="998" y="0" on="1"/>
        <pt x="787" y="0" on="1"/>
        <pt x="511" y="460" on="1"/>
        <pt x="348" y="460" on="1"/>
        <pt x="348" y="0" on="1"/>
        <pt x="158" y="0" on="1"/>
        <pt x="158" y="1412" on="1"/>
        <pt x="348" y="1412" on="1"/>
        <pt x="348" y="615" on="1"/>
        <pt x="442" y="615" on="1"/>
        <pt x="462" y="615" on="0"/>
        <pt x="506" y="616" on="0"/>
        <pt x="528" y="616" on="1"/>
        <pt x="569" y="650" on="0"/>
        <pt x="639" y="731" on="0"/>
        <pt x="699" y="828" on="0"/>
        <pt x="750" y="944" on="0"/>
        <pt x="773" y="1024" on="1"/>
        <pt x="969" y="1024" on="1"/>
        <pt x="951" y="945" on="0"/>
        <pt x="890" y="804" on="0"/>
        <pt x="811" y="674" on="0"/>
        <pt x="717" y="562" on="0"/>
        <pt x="666" y="523" on="1"/>
      </contour>
    </TTGlyph>
    <TTGlyph name="l" xMin="28" yMin="-19" xMax="524" yMax="1412">
      <contour>
        <pt x="494" y="-19" on="1"/>
        <pt x="376" y="-19" on="0"/>
        <pt x="249" y="34" on="0"/>
        <pt x="190" y="145" on="0"/>
        <pt x="180" y="318" on="0"/>
        <pt x="180" y="438" on="1"/>
        <pt x="180" y="1263" on="1"/>
        <pt x="28" y="1263" on="1"/>
        <pt x="28" y="1412" on="1"/>
        <pt x="369" y="1412" on="1"/>
        <pt x="369" y="386" on="1"/>
        <pt x="369" y="306" on="0"/>
        <pt x="374" y="208" on="0"/>
        <pt x="403" y="154" on="0"/>
        <pt x="466" y="136" on="0"/>
        <pt x="524" y="136" on="1"/>
        <pt x="494" y="-19" on="1"/>
      </contour>
    </TTGlyph>
    <TTGlyph name="less" xMin="77" yMin="111" xMax="1025" yMax="1074">
      <contour>
        <pt x="1025" y="111" on="1"/>
        <pt x="77" y="510" on="1"/>
        <pt x="77" y="651" on="1"/>
        <pt x="1025" y="1074" on="1"/>
        <pt x="1025" y="899" on="1"/>
        <pt x="293" y="585" on="1"/>
        <pt x="1025" y="289" on="1"/>
      </contour>
    </TTGlyph>
    <TTGlyph name="lessequal" xMin="65" yMin="2" xMax="964" yMax="1183">
      <contour>
        <pt x="76" y="622" on="1"/>
        <pt x="76" y="744" on="1"/>
        <pt x="957" y="1183" on="1"/>
        <pt x="957" y="1044" on="1"/>
        <pt x="200" y="684" on="1"/>
        <pt x="959" y="324" on="1"/>
        <pt x="959" y="184" on="1"/>
      </contour>
      <contour>
        <pt x="65" y="2" on="1"/>
        <pt x="65" y="123" on="1"/>
        <pt x="964" y="123" on="1"/>
        <pt x="964" y="2" on="1"/>
      </contour>
    </TTGlyph>
    <TTGlyph name="logicalnot" xMin="139" yMin="230" xMax="1087" yMax="771">
      <contour>
        <pt x="1087" y="771" on="1"/>
        <pt x="1087" y="230" on="1"/>
        <pt x="928" y="230" on="1"/>
        <pt x="928" y="612" on="1"/>
        <pt x="139" y="612" on="1"/>
        <pt x="139" y="771" on="1"/>
      </contour>
    </TTGlyph>
    <TTGlyph name="lozenge" xMin="63" yMin="-89" xMax="983" yMax="1449">
      <contour>
        <pt x="590" y="-89" on="1"/>
        <pt x="450" y="-89" on="1"/>
        <pt x="63" y="680" on="1"/>
        <pt x="454" y="1449" on="1"/>
        <pt x="595" y="1449" on="1"/>
        <pt x="983" y="678" on="1"/>
      </contour>
      <contour>
        <pt x="523" y="1285" on="1"/>
        <pt x="226" y="683" on="1"/>
        <pt x="524" y="65" on="1"/>
        <pt x="820" y="676" on="1"/>
      </contour>
    </TTGlyph>
    <TTGlyph name="lslash" xMin="35" yMin="0" xMax="943" yMax="1449">
      <contour>
        <pt x="392" y="571" on="1"/>
        <pt x="35" y="443" on="1"/>
        <pt x="35" y="606" on="1"/>
        <pt x="392" y="735" on="1"/>
        <pt x="392" y="1449" on="1"/>
        <pt x="581" y="1449" on="1"/>
        <pt x="581" y="804" on="1"/>
        <pt x="943" y="934" on="1"/>
        <pt x="943" y="770" on="1"/>
        <pt x="581" y="639" on="1"/>
        <pt x="581" y="0" on="1"/>
        <pt x="392" y="0" on="1"/>
      </contour>
    </TTGlyph>
    <TTGlyph name="m" xMin="51" yMin="0" xMax="1669" yMax="1042">
      <contour>
        <pt x="203" y="0" on="1"/>
        <pt x="203" y="875" on="1"/>
        <pt x="51" y="875" on="1"/>
        <pt x="51" y="1024" on="1"/>
        <pt x="378" y="1024" on="1"/>
        <pt x="388" y="873" on="1"/>
        <pt x="424" y="919" on="0"/>
        <pt x="500" y="983" on="0"/>
        <pt x="577" y="1024" on="0"/>
        <pt x="651" y="1042" on="0"/>
        <pt x="684" y="1042" on="1"/>
        <pt x="747" y="1042" on="0"/>
        <pt x="845" y="1016" on="0"/>
        <pt x="920" y="969" on="0"/>
        <pt x="976" y="904" on="0"/>
        <pt x="997" y="865" on="1"/>
        <pt x="1019" y="899" on="0"/>
        <pt x="1082" y="963" on="0"/>
        <pt x="1162" y="1012" on="0"/>
        <pt x="1261" y="1042" on="0"/>
        <pt x="1320" y="1042" on="1"/>
        <pt x="1387" y="1042" on="0"/>
        <pt x="1513" y="1006" on="0"/>
        <pt x="1610" y="921" on="0"/>
        <pt x="1669" y="779" on="0"/>
        <pt x="1669" y="673" on="1"/>
        <pt x="1669" y="0" on="1"/>
        <pt x="1483" y="0" on="1"/>
        <pt x="1483" y="663" on="1"/>
        <pt x="1483" y="784" on="0"/>
        <pt x="1382" y="895" on="0"/>
        <pt x="1279" y="895" on="1"/>
        <pt x="1240" y="895" on="0"/>
        <pt x="1176" y="879" on="0"/>
        <pt x="1126" y="853" on="0"/>
        <pt x="1090" y="820" on="0"/>
        <pt x="1079" y="804" on="1"/>
        <pt x="1064" y="782" on="0"/>
        <pt x="1045" y="725" on="0"/>
        <pt x="1035" y="664" on="0"/>
        <pt x="1031" y="603" on="0"/>
        <pt x="1031" y="576" on="1"/>
        <pt x="1031" y="0" on="1"/>
        <pt x="844" y="0" on="1"/>
        <pt x="844" y="673" on="1"/>
        <pt x="844" y="776" on="0"/>
        <pt x="744" y="895" on="0"/>
        <pt x="644" y="895" on="1"/>
        <pt x="603" y="895" on="0"/>
        <pt x="537" y="876" on="0"/>
        <pt x="486" y="847" on="0"/>
        <pt x="450" y="812" on="0"/>
        <pt x="439" y="796" on="1"/>
        <pt x="410" y="752" on="0"/>
        <pt x="392" y="631" on="0"/>
        <pt x="392" y="564" on="1"/>
        <pt x="392" y="0" on="1"/>
      </contour>
    </TTGlyph>
    <TTGlyph name="macron" xMin="-3" yMin="1246" xMax="540" yMax="1363">
      <contour>
        <pt x="-3" y="1363" on="1"/>
        <pt x="540" y="1363" on="1"/>
        <pt x="540" y="1246" on="1"/>
        <pt x="-3" y="1246" on="1"/>
      </contour>
    </TTGlyph>
    <TTGlyph name="minus" xMin="160" yMin="505" xMax="1108" yMax="665">
      <contour>
        <pt x="160" y="505" on="1"/>
        <pt x="160" y="665" on="1"/>
        <pt x="1108" y="665" on="1"/>
        <pt x="1108" y="505" on="1"/>
      </contour>
    </TTGlyph>
    <TTGlyph name="mu" xMin="175" yMin="-433" xMax="1003" yMax="1019">
      <contour>
        <pt x="829" y="1019" on="1"/>
        <pt x="1003" y="1019" on="1"/>
        <pt x="1003" y="0" on="1"/>
        <pt x="852" y="0" on="1"/>
        <pt x="840" y="130" on="1"/>
        <pt x="817" y="100" on="0"/>
        <pt x="760" y="46" on="0"/>
        <pt x="691" y="4" on="0"/>
        <pt x="610" y="-21" on="0"/>
        <pt x="563" y="-21" on="1"/>
        <pt x="492" y="-21" on="0"/>
        <pt x="387" y="36" on="0"/>
        <pt x="347" y="74" on="1"/>
        <pt x="347" y="9" on="0"/>
        <pt x="348" y="-48" on="1"/>
        <pt x="348" y="-72" on="0"/>
        <pt x="349" y="-123" on="0"/>
        <pt x="350" y="-168" on="0"/>
        <pt x="350" y="-205" on="0"/>
        <pt x="350" y="-216" on="1"/>
        <pt x="350" y="-433" on="1"/>
        <pt x="175" y="-433" on="1"/>
        <pt x="175" y="1019" on="1"/>
        <pt x="350" y="1019" on="1"/>
        <pt x="350" y="449" on="1"/>
        <pt x="350" y="388" on="0"/>
        <pt x="366" y="274" on="0"/>
        <pt x="413" y="185" on="0"/>
        <pt x="499" y="132" on="0"/>
        <pt x="570" y="132" on="1"/>
        <pt x="630" y="132" on="0"/>
        <pt x="726" y="174" on="0"/>
        <pt x="793" y="265" on="0"/>
        <pt x="829" y="410" on="0"/>
        <pt x="829" y="513" on="1"/>
      </contour>
    </TTGlyph>
    <TTGlyph name="multiply" xMin="126" yMin="194" xMax="911" yMax="976">
      <contour>
        <pt x="516" y="470" on="1"/>
        <pt x="239" y="194" on="1"/>
        <pt x="127" y="305" on="1"/>
        <pt x="405" y="581" on="1"/>
        <pt x="126" y="860" on="1"/>
        <pt x="243" y="976" on="1"/>
        <pt x="521" y="699" on="1"/>
        <pt x="799" y="976" on="1"/>
        <pt x="911" y="865" on="1"/>
        <pt x="632" y="587" on="1"/>
        <pt x="910" y="311" on="1"/>
        <pt x="792" y="194" on="1"/>
      </contour>
    </TTGlyph>
    <TTGlyph name="n" xMin="51" yMin="0" xMax="1048" yMax="1042">
      <contour>
        <pt x="862" y="0" on="1"/>
        <pt x="862" y="660" on="1"/>
        <pt x="862" y="773" on="0"/>
        <pt x="751" y="895" on="0"/>
        <pt x="650" y="895" on="1"/>
        <pt x="529" y="895" on="0"/>
        <pt x="392" y="728" on="0"/>
        <pt x="392" y="568" on="1"/>
        <pt x="392" y="0" on="1"/>
        <pt x="203" y="0" on="1"/>
        <pt x="203" y="875" on="1"/>
        <pt x="51" y="875" on="1"/>
        <pt x="51" y="1024" on="1"/>
        <pt x="378" y="1024" on="1"/>
        <pt x="388" y="874" on="1"/>
        <pt x="418" y="915" on="0"/>
        <pt x="480" y="978" on="0"/>
        <pt x="554" y="1020" on="0"/>
        <pt x="642" y="1042" on="0"/>
        <pt x="696" y="1042" on="1"/>
        <pt x="751" y="1042" on="0"/>
        <pt x="874" y="1009" on="0"/>
        <pt x="979" y="926" on="0"/>
        <pt x="1048" y="786" on="0"/>
        <pt x="1048" y="678" on="1"/>
        <pt x="1048" y="0" on="1"/>
      </contour>
    </TTGlyph>
    <TTGlyph name="nine" xMin="105" yMin="-20" xMax="1004" yMax="1403">
      <contour>
        <pt x="231" y="204" on="1"/>
        <pt x="304" y="172" on="0"/>
        <pt x="429" y="139" on="0"/>
        <pt x="480" y="139" on="1"/>
        <pt x="550" y="139" on="0"/>
        <pt x="667" y="200" on="0"/>
        <pt x="752" y="330" on="0"/>
        <pt x="803" y="531" on="0"/>
        <pt x="808" y="672" on="1"/>
        <pt x="744" y="592" on="0"/>
        <pt x="595" y="519" on="0"/>
        <pt x="513" y="519" on="1"/>
        <pt x="426" y="519" on="0"/>
        <pt x="277" y="574" on="0"/>
        <pt x="168" y="682" on="0"/>
        <pt x="105" y="841" on="0"/>
        <pt x="105" y="946" on="1"/>
        <pt x="105" y="1060" on="0"/>
        <pt x="174" y="1231" on="0"/>
        <pt x="291" y="1345" on="0"/>
        <pt x="447" y="1403" on="0"/>
        <pt x="534" y="1403" on="1"/>
        <pt x="592" y="1403" on="0"/>
        <pt x="707" y="1377" on="0"/>
        <pt x="811" y="1317" on="0"/>
        <pt x="901" y="1217" on="0"/>
        <pt x="967" y="1070" on="0"/>
        <pt x="1004" y="870" on="0"/>
        <pt x="1004" y="739" on="1"/>
        <pt x="1004" y="553" on="0"/>
        <pt x="929" y="269" on="0"/>
        <pt x="793" y="78" on="0"/>
        <pt x="605" y="-20" on="0"/>
        <pt x="491" y="-20" on="1"/>
        <pt x="419" y="-20" on="0"/>
        <pt x="256" y="23" on="0"/>
        <pt x="167" y="61" on="1"/>
      </contour>
      <contour>
        <pt x="541" y="672" on="1"/>
        <pt x="600" y="672" on="0"/>
        <pt x="695" y="714" on="0"/>
        <pt x="762" y="785" on="0"/>
        <pt x="798" y="879" on="0"/>
        <pt x="798" y="931" on="1"/>
        <pt x="798" y="998" on="0"/>
        <pt x="761" y="1112" on="0"/>
        <pt x="693" y="1196" on="0"/>
        <pt x="599" y="1243" on="0"/>
        <pt x="542" y="1243" on="1"/>
        <pt x="485" y="1243" on="0"/>
        <pt x="394" y="1202" on="0"/>
        <pt x="330" y="1124" on="0"/>
        <pt x="295" y="1014" on="0"/>
        <pt x="295" y="945" on="1"/>
        <pt x="295" y="882" on="0"/>
        <pt x="329" y="780" on="0"/>
        <pt x="392" y="710" on="0"/>
        <pt x="484" y="672" on="0"/>
      </contour>
    </TTGlyph>
    <TTGlyph name="notequal" xMin="132" yMin="76" xMax="1032" yMax="1028">
      <contour>
        <pt x="742" y="804" on="1"/>
        <pt x="1032" y="804" on="1"/>
        <pt x="1032" y="687" on="1"/>
        <pt x="693" y="687" on="1"/>
        <pt x="572" y="421" on="1"/>
        <pt x="1032" y="421" on="1"/>
        <pt x="1032" y="305" on="1"/>
        <pt x="524" y="305" on="1"/>
        <pt x="421" y="76" on="1"/>
        <pt x="329" y="118" on="1"/>
        <pt x="415" y="305" on="1"/>
        <pt x="132" y="305" on="1"/>
        <pt x="132" y="421" on="1"/>
        <pt x="464" y="421" on="1"/>
        <pt x="582" y="687" on="1"/>
        <pt x="132" y="687" on="1"/>
        <pt x="132" y="804" on="1"/>
        <pt x="630" y="804" on="1"/>
        <pt x="731" y="1028" on="1"/>
        <pt x="824" y="986" on="1"/>
      </contour>
    </TTGlyph>
    <TTGlyph name="ntilde" xMin="51" yMin="0" xMax="1048" yMax="1428">
      <component glyphName="n" x="0" y="0" flags="0x1004"/>
      <component glyphName="tilde" x="209" y="0" flags="0x1004"/>
    </TTGlyph>
    <TTGlyph name="numbersign" xMin="85" yMin="0" xMax="1187" yMax="1377">
      <contour>
        <pt x="943" y="824" on="1"/>
        <pt x="888" y="539" on="1"/>
        <pt x="1113" y="539" on="1"/>
        <pt x="1113" y="393" on="1"/>
        <pt x="861" y="393" on="1"/>
        <pt x="787" y="0" on="1"/>
        <pt x="627" y="0" on="1"/>
        <pt x="701" y="393" on="1"/>
        <pt x="459" y="393" on="1"/>
        <pt x="384" y="0" on="1"/>
        <pt x="226" y="0" on="1"/>
        <pt x="300" y="393" on="1"/>
        <pt x="85" y="393" on="1"/>
        <pt x="85" y="539" on="1"/>
        <pt x="327" y="539" on="1"/>
        <pt x="381" y="824" on="1"/>
        <pt x="159" y="824" on="1"/>
        <pt x="159" y="971" on="1"/>
        <pt x="409" y="971" on="1"/>
        <pt x="483" y="1377" on="1"/>
        <pt x="644" y="1377" on="1"/>
        <pt x="568" y="971" on="1"/>
        <pt x="813" y="971" on="1"/>
        <pt x="888" y="1377" on="1"/>
        <pt x="1048" y="1377" on="1"/>
        <pt x="969" y="971" on="1"/>
        <pt x="1187" y="971" on="1"/>
        <pt x="1187" y="824" on="1"/>
      </contour>
      <contour>
        <pt x="486" y="539" on="1"/>
        <pt x="729" y="539" on="1"/>
        <pt x="784" y="824" on="1"/>
        <pt x="540" y="824" on="1"/>
      </contour>
    </TTGlyph>
    <TTGlyph name="o" xMin="98" yMin="-19" xMax="1031" yMax="1041">
      <contour>
        <pt x="1031" y="512" on="1"/>
        <pt x="1031" y="395" on="0"/>
        <pt x="970" y="200" on="0"/>
        <pt x="851" y="59" on="0"/>
        <pt x="675" y="-19" on="0"/>
        <pt x="560" y="-19" on="1"/>
        <pt x="451" y="-19" on="0"/>
        <pt x="279" y="57" on="0"/>
        <pt x="161" y="195" on="0"/>
        <pt x="98" y="387" on="0"/>
        <pt x="98" y="503" on="1"/>
        <pt x="98" y="613" on="0"/>
        <pt x="152" y="808" on="0"/>
        <pt x="267" y="955" on="0"/>
        <pt x="447" y="1041" on="0"/>
        <pt x="572" y="1041" on="1"/>
        <pt x="695" y="1041" on="0"/>
        <pt x="869" y="952" on="0"/>
        <pt x="980" y="804" on="0"/>
        <pt x="1031" y="613" on="0"/>
      </contour>
      <contour>
        <pt x="284" y="504" on="1"/>
        <pt x="284" y="421" on="0"/>
        <pt x="316" y="283" on="0"/>
        <pt x="383" y="183" on="0"/>
        <pt x="489" y="127" on="0"/>
        <pt x="564" y="127" on="1"/>
        <pt x="624" y="127" on="0"/>
        <pt x="727" y="170" on="0"/>
        <pt x="802" y="263" on="0"/>
        <pt x="844" y="407" on="0"/>
        <pt x="844" y="508" on="1"/>
        <pt x="844" y="695" on="0"/>
        <pt x="704" y="895" on="0"/>
        <pt x="570" y="895" on="1"/>
        <pt x="514" y="895" on="0"/>
        <pt x="411" y="852" on="0"/>
        <pt x="331" y="757" on="0"/>
        <pt x="284" y="609" on="0"/>
      </contour>
    </TTGlyph>
    <TTGlyph name="oacute" xMin="98" yMin="-19" xMax="1031" yMax="1474">
      <component glyphName="o" x="0" y="0" flags="0x1204"/>
      <component glyphName="acute" x="129" y="0" flags="0x1004"/>
    </TTGlyph>
    <TTGlyph name="ocircumflex" xMin="98" yMin="-19" xMax="1031" yMax="1545">
      <component glyphName="o" x="0" y="0" flags="0x1204"/>
      <component glyphName="circumflex" x="168" y="0" flags="0x1004"/>
    </TTGlyph>
    <TTGlyph name="odieresis" xMin="98" yMin="-19" xMax="1031" yMax="1377">
      <component glyphName="o" x="0" y="0" flags="0x1204"/>
      <component glyphName="dieresis" x="167" y="0" flags="0x1004"/>
    </TTGlyph>
    <TTGlyph name="oe" xMin="94" yMin="-32" xMax="1741" yMax="1012">
      <contour>
        <pt x="579" y="-30" on="1"/>
        <pt x="490" y="-30" on="0"/>
        <pt x="348" y="15" on="0"/>
        <pt x="240" y="91" on="0"/>
        <pt x="164" y="193" on="0"/>
        <pt x="116" y="307" on="0"/>
        <pt x="94" y="428" on="0"/>
        <pt x="94" y="485" on="1"/>
        <pt x="94" y="588" on="0"/>
        <pt x="159" y="777" on="0"/>
        <pt x="285" y="921" on="0"/>
        <pt x="469" y="1006" on="0"/>
        <pt x="589" y="1006" on="1"/>
        <pt x="676" y="1006" on="0"/>
        <pt x="801" y="959" on="0"/>
        <pt x="889" y="890" on="0"/>
        <pt x="944" y="811" on="0"/>
        <pt x="962" y="778" on="1"/>
        <pt x="986" y="833" on="0"/>
        <pt x="1052" y="910" on="0"/>
        <pt x="1125" y="962" on="0"/>
        <pt x="1199" y="993" on="0"/>
        <pt x="1265" y="1008" on="0"/>
        <pt x="1317" y="1012" on="0"/>
        <pt x="1331" y="1012" on="1"/>
        <pt x="1424" y="1012" on="0"/>
        <pt x="1558" y="962" on="0"/>
        <pt x="1648" y="879" on="0"/>
        <pt x="1702" y="771" on="0"/>
        <pt x="1731" y="658" on="0"/>
        <pt x="1740" y="546" on="0"/>
        <pt x="1741" y="500" on="1"/>
        <pt x="1741" y="454" on="1"/>
        <pt x="1061" y="454" on="1"/>
        <pt x="1059" y="443" on="0"/>
        <pt x="1057" y="421" on="0"/>
        <pt x="1057" y="410" on="1"/>
        <pt x="1057" y="355" on="0"/>
        <pt x="1098" y="251" on="0"/>
        <pt x="1169" y="170" on="0"/>
        <pt x="1267" y="120" on="0"/>
        <pt x="1324" y="120" on="1"/>
        <pt x="1367" y="120" on="0"/>
        <pt x="1440" y="149" on="0"/>
        <pt x="1495" y="200" on="0"/>
        <pt x="1532" y="272" on="0"/>
        <pt x="1538" y="315" on="1"/>
        <pt x="1727" y="315" on="1"/>
        <pt x="1717" y="242" on="0"/>
        <pt x="1666" y="134" on="0"/>
        <pt x="1599" y="57" on="0"/>
        <pt x="1519" y="8" on="0"/>
        <pt x="1438" y="-21" on="0"/>
        <pt x="1361" y="-32" on="0"/>
        <pt x="1331" y="-32" on="1"/>
        <pt x="1269" y="-32" on="0"/>
        <pt x="1155" y="4" on="0"/>
        <pt x="1058" y="65" on="0"/>
        <pt x="983" y="147" on="0"/>
        <pt x="960" y="194" on="1"/>
        <pt x="902" y="90" on="0"/>
        <pt x="707" y="-30" on="0"/>
      </contour>
      <contour>
        <pt x="302" y="499" on="1"/>
        <pt x="302" y="484" on="0"/>
        <pt x="305" y="416" on="0"/>
        <pt x="320" y="332" on="0"/>
        <pt x="355" y="241" on="0"/>
        <pt x="419" y="166" on="0"/>
        <pt x="518" y="118" on="0"/>
        <pt x="591" y="118" on="1"/>
        <pt x="645" y="118" on="0"/>
        <pt x="730" y="151" on="0"/>
        <pt x="792" y="207" on="0"/>
        <pt x="835" y="281" on="0"/>
        <pt x="862" y="364" on="0"/>
        <pt x="873" y="450" on="0"/>
        <pt x="873" y="491" on="1"/>
        <pt x="873" y="559" on="0"/>
        <pt x="844" y="690" on="0"/>
        <pt x="778" y="794" on="0"/>
        <pt x="671" y="857" on="0"/>
        <pt x="594" y="857" on="1"/>
        <pt x="508" y="857" on="0"/>
        <pt x="396" y="789" on="0"/>
        <pt x="329" y="684" on="0"/>
        <pt x="302" y="558" on="0"/>
      </contour>
      <contour>
        <pt x="1324" y="867" on="1"/>
        <pt x="1250" y="867" on="0"/>
        <pt x="1154" y="813" on="0"/>
        <pt x="1096" y="732" on="0"/>
        <pt x="1070" y="640" on="0"/>
        <pt x="1067" y="603" on="1"/>
        <pt x="1541" y="603" on="1"/>
        <pt x="1540" y="624" on="0"/>
        <pt x="1534" y="680" on="0"/>
        <pt x="1518" y="739" on="0"/>
        <pt x="1489" y="795" on="0"/>
        <pt x="1441" y="840" on="0"/>
        <pt x="1372" y="867" on="0"/>
      </contour>
    </TTGlyph>
    <TTGlyph name="ogonek" xMin="84" yMin="-384" xMax="459" yMax="15">
      <contour>
        <pt x="423" y="15" on="1"/>
        <pt x="389" y="-8" on="0"/>
        <pt x="326" y="-53" on="0"/>
        <pt x="277" y="-101" on="0"/>
        <pt x="248" y="-150" on="0"/>
        <pt x="248" y="-176" on="1"/>
        <pt x="248" y="-210" on="0"/>
        <pt x="281" y="-246" on="0"/>
        <pt x="322" y="-263" on="0"/>
        <pt x="361" y="-266" on="0"/>
        <pt x="367" y="-266" on="1"/>
        <pt x="395" y="-266" on="0"/>
        <pt x="435" y="-250" on="0"/>
        <pt x="459" y="-236" on="1"/>
        <pt x="459" y="-332" on="1"/>
        <pt x="421" y="-352" on="0"/>
        <pt x="334" y="-384" on="0"/>
        <pt x="272" y="-384" on="1"/>
        <pt x="219" y="-384" on="0"/>
        <pt x="147" y="-355" on="0"/>
        <pt x="103" y="-310" on="0"/>
        <pt x="84" y="-257" on="0"/>
        <pt x="84" y="-233" on="1"/>
        <pt x="84" y="-192" on="0"/>
        <pt x="122" y="-120" on="0"/>
        <pt x="188" y="-58" on="0"/>
        <pt x="275" y="-6" on="0"/>
        <pt x="324" y="15" on="1"/>
      </contour>
    </TTGlyph>
    <TTGlyph name="ograve" xMin="98" yMin="-19" xMax="1031" yMax="1473">
      <component glyphName="o" x="0" y="0" flags="0x1204"/>
      <component glyphName="grave" x="207" y="0" flags="0x1004"/>
    </TTGlyph>
    <TTGlyph name="one" xMin="42" yMin="0" xMax="556" yMax="1377">
      <contour>
        <pt x="368" y="932" on="1"/>
        <pt x="368" y="941" on="0"/>
        <pt x="368" y="971" on="0"/>
        <pt x="369" y="1007" on="0"/>
        <pt x="370" y="1046" on="0"/>
        <pt x="370" y="1065" on="1"/>
        <pt x="371" y="1110" on="0"/>
        <pt x="372" y="1161" on="1"/>
        <pt x="291" y="1089" on="0"/>
        <pt x="141" y="989" on="0"/>
        <pt x="87" y="958" on="1"/>
        <pt x="42" y="1130" on="1"/>
        <pt x="62" y="1141" on="0"/>
        <pt x="122" y="1180" on="0"/>
        <pt x="190" y="1228" on="0"/>
        <pt x="261" y="1279" on="0"/>
        <pt x="325" y="1327" on="0"/>
        <pt x="376" y="1366" on="0"/>
        <pt x="391" y="1377" on="1"/>
        <pt x="556" y="1377" on="1"/>
        <pt x="556" y="0" on="1"/>
        <pt x="368" y="0" on="1"/>
      </contour>
    </TTGlyph>
    <TTGlyph name="onehalf" xMin="59" yMin="-18" xMax="1870" yMax="1448">
      <component glyphName="slash" x="483" y="0" flags="0x1004"/>
      <component glyphName="onesuperior" x="15" y="0" flags="0x1004"/>
      <component glyphName="twosuperior" x="1066" y="-288" flags="0x1004"/>
    </TTGlyph>
    <TTGlyph name="onequarter" xMin="59" yMin="-18" xMax="1888" yMax="1448">
      <component glyphName="slash" x="478" y="0" flags="0x1004"/>
      <component glyphName="onesuperior" x="15" y="0" flags="0x1004"/>
      <component glyphName="foursuperior" x="1024" y="-288" flags="0x1004"/>
    </TTGlyph>
    <TTGlyph name="onesuperior" xMin="44" yMin="285" xMax="452" yMax="1377">
      <contour>
        <pt x="302" y="849" on="1"/>
        <pt x="302" y="856" on="0"/>
        <pt x="302" y="894" on="0"/>
        <pt x="303" y="945" on="0"/>
        <pt x="304" y="1006" on="0"/>
        <pt x="304" y="1037" on="1"/>
        <pt x="305" y="1109" on="0"/>
        <pt x="306" y="1196" on="1"/>
        <pt x="255" y="1153" on="0"/>
        <pt x="142" y="1079" on="0"/>
        <pt x="81" y="1044" on="1"/>
        <pt x="44" y="1182" on="1"/>
        <pt x="61" y="1191" on="0"/>
        <pt x="110" y="1223" on="0"/>
        <pt x="164" y="1261" on="0"/>
        <pt x="221" y="1302" on="0"/>
        <pt x="271" y="1339" on="0"/>
        <pt x="311" y="1369" on="0"/>
        <pt x="321" y="1377" on="1"/>
        <pt x="452" y="1377" on="1"/>
        <pt x="452" y="285" on="1"/>
        <pt x="302" y="285" on="1"/>
      </contour>
    </TTGlyph>
    <TTGlyph name="ordfeminine" xMin="108" yMin="782" xMax="629" yMax="1433">
      <contour>
        <pt x="317" y="782" on="1"/>
        <pt x="274" y="782" on="0"/>
        <pt x="198" y="807" on="0"/>
        <pt x="141" y="855" on="0"/>
        <pt x="108" y="926" on="0"/>
        <pt x="108" y="973" on="1"/>
        <pt x="108" y="1031" on="0"/>
        <pt x="156" y="1112" on="0"/>
        <pt x="238" y="1164" on="0"/>
        <pt x="348" y="1188" on="0"/>
        <pt x="410" y="1188" on="1"/>
        <pt x="499" y="1188" on="1"/>
        <pt x="499" y="1225" on="1"/>
        <pt x="498" y="1253" on="0"/>
        <pt x="480" y="1294" on="0"/>
        <pt x="451" y="1319" on="0"/>
        <pt x="413" y="1331" on="0"/>
        <pt x="391" y="1331" on="1"/>
        <pt x="347" y="1331" on="0"/>
        <pt x="253" y="1302" on="0"/>
        <pt x="216" y="1278" on="1"/>
        <pt x="168" y="1357" on="1"/>
        <pt x="190" y="1375" on="0"/>
        <pt x="247" y="1404" on="0"/>
        <pt x="311" y="1423" on="0"/>
        <pt x="379" y="1433" on="0"/>
        <pt x="411" y="1433" on="1"/>
        <pt x="454" y="1433" on="0"/>
        <pt x="531" y="1406" on="0"/>
        <pt x="589" y="1351" on="0"/>
        <pt x="624" y="1265" on="0"/>
        <pt x="624" y="1205" on="1"/>
        <pt x="624" y="966" on="1"/>
        <pt x="624" y="930" on="0"/>
        <pt x="625" y="870" on="0"/>
        <pt x="626" y="847" on="1"/>
        <pt x="627" y="821" on="0"/>
        <pt x="629" y="800" on="1"/>
        <pt x="519" y="800" on="1"/>
        <pt x="518" y="811" on="0"/>
        <pt x="515" y="823" on="1"/>
        <pt x="513" y="833" on="0"/>
        <pt x="507" y="858" on="0"/>
        <pt x="505" y="871" on="1"/>
        <pt x="489" y="854" on="0"/>
        <pt x="451" y="822" on="0"/>
        <pt x="405" y="797" on="0"/>
        <pt x="350" y="782" on="0"/>
      </contour>
      <contour>
        <pt x="345" y="891" on="1"/>
        <pt x="395" y="891" on="0"/>
        <pt x="456" y="928" on="0"/>
        <pt x="489" y="986" on="0"/>
        <pt x="499" y="1057" on="0"/>
        <pt x="499" y="1091" on="1"/>
        <pt x="492" y="1091" on="0"/>
        <pt x="473" y="1092" on="0"/>
        <pt x="453" y="1092" on="0"/>
        <pt x="435" y="1092" on="0"/>
        <pt x="431" y="1092" on="1"/>
        <pt x="391" y="1092" on="0"/>
        <pt x="321" y="1080" on="0"/>
        <pt x="269" y="1054" on="0"/>
        <pt x="239" y="1011" on="0"/>
        <pt x="239" y="980" on="1"/>
        <pt x="239" y="963" on="0"/>
        <pt x="250" y="931" on="0"/>
        <pt x="275" y="906" on="0"/>
        <pt x="316" y="891" on="0"/>
      </contour>
    </TTGlyph>
    <TTGlyph name="ordmasculine" xMin="73" yMin="781" xMax="681" yMax="1434">
      <contour>
        <pt x="681" y="1110" on="1"/>
        <pt x="681" y="1036" on="0"/>
        <pt x="639" y="914" on="0"/>
        <pt x="560" y="828" on="0"/>
        <pt x="447" y="781" on="0"/>
        <pt x="376" y="781" on="1"/>
        <pt x="301" y="781" on="0"/>
        <pt x="188" y="831" on="0"/>
        <pt x="112" y="918" on="0"/>
        <pt x="73" y="1038" on="0"/>
        <pt x="73" y="1107" on="1"/>
        <pt x="73" y="1177" on="0"/>
        <pt x="111" y="1297" on="0"/>
        <pt x="187" y="1384" on="0"/>
        <pt x="302" y="1434" on="0"/>
        <pt x="379" y="1434" on="1"/>
        <pt x="461" y="1434" on="0"/>
        <pt x="576" y="1378" on="0"/>
        <pt x="648" y="1287" on="0"/>
        <pt x="681" y="1171" on="0"/>
      </contour>
      <contour>
        <pt x="208" y="1111" on="1"/>
        <pt x="208" y="1066" on="0"/>
        <pt x="225" y="986" on="0"/>
        <pt x="264" y="925" on="0"/>
        <pt x="328" y="889" on="0"/>
        <pt x="376" y="889" on="1"/>
        <pt x="412" y="889" on="0"/>
        <pt x="473" y="915" on="0"/>
        <pt x="518" y="970" on="0"/>
        <pt x="544" y="1054" on="0"/>
        <pt x="544" y="1112" on="1"/>
        <pt x="544" y="1157" on="0"/>
        <pt x="528" y="1236" on="0"/>
        <pt x="491" y="1295" on="0"/>
        <pt x="427" y="1329" on="0"/>
        <pt x="379" y="1329" on="1"/>
        <pt x="333" y="1329" on="0"/>
        <pt x="268" y="1296" on="0"/>
        <pt x="227" y="1238" on="0"/>
        <pt x="208" y="1158" on="0"/>
      </contour>
    </TTGlyph>
    <TTGlyph name="oslash" xMin="98" yMin="-119" xMax="1031" yMax="1171">
      <contour>
        <pt x="1031" y="512" on="1"/>
        <pt x="1031" y="395" on="0"/>
        <pt x="970" y="200" on="0"/>
        <pt x="851" y="59" on="0"/>
        <pt x="675" y="-19" on="0"/>
        <pt x="560" y="-19" on="1"/>
        <pt x="500" y="-19" on="0"/>
        <pt x="395" y="4" on="0"/>
        <pt x="349" y="26" on="1"/>
        <pt x="262" y="-119" on="1"/>
        <pt x="133" y="-85" on="1"/>
        <pt x="244" y="99" on="1"/>
        <pt x="172" y="168" on="0"/>
        <pt x="98" y="374" on="0"/>
        <pt x="98" y="503" on="1"/>
        <pt x="98" y="613" on="0"/>
        <pt x="152" y="808" on="0"/>
        <pt x="267" y="955" on="0"/>
        <pt x="447" y="1041" on="0"/>
        <pt x="572" y="1041" on="1"/>
        <pt x="635" y="1041" on="0"/>
        <pt x="739" y="1017" on="0"/>
        <pt x="784" y="995" on="1"/>
        <pt x="890" y="1171" on="1"/>
        <pt x="1021" y="1136" on="1"/>
        <pt x="889" y="918" on="1"/>
        <pt x="926" y="880" on="0"/>
        <pt x="980" y="787" on="0"/>
        <pt x="1014" y="683" on="0"/>
        <pt x="1031" y="570" on="0"/>
      </contour>
      <contour>
        <pt x="284" y="504" on="1"/>
        <pt x="284" y="429" on="0"/>
        <pt x="309" y="302" on="0"/>
        <pt x="337" y="253" on="1"/>
        <pt x="703" y="861" on="1"/>
        <pt x="644" y="895" on="0"/>
        <pt x="570" y="895" on="1"/>
        <pt x="514" y="895" on="0"/>
        <pt x="411" y="852" on="0"/>
        <pt x="331" y="757" on="0"/>
        <pt x="284" y="609" on="0"/>
      </contour>
      <contour>
        <pt x="564" y="127" on="1"/>
        <pt x="624" y="127" on="0"/>
        <pt x="727" y="170" on="0"/>
        <pt x="802" y="263" on="0"/>
        <pt x="844" y="407" on="0"/>
        <pt x="844" y="508" on="1"/>
        <pt x="844" y="664" on="0"/>
        <pt x="794" y="761" on="1"/>
        <pt x="429" y="158" on="1"/>
        <pt x="486" y="127" on="0"/>
      </contour>
    </TTGlyph>
    <TTGlyph name="otilde" xMin="98" yMin="-19" xMax="1031" yMax="1428">
      <component glyphName="o" x="0" y="0" flags="0x1204"/>
      <component glyphName="tilde" x="156" y="0" flags="0x1004"/>
    </TTGlyph>
    <TTGlyph name="p" xMin="153" yMin="-416" xMax="1059" yMax="1042">
      <contour>
        <pt x="159" y="-416" on="1"/>
        <pt x="159" y="719" on="1"/>
        <pt x="159" y="764" on="0"/>
        <pt x="157" y="867" on="0"/>
        <pt x="156" y="912" on="1"/>
        <pt x="154" y="964" on="0"/>
        <pt x="153" y="1024" on="1"/>
        <pt x="330" y="1024" on="1"/>
        <pt x="343" y="871" on="1"/>
        <pt x="376" y="920" on="0"/>
        <pt x="454" y="986" on="0"/>
        <pt x="537" y="1026" on="0"/>
        <pt x="619" y="1042" on="0"/>
        <pt x="657" y="1042" on="1"/>
        <pt x="738" y="1042" on="0"/>
        <pt x="884" y="976" on="0"/>
        <pt x="994" y="844" on="0"/>
        <pt x="1059" y="644" on="0"/>
        <pt x="1059" y="510" on="1"/>
        <pt x="1059" y="375" on="0"/>
        <pt x="992" y="177" on="0"/>
        <pt x="876" y="46" on="0"/>
        <pt x="723" y="-19" on="0"/>
        <pt x="638" y="-19" on="1"/>
        <pt x="544" y="-19" on="0"/>
        <pt x="397" y="54" on="0"/>
        <pt x="341" y="111" on="1"/>
        <pt x="346" y="-76" on="1"/>
        <pt x="346" y="-416" on="1"/>
      </contour>
      <contour>
        <pt x="611" y="126" on="1"/>
        <pt x="694" y="126" on="0"/>
        <pt x="798" y="198" on="0"/>
        <pt x="856" y="310" on="0"/>
        <pt x="877" y="449" on="0"/>
        <pt x="877" y="516" on="1"/>
        <pt x="877" y="595" on="0"/>
        <pt x="851" y="734" on="0"/>
        <pt x="791" y="836" on="0"/>
        <pt x="693" y="895" on="0"/>
        <pt x="621" y="895" on="1"/>
        <pt x="566" y="895" on="0"/>
        <pt x="466" y="853" on="0"/>
        <pt x="391" y="789" on="0"/>
        <pt x="346" y="712" on="0"/>
        <pt x="346" y="676" on="1"/>
        <pt x="346" y="363" on="1"/>
        <pt x="346" y="323" on="0"/>
        <pt x="378" y="239" on="0"/>
        <pt x="444" y="170" on="0"/>
        <pt x="543" y="126" on="0"/>
      </contour>
    </TTGlyph>
    <TTGlyph name="paragraph" xMin="66" yMin="-290" xMax="1075" yMax="1449">
      <contour>
        <pt x="874" y="-290" on="1"/>
        <pt x="874" y="1298" on="1"/>
        <pt x="671" y="1298" on="1"/>
        <pt x="671" y="-290" on="1"/>
        <pt x="526" y="-290" on="1"/>
        <pt x="526" y="518" on="1"/>
        <pt x="515" y="517" on="0"/>
        <pt x="481" y="516" on="0"/>
        <pt x="470" y="516" on="1"/>
        <pt x="372" y="516" on="0"/>
        <pt x="221" y="584" on="0"/>
        <pt x="119" y="705" on="0"/>
        <pt x="66" y="872" on="0"/>
        <pt x="66" y="971" on="1"/>
        <pt x="66" y="1074" on="0"/>
        <pt x="120" y="1250" on="0"/>
        <pt x="235" y="1377" on="0"/>
        <pt x="415" y="1449" on="0"/>
        <pt x="541" y="1449" on="1"/>
        <pt x="1075" y="1449" on="1"/>
        <pt x="1075" y="1296" on="1"/>
        <pt x="1020" y="1296" on="1"/>
        <pt x="1020" y="-290" on="1"/>
      </contour>
    </TTGlyph>
    <TTGlyph name="parenleft" xMin="100" yMin="-261" xMax="511" yMax="1449">
      <contour>
        <pt x="100" y="598" on="1"/>
        <pt x="100" y="716" on="0"/>
        <pt x="145" y="959" on="0"/>
        <pt x="217" y="1184" on="0"/>
        <pt x="308" y="1379" on="0"/>
        <pt x="353" y="1449" on="1"/>
        <pt x="508" y="1449" on="1"/>
        <pt x="460" y="1357" on="0"/>
        <pt x="379" y="1143" on="0"/>
        <pt x="320" y="920" on="0"/>
        <pt x="288" y="699" on="0"/>
        <pt x="288" y="601" on="1"/>
        <pt x="288" y="494" on="0"/>
        <pt x="315" y="293" on="0"/>
        <pt x="370" y="86" on="0"/>
        <pt x="454" y="-135" on="0"/>
        <pt x="511" y="-261" on="1"/>
        <pt x="358" y="-261" on="1"/>
        <pt x="303" y="-168" on="0"/>
        <pt x="208" y="41" on="0"/>
        <pt x="139" y="261" on="0"/>
        <pt x="100" y="487" on="0"/>
      </contour>
    </TTGlyph>
    <TTGlyph name="parenright" xMin="67" yMin="-261" xMax="479" yMax="1449">
      <contour>
        <pt x="220" y="1449" on="1"/>
        <pt x="275" y="1354" on="0"/>
        <pt x="370" y="1143" on="0"/>
        <pt x="440" y="921" on="0"/>
        <pt x="479" y="694" on="0"/>
        <pt x="479" y="583" on="1"/>
        <pt x="479" y="465" on="0"/>
        <pt x="434" y="223" on="0"/>
        <pt x="362" y="-1" on="0"/>
        <pt x="272" y="-193" on="0"/>
        <pt x="227" y="-261" on="1"/>
        <pt x="72" y="-261" on="1"/>
        <pt x="120" y="-165" on="0"/>
        <pt x="201" y="38" on="0"/>
        <pt x="258" y="250" on="0"/>
        <pt x="290" y="470" on="0"/>
        <pt x="290" y="582" on="1"/>
        <pt x="290" y="690" on="0"/>
        <pt x="263" y="893" on="0"/>
        <pt x="208" y="1100" on="0"/>
        <pt x="124" y="1322" on="0"/>
        <pt x="67" y="1449" on="1"/>
      </contour>
    </TTGlyph>
    <TTGlyph name="partialdiff" xMin="103" yMin="-22" xMax="1001" yMax="1408">
      <contour>
        <pt x="822" y="702" on="1"/>
        <pt x="822" y="713" on="0"/>
        <pt x="823" y="736" on="0"/>
        <pt x="823" y="747" on="1"/>
        <pt x="823" y="808" on="0"/>
        <pt x="809" y="932" on="0"/>
        <pt x="776" y="1048" on="0"/>
        <pt x="723" y="1149" on="0"/>
        <pt x="646" y="1224" on="0"/>
        <pt x="543" y="1267" on="0"/>
        <pt x="477" y="1267" on="1"/>
        <pt x="425" y="1267" on="0"/>
        <pt x="297" y="1237" on="0"/>
        <pt x="228" y="1206" on="1"/>
        <pt x="175" y="1328" on="1"/>
        <pt x="259" y="1368" on="0"/>
        <pt x="418" y="1408" on="0"/>
        <pt x="489" y="1408" on="1"/>
        <pt x="614" y="1408" on="0"/>
        <pt x="805" y="1302" on="0"/>
        <pt x="935" y="1103" on="0"/>
        <pt x="1001" y="820" on="0"/>
        <pt x="1001" y="643" on="1"/>
        <pt x="1001" y="512" on="0"/>
        <pt x="964" y="312" on="0"/>
        <pt x="900" y="164" on="0"/>
        <pt x="811" y="64" on="0"/>
        <pt x="708" y="4" on="0"/>
        <pt x="594" y="-22" on="0"/>
        <pt x="536" y="-22" on="1"/>
        <pt x="447" y="-22" on="0"/>
        <pt x="290" y="35" on="0"/>
        <pt x="172" y="149" on="0"/>
        <pt x="103" y="320" on="0"/>
        <pt x="103" y="435" on="1"/>
        <pt x="103" y="539" on="0"/>
        <pt x="166" y="698" on="0"/>
        <pt x="275" y="806" on="0"/>
        <pt x="424" y="861" on="0"/>
        <pt x="510" y="861" on="1"/>
        <pt x="693" y="861" on="0"/>
      </contour>
      <contour>
        <pt x="542" y="723" on="1"/>
        <pt x="481" y="723" on="0"/>
        <pt x="383" y="683" on="0"/>
        <pt x="315" y="609" on="0"/>
        <pt x="278" y="503" on="0"/>
        <pt x="278" y="436" on="1"/>
        <pt x="278" y="364" on="0"/>
        <pt x="314" y="248" on="0"/>
        <pt x="381" y="166" on="0"/>
        <pt x="477" y="122" on="0"/>
        <pt x="537" y="122" on="1"/>
        <pt x="597" y="122" on="0"/>
        <pt x="698" y="172" on="0"/>
        <pt x="771" y="260" on="0"/>
        <pt x="812" y="380" on="0"/>
        <pt x="812" y="449" on="1"/>
        <pt x="812" y="506" on="0"/>
        <pt x="774" y="605" on="0"/>
        <pt x="704" y="680" on="0"/>
        <pt x="604" y="723" on="0"/>
      </contour>
    </TTGlyph>
    <TTGlyph name="percent" xMin="82" yMin="-40" xMax="1562" yMax="1418">
      <contour>
        <pt x="238" y="1009" on="1"/>
        <pt x="238" y="965" on="0"/>
        <pt x="248" y="873" on="0"/>
        <pt x="280" y="797" on="0"/>
        <pt x="340" y="748" on="0"/>
        <pt x="389" y="748" on="1"/>
        <pt x="437" y="748" on="0"/>
        <pt x="496" y="798" on="0"/>
        <pt x="527" y="875" on="0"/>
        <pt x="538" y="968" on="0"/>
        <pt x="538" y="1010" on="1"/>
        <pt x="538" y="1064" on="0"/>
        <pt x="524" y="1159" on="0"/>
        <pt x="490" y="1230" on="0"/>
        <pt x="433" y="1272" on="0"/>
        <pt x="389" y="1272" on="1"/>
        <pt x="340" y="1272" on="0"/>
        <pt x="280" y="1223" on="0"/>
        <pt x="248" y="1146" on="0"/>
        <pt x="238" y="1053" on="0"/>
      </contour>
      <contour>
        <pt x="695" y="1015" on="1"/>
        <pt x="695" y="917" on="0"/>
        <pt x="652" y="768" on="0"/>
        <pt x="572" y="668" on="0"/>
        <pt x="458" y="616" on="0"/>
        <pt x="387" y="616" on="1"/>
        <pt x="319" y="616" on="0"/>
        <pt x="207" y="665" on="0"/>
        <pt x="127" y="764" on="0"/>
        <pt x="82" y="910" on="0"/>
        <pt x="82" y="1008" on="1"/>
        <pt x="82" y="1098" on="0"/>
        <pt x="120" y="1244" on="0"/>
        <pt x="198" y="1348" on="0"/>
        <pt x="316" y="1405" on="0"/>
        <pt x="396" y="1405" on="1"/>
        <pt x="475" y="1405" on="0"/>
        <pt x="588" y="1346" on="0"/>
        <pt x="661" y="1242" on="0"/>
        <pt x="695" y="1099" on="0"/>
      </contour>
      <contour>
        <pt x="1106" y="362" on="1"/>
        <pt x="1106" y="314" on="0"/>
        <pt x="1118" y="223" on="0"/>
        <pt x="1151" y="154" on="0"/>
        <pt x="1208" y="112" on="0"/>
        <pt x="1254" y="112" on="1"/>
        <pt x="1302" y="112" on="0"/>
        <pt x="1362" y="158" on="0"/>
        <pt x="1396" y="233" on="0"/>
        <pt x="1408" y="327" on="0"/>
        <pt x="1408" y="375" on="1"/>
        <pt x="1408" y="422" on="0"/>
        <pt x="1395" y="516" on="0"/>
        <pt x="1362" y="591" on="0"/>
        <pt x="1302" y="638" on="0"/>
        <pt x="1256" y="638" on="1"/>
        <pt x="1207" y="638" on="0"/>
        <pt x="1148" y="587" on="0"/>
        <pt x="1116" y="506" on="0"/>
        <pt x="1106" y="408" on="0"/>
      </contour>
      <contour>
        <pt x="1562" y="377" on="1"/>
        <pt x="1562" y="285" on="0"/>
        <pt x="1525" y="138" on="0"/>
        <pt x="1449" y="34" on="0"/>
        <pt x="1334" y="-22" on="0"/>
        <pt x="1255" y="-22" on="1"/>
        <pt x="1171" y="-22" on="0"/>
        <pt x="1055" y="41" on="0"/>
        <pt x="982" y="148" on="0"/>
        <pt x="950" y="291" on="0"/>
        <pt x="950" y="372" on="1"/>
        <pt x="950" y="468" on="0"/>
        <pt x="993" y="616" on="0"/>
        <pt x="1073" y="717" on="0"/>
        <pt x="1186" y="768" on="0"/>
        <pt x="1255" y="768" on="1"/>
        <pt x="1286" y="768" on="0"/>
        <pt x="1356" y="753" on="0"/>
        <pt x="1424" y="719" on="0"/>
        <pt x="1486" y="660" on="0"/>
        <pt x="1534" y="574" on="0"/>
        <pt x="1562" y="455" on="0"/>
      </contour>
      <contour>
        <pt x="1305" y="1418" on="1"/>
        <pt x="1201" y="1233" on="0"/>
        <pt x="995" y="870" on="0"/>
        <pt x="790" y="507" on="0"/>
        <pt x="585" y="144" on="0"/>
        <pt x="480" y="-40" on="1"/>
        <pt x="330" y="-40" on="1"/>
        <pt x="1156" y="1418" on="1"/>
      </contour>
    </TTGlyph>
    <TTGlyph name="period" xMin="143" yMin="0" xMax="374" yMax="239">
      <contour>
        <pt x="143" y="239" on="1"/>
        <pt x="374" y="239" on="1"/>
        <pt x="374" y="0" on="1"/>
        <pt x="143" y="0" on="1"/>
      </contour>
    </TTGlyph>
    <TTGlyph name="periodcentered" xMin="143" yMin="448" xMax="367" yMax="697">
      <contour>
        <pt x="143" y="697" on="1"/>
        <pt x="367" y="697" on="1"/>
        <pt x="367" y="448" on="1"/>
        <pt x="143" y="448" on="1"/>
      </contour>
    </TTGlyph>
    <TTGlyph name="perthousand" xMin="82" yMin="-40" xMax="2286" yMax="1418">
      <contour>
        <pt x="238" y="1009" on="1"/>
        <pt x="238" y="965" on="0"/>
        <pt x="248" y="873" on="0"/>
        <pt x="280" y="797" on="0"/>
        <pt x="340" y="748" on="0"/>
        <pt x="389" y="748" on="1"/>
        <pt x="437" y="748" on="0"/>
        <pt x="496" y="798" on="0"/>
        <pt x="527" y="875" on="0"/>
        <pt x="538" y="968" on="0"/>
        <pt x="538" y="1010" on="1"/>
        <pt x="538" y="1064" on="0"/>
        <pt x="524" y="1159" on="0"/>
        <pt x="490" y="1230" on="0"/>
        <pt x="433" y="1272" on="0"/>
        <pt x="389" y="1272" on="1"/>
        <pt x="340" y="1272" on="0"/>
        <pt x="280" y="1223" on="0"/>
        <pt x="248" y="1146" on="0"/>
        <pt x="238" y="1053" on="0"/>
      </contour>
      <contour>
        <pt x="695" y="1015" on="1"/>
        <pt x="695" y="917" on="0"/>
        <pt x="652" y="768" on="0"/>
        <pt x="572" y="668" on="0"/>
        <pt x="458" y="616" on="0"/>
        <pt x="387" y="616" on="1"/>
        <pt x="319" y="616" on="0"/>
        <pt x="207" y="665" on="0"/>
        <pt x="127" y="764" on="0"/>
        <pt x="82" y="910" on="0"/>
        <pt x="82" y="1008" on="1"/>
        <pt x="82" y="1098" on="0"/>
        <pt x="120" y="1244" on="0"/>
        <pt x="198" y="1348" on="0"/>
        <pt x="316" y="1405" on="0"/>
        <pt x="396" y="1405" on="1"/>
        <pt x="475" y="1405" on="0"/>
        <pt x="588" y="1346" on="0"/>
        <pt x="661" y="1242" on="0"/>
        <pt x="695" y="1099" on="0"/>
      </contour>
      <contour>
        <pt x="1106" y="362" on="1"/>
        <pt x="1106" y="314" on="0"/>
        <pt x="1118" y="223" on="0"/>
        <pt x="1151" y="154" on="0"/>
        <pt x="1208" y="112" on="0"/>
        <pt x="1254" y="112" on="1"/>
        <pt x="1302" y="112" on="0"/>
        <pt x="1362" y="158" on="0"/>
        <pt x="1396" y="233" on="0"/>
        <pt x="1408" y="327" on="0"/>
        <pt x="1408" y="375" on="1"/>
        <pt x="1408" y="422" on="0"/>
        <pt x="1395" y="516" on="0"/>
        <pt x="1362" y="591" on="0"/>
        <pt x="1302" y="638" on="0"/>
        <pt x="1256" y="638" on="1"/>
        <pt x="1207" y="638" on="0"/>
        <pt x="1148" y="587" on="0"/>
        <pt x="1116" y="506" on="0"/>
        <pt x="1106" y="408" on="0"/>
      </contour>
      <contour>
        <pt x="1562" y="377" on="1"/>
        <pt x="1562" y="285" on="0"/>
        <pt x="1525" y="138" on="0"/>
        <pt x="1449" y="34" on="0"/>
        <pt x="1334" y="-22" on="0"/>
        <pt x="1255" y="-22" on="1"/>
        <pt x="1171" y="-22" on="0"/>
        <pt x="1055" y="41" on="0"/>
        <pt x="982" y="148" on="0"/>
        <pt x="950" y="291" on="0"/>
        <pt x="950" y="372" on="1"/>
        <pt x="950" y="468" on="0"/>
        <pt x="993" y="616" on="0"/>
        <pt x="1073" y="717" on="0"/>
        <pt x="1186" y="768" on="0"/>
        <pt x="1255" y="768" on="1"/>
        <pt x="1286" y="768" on="0"/>
        <pt x="1356" y="753" on="0"/>
        <pt x="1424" y="719" on="0"/>
        <pt x="1486" y="660" on="0"/>
        <pt x="1534" y="574" on="0"/>
        <pt x="1562" y="455" on="0"/>
      </contour>
      <contour>
        <pt x="1305" y="1418" on="1"/>
        <pt x="1201" y="1233" on="0"/>
        <pt x="995" y="870" on="0"/>
        <pt x="790" y="507" on="0"/>
        <pt x="585" y="144" on="0"/>
        <pt x="480" y="-40" on="1"/>
        <pt x="330" y="-40" on="1"/>
        <pt x="1156" y="1418" on="1"/>
      </contour>
      <contour>
        <pt x="1830" y="362" on="1"/>
        <pt x="1830" y="314" on="0"/>
        <pt x="1842" y="223" on="0"/>
        <pt x="1875" y="154" on="0"/>
        <pt x="1932" y="112" on="0"/>
        <pt x="1978" y="112" on="1"/>
        <pt x="2026" y="112" on="0"/>
        <pt x="2086" y="158" on="0"/>
        <pt x="2120" y="233" on="0"/>
        <pt x="2132" y="327" on="0"/>
        <pt x="2132" y="375" on="1"/>
        <pt x="2132" y="422" on="0"/>
        <pt x="2119" y="516" on="0"/>
        <pt x="2086" y="591" on="0"/>
        <pt x="2026" y="638" on="0"/>
        <pt x="1980" y="638" on="1"/>
        <pt x="1931" y="638" on="0"/>
        <pt x="1872" y="587" on="0"/>
        <pt x="1840" y="506" on="0"/>
        <pt x="1830" y="408" on="0"/>
      </contour>
      <contour>
        <pt x="2286" y="377" on="1"/>
        <pt x="2286" y="285" on="0"/>
        <pt x="2249" y="138" on="0"/>
        <pt x="2173" y="34" on="0"/>
        <pt x="2058" y="-22" on="0"/>
        <pt x="1979" y="-22" on="1"/>
        <pt x="1895" y="-22" on="0"/>
        <pt x="1779" y="41" on="0"/>
        <pt x="1706" y="148" on="0"/>
        <pt x="1674" y="291" on="0"/>
        <pt x="1674" y="372" on="1"/>
        <pt x="1674" y="468" on="0"/>
        <pt x="1717" y="616" on="0"/>
        <pt x="1797" y="717" on="0"/>
        <pt x="1910" y="768" on="0"/>
        <pt x="1979" y="768" on="1"/>
        <pt x="2010" y="768" on="0"/>
        <pt x="2080" y="753" on="0"/>
        <pt x="2148" y="719" on="0"/>
        <pt x="2210" y="660" on="0"/>
        <pt x="2258" y="574" on="0"/>
        <pt x="2286" y="455" on="0"/>
      </contour>
    </TTGlyph>
    <TTGlyph name="pi" xMin="49" yMin="0" xMax="1129" yMax="1018">
      <contour>
        <pt x="962" y="861" on="1"/>
        <pt x="962" y="292" on="1"/>
        <pt x="962" y="190" on="0"/>
        <pt x="979" y="45" on="0"/>
        <pt x="989" y="0" on="1"/>
        <pt x="821" y="0" on="1"/>
        <pt x="805" y="32" on="0"/>
        <pt x="785" y="169" on="0"/>
        <pt x="785" y="281" on="1"/>
        <pt x="785" y="861" on="1"/>
        <pt x="461" y="861" on="1"/>
        <pt x="458" y="799" on="0"/>
        <pt x="445" y="651" on="0"/>
        <pt x="426" y="492" on="0"/>
        <pt x="401" y="330" on="0"/>
        <pt x="372" y="180" on="0"/>
        <pt x="339" y="49" on="0"/>
        <pt x="321" y="0" on="1"/>
        <pt x="146" y="0" on="1"/>
        <pt x="164" y="55" on="0"/>
        <pt x="197" y="192" on="0"/>
        <pt x="226" y="341" on="0"/>
        <pt x="251" y="499" on="0"/>
        <pt x="270" y="654" on="0"/>
        <pt x="283" y="799" on="0"/>
        <pt x="286" y="861" on="1"/>
        <pt x="208" y="859" on="0"/>
        <pt x="111" y="847" on="0"/>
        <pt x="76" y="837" on="1"/>
        <pt x="49" y="960" on="1"/>
        <pt x="93" y="984" on="0"/>
        <pt x="233" y="1018" on="0"/>
        <pt x="343" y="1018" on="1"/>
        <pt x="1129" y="1018" on="1"/>
        <pt x="1112" y="861" on="1"/>
      </contour>
    </TTGlyph>
    <TTGlyph name="plus" xMin="87" yMin="114" xMax="1035" yMax="1058">
      <contour>
        <pt x="478" y="505" on="1"/>
        <pt x="87" y="505" on="1"/>
        <pt x="87" y="665" on="1"/>
        <pt x="478" y="665" on="1"/>
        <pt x="478" y="1058" on="1"/>
        <pt x="642" y="1058" on="1"/>
        <pt x="642" y="665" on="1"/>
        <pt x="1035" y="665" on="1"/>
        <pt x="1035" y="505" on="1"/>
        <pt x="642" y="505" on="1"/>
        <pt x="642" y="114" on="1"/>
        <pt x="478" y="114" on="1"/>
      </contour>
    </TTGlyph>
    <TTGlyph name="plusminus" xMin="133" yMin="-13" xMax="1081" yMax="1070">
      <contour>
        <pt x="524" y="564" on="1"/>
        <pt x="133" y="564" on="1"/>
        <pt x="133" y="725" on="1"/>
        <pt x="524" y="725" on="1"/>
        <pt x="524" y="1070" on="1"/>
        <pt x="688" y="1070" on="1"/>
        <pt x="688" y="725" on="1"/>
        <pt x="1081" y="725" on="1"/>
        <pt x="1081" y="564" on="1"/>
        <pt x="688" y="564" on="1"/>
        <pt x="688" y="222" on="1"/>
        <pt x="524" y="222" on="1"/>
      </contour>
      <contour>
        <pt x="133" y="-13" on="1"/>
        <pt x="133" y="147" on="1"/>
        <pt x="1081" y="147" on="1"/>
        <pt x="1081" y="-13" on="1"/>
      </contour>
    </TTGlyph>
    <TTGlyph name="product" xMin="65" yMin="-187" xMax="1338" yMax="1361">
      <contour>
        <pt x="1131" y="1193" on="1"/>
        <pt x="1131" y="-187" on="1"/>
        <pt x="956" y="-187" on="1"/>
        <pt x="956" y="1193" on="1"/>
        <pt x="449" y="1193" on="1"/>
        <pt x="449" y="-187" on="1"/>
        <pt x="274" y="-187" on="1"/>
        <pt x="274" y="1193" on="1"/>
        <pt x="65" y="1193" on="1"/>
        <pt x="65" y="1361" on="1"/>
        <pt x="1338" y="1361" on="1"/>
        <pt x="1338" y="1193" on="1"/>
      </contour>
    </TTGlyph>
    <TTGlyph name="q" xMin="101" yMin="-416" xMax="1002" yMax="1041">
      <contour>
        <pt x="499" y="1041" on="1"/>
        <pt x="555" y="1041" on="0"/>
        <pt x="649" y="1011" on="0"/>
        <pt x="727" y="962" on="0"/>
        <pt x="790" y="901" on="0"/>
        <pt x="816" y="870" on="1"/>
        <pt x="829" y="1025" on="1"/>
        <pt x="1002" y="1025" on="1"/>
        <pt x="1002" y="1020" on="0"/>
        <pt x="1001" y="977" on="0"/>
        <pt x="1000" y="933" on="0"/>
        <pt x="999" y="884" on="0"/>
        <pt x="998" y="840" on="0"/>
        <pt x="997" y="808" on="0"/>
        <pt x="997" y="804" on="1"/>
        <pt x="997" y="-416" on="1"/>
        <pt x="811" y="-416" on="1"/>
        <pt x="811" y="-75" on="1"/>
        <pt x="811" y="-51" on="0"/>
        <pt x="812" y="3" on="0"/>
        <pt x="814" y="56" on="0"/>
        <pt x="816" y="101" on="0"/>
        <pt x="817" y="115" on="1"/>
        <pt x="747" y="44" on="0"/>
        <pt x="588" y="-19" on="0"/>
        <pt x="518" y="-19" on="1"/>
        <pt x="430" y="-19" on="0"/>
        <pt x="278" y="46" on="0"/>
        <pt x="165" y="178" on="0"/>
        <pt x="101" y="377" on="0"/>
        <pt x="101" y="511" on="1"/>
        <pt x="101" y="647" on="0"/>
        <pt x="164" y="847" on="0"/>
        <pt x="272" y="977" on="0"/>
        <pt x="417" y="1041" on="0"/>
      </contour>
      <contour>
        <pt x="815" y="477" on="1"/>
        <pt x="815" y="516" on="0"/>
        <pt x="810" y="609" on="0"/>
        <pt x="792" y="702" on="0"/>
        <pt x="756" y="788" on="0"/>
        <pt x="695" y="855" on="0"/>
        <pt x="604" y="895" on="0"/>
        <pt x="539" y="895" on="1"/>
        <pt x="485" y="895" on="0"/>
        <pt x="406" y="861" on="0"/>
        <pt x="350" y="802" on="0"/>
        <pt x="314" y="726" on="0"/>
        <pt x="294" y="641" on="0"/>
        <pt x="287" y="555" on="0"/>
        <pt x="287" y="516" on="1"/>
        <pt x="287" y="472" on="0"/>
        <pt x="296" y="381" on="0"/>
        <pt x="318" y="295" on="0"/>
        <pt x="356" y="218" on="0"/>
        <pt x="415" y="160" on="0"/>
        <pt x="497" y="127" on="0"/>
        <pt x="552" y="127" on="1"/>
        <pt x="628" y="127" on="0"/>
        <pt x="729" y="180" on="0"/>
        <pt x="790" y="273" on="0"/>
        <pt x="815" y="401" on="0"/>
      </contour>
    </TTGlyph>
    <TTGlyph name="question" xMin="65" yMin="0" xMax="803" yMax="1417">
      <contour>
        <pt x="283" y="338" on="1"/>
        <pt x="283" y="417" on="1"/>
        <pt x="283" y="467" on="0"/>
        <pt x="292" y="547" on="0"/>
        <pt x="319" y="621" on="0"/>
        <pt x="370" y="693" on="0"/>
        <pt x="412" y="735" on="1"/>
        <pt x="455" y="778" on="0"/>
        <pt x="528" y="857" on="0"/>
        <pt x="579" y="933" on="0"/>
        <pt x="608" y="1010" on="0"/>
        <pt x="608" y="1052" on="1"/>
        <pt x="608" y="1111" on="0"/>
        <pt x="559" y="1187" on="0"/>
        <pt x="487" y="1230" on="0"/>
        <pt x="405" y="1247" on="0"/>
        <pt x="372" y="1247" on="1"/>
        <pt x="327" y="1247" on="0"/>
        <pt x="188" y="1218" on="0"/>
        <pt x="95" y="1177" on="1"/>
        <pt x="65" y="1348" on="1"/>
        <pt x="125" y="1374" on="0"/>
        <pt x="283" y="1417" on="0"/>
        <pt x="378" y="1417" on="1"/>
        <pt x="476" y="1417" on="0"/>
        <pt x="634" y="1369" on="0"/>
        <pt x="744" y="1277" on="0"/>
        <pt x="803" y="1145" on="0"/>
        <pt x="803" y="1061" on="1"/>
        <pt x="803" y="998" on="0"/>
        <pt x="775" y="902" on="0"/>
        <pt x="720" y="815" on="0"/>
        <pt x="636" y="728" on="0"/>
        <pt x="580" y="675" on="1"/>
        <pt x="537" y="635" on="0"/>
        <pt x="483" y="579" on="0"/>
        <pt x="453" y="524" on="0"/>
        <pt x="442" y="458" on="0"/>
        <pt x="442" y="408" on="1"/>
        <pt x="442" y="338" on="1"/>
      </contour>
      <contour>
        <pt x="256" y="211" on="1"/>
        <pt x="469" y="211" on="1"/>
        <pt x="469" y="0" on="1"/>
        <pt x="256" y="0" on="1"/>
      </contour>
    </TTGlyph>
    <TTGlyph name="questiondown" xMin="78" yMin="-4" xMax="817" yMax="1413">
      <component glyphName="question" x="882" y="1413" scale="-0.999877929688" flags="0x1004"/>
    </TTGlyph>
    <TTGlyph name="quotedbl" xMin="123" yMin="875" xMax="638" yMax="1377">
      <contour>
        <pt x="308" y="1377" on="1"/>
        <pt x="308" y="875" on="1"/>
        <pt x="169" y="875" on="1"/>
        <pt x="123" y="1377" on="1"/>
      </contour>
      <contour>
        <pt x="638" y="1377" on="1"/>
        <pt x="593" y="875" on="1"/>
        <pt x="474" y="875" on="1"/>
        <pt x="474" y="1377" on="1"/>
      </contour>
    </TTGlyph>
    <TTGlyph name="quotedblbase" xMin="55" yMin="-256" xMax="751" yMax="223">
      <contour>
        <pt x="419" y="-256" on="1"/>
        <pt x="529" y="223" on="1"/>
        <pt x="751" y="223" on="1"/>
        <pt x="558" y="-256" on="1"/>
      </contour>
      <contour>
        <pt x="55" y="-256" on="1"/>
        <pt x="165" y="223" on="1"/>
        <pt x="387" y="223" on="1"/>
        <pt x="194" y="-256" on="1"/>
      </contour>
    </TTGlyph>
    <TTGlyph name="quotedblleft" xMin="92" yMin="919" xMax="793" yMax="1408">
      <contour>
        <pt x="454" y="919" on="1"/>
        <pt x="652" y="1408" on="1"/>
        <pt x="793" y="1408" on="1"/>
        <pt x="674" y="919" on="1"/>
      </contour>
      <contour>
        <pt x="92" y="919" on="1"/>
        <pt x="290" y="1408" on="1"/>
        <pt x="431" y="1408" on="1"/>
        <pt x="312" y="919" on="1"/>
      </contour>
    </TTGlyph>
    <TTGlyph name="quotedblright" xMin="109" yMin="919" xMax="808" yMax="1408">
      <contour>
        <pt x="474" y="919" on="1"/>
        <pt x="585" y="1408" on="1"/>
        <pt x="808" y="1408" on="1"/>
        <pt x="612" y="919" on="1"/>
      </contour>
      <contour>
        <pt x="109" y="919" on="1"/>
        <pt x="220" y="1408" on="1"/>
        <pt x="443" y="1408" on="1"/>
        <pt x="247" y="919" on="1"/>
      </contour>
    </TTGlyph>
    <TTGlyph name="quoteleft" xMin="92" yMin="919" xMax="431" yMax="1408">
      <contour>
        <pt x="92" y="919" on="1"/>
        <pt x="290" y="1408" on="1"/>
        <pt x="431" y="1408" on="1"/>
        <pt x="312" y="919" on="1"/>
      </contour>
    </TTGlyph>
    <TTGlyph name="quoteright" xMin="109" yMin="919" xMax="443" yMax="1408">
      <contour>
        <pt x="109" y="919" on="1"/>
        <pt x="220" y="1408" on="1"/>
        <pt x="443" y="1408" on="1"/>
        <pt x="247" y="919" on="1"/>
      </contour>
    </TTGlyph>
</ttFont>
